<svg width="30" height="30" viewBox="0 0 30 30" fill="none" xmlns="http://www.w3.org/2000/svg"><path d="M21.86 0H7.405C3.316 0 0 3.328 0 7.434v14.509c0 4.105 3.316 7.434 7.406 7.434h14.453c4.09 0 7.406-3.328 7.406-7.434V7.434C29.265 3.328 25.95 0 21.86 0" fill="#00DDB3"/><path d="M22.245 6.58c-5.04 0-6.907 3.61-8.41 6.512l-.977 1.855c-1.59 3.077-2.778 4.945-5.837 4.945-.383 0-.75.153-1.02.425a1.452 1.452 0 0 0 1.02 2.474c5.038 0 6.906-3.61 8.41-6.512l.98-1.855C18 11.347 19.188 9.48 22.247 9.48c.383 0 .75-.153 1.021-.425a1.452 1.452 0 0 0-1.02-2.474z" fill="#fff"/></svg>