<?xml version="1.0" encoding="UTF-8"?>
<svg id="Capa_2" data-name="Capa 2" xmlns="http://www.w3.org/2000/svg" viewBox="0 0 86.36 72.27">
  <defs>
    <style>
      .cls-1 {
        letter-spacing: .17em;
      }

      .cls-2 {
        letter-spacing: .18em;
      }

      .cls-3 {
        fill: #1d1d1b;
        font-family: TraditionalTattooRegular, 'Traditional Tattoo';
        font-size: 21.38px;
      }

      .cls-4 {
        letter-spacing: .2em;
      }
    </style>
  </defs>
  <g id="Capa_1-2" data-name="Capa 1">
    <g>
      <path d="m86.3,22.78c.01-4,.03-8-.04-11.99-.08-4.43-2.35-7.64-6.17-9.56-3.85-1.93-7.74-1.58-11.31,1-.91.66-1.82,1.3-2.81,2.01-6.43-6.14-12.6-5.25-18.37.4-6.93-6-10.27-6.08-18.58-.56-.46-.31-1.01-.65-1.52-1.04C20-2.74,11.17.44,9.22,9.61c-.38,1.79-.72,3.58-1.22,5.33C5.61,23.26,3.22,31.57.75,39.86c-1.08,3.65-1.07,7.18.48,10.71,1.61,3.65,3.1,7.36,4.66,11.03,3,7.07,8.53,10.47,16.03,10.59,9.49.14,18.98.08,28.47,0,4.66-.04,5.53-1.28,4.25-5.91-.66-2.38-1.61-4.66-2.43-6.99,2.47-.01,5.07.42,7.39-.19,2.45-.63,4.64-2.27,6.61-3.29,2.27,1.22,4.18,2.74,6.34,3.31,7.26,1.92,13.46-2.75,13.67-10.37.24-8.65.08-17.32.08-25.97Zm-3.36,23.64c-.01,1.63-.23,3.35-.79,4.87-1.36,3.63-4.34,5.32-7.81,4.74-3.69-.62-6.03-2.91-6.16-6.75-.24-6.95-.19-13.91-.25-20.87,0-.16.06-.33.06-.49-.02-1.94.77-4.85-1.49-5.25-2.79-.5-1.82,2.51-2.45,4.14v5.03c.08.17.11.32.12.46.05,5.64.18,11.29-.02,16.93-.15,3.93-3.38,6.82-7.15,6.91-3.51.09-7.05-2.44-7.39-6.15-.6-6.36-.27-12.77-.16-19.93.08.05.15.1.22.15v-3.34c-.71-1.8.46-4.51-2.27-4.18-2.21.26-1.31,3.05-1.34,4.74-.11,6.16-.04,12.32-.05,18.48,0,1.17.05,2.35-.09,3.5-.46,3.8-3.28,6.51-6.89,6.72-3.55.21-6.83-2.22-7.62-5.9-.35-1.6-.28-3.31-.29-4.97-.03-5.99.02-11.99-.05-17.98-.02-1.73.45-3.73-1.67-4.87-1.86.66-1.79,2.17-1.78,3.66.06,6.82.14,13.63.12,20.44,0,1.32-.27,2.66-.62,3.93-.89,3.23-3.62,5.44-6.82,5.68-3.2.24-5.98-1.54-7.14-5.07-.61-1.85-.6-3.91-.75-5.88-.16-2.15-.11-4.32-.34-6.47-.04-.46-.85-1.16-1.32-1.17-.46-.02-1.32.69-1.34,1.12-.27,5.11-1.28,10.34,1.04,15.24,2.49,5.27,9.88,7.26,15.07,4.18,1.26-.75,2.38-1.73,3.73-2.73,4.86,4.68,10.22,5.43,16.08,2.26,2.49,2.99,5.33,5.61,5.69,10.1-1.22.25-2.28.65-3.35.65-8.83.05-17.66-.04-26.48.05-5.48.06-9.26-2.48-11.52-7.25-2.07-4.35-3.95-8.82-5.61-13.34-.6-1.62-.77-3.67-.35-5.32,1.38-5.47,3.12-10.85,4.66-16.03.99.55,1.88,1.04,2.77,1.53.4-.84,1.13-1.68,1.16-2.53.14-3.66,0-7.33.11-10.99.05-1.82.22-3.67.68-5.42.85-3.18,2.99-5.15,6.34-5.53,2.99-.34,6.07,1.65,7.5,4.76.6,1.29,1.13,2.61,2.21,5.14,1.16-2.3,1.85-3.48,2.37-4.73,1.33-3.24,3.58-5.19,7.17-5.22,3.29-.04,5.78,2.07,7.2,5.87.38,1.01.87,1.98,1.75,3.98,1.01-1.96,1.7-2.98,2.09-4.1,1.21-3.52,3.5-5.62,7.32-5.71,3.18-.07,5.61,2,7.13,5.9.18.46.21,1.02.49,1.4.37.5,1.05,1.28,1.36,1.19.68-.21,1.37-.8,1.75-1.42.41-.68.4-1.61.73-2.37,1.24-2.88,4.19-4.89,7.04-4.71,3.29.22,5.71,1.81,6.71,5.05.44,1.4.68,2.92.69,4.39.06,11.16.06,22.32,0,33.48Z"/>
      <text class="cls-3" transform="translate(14.5 39.2) scale(.86 1)"><tspan class="cls-2" x="0" y="0">L</tspan><tspan class="cls-1" x="19.22" y="0">O</tspan><tspan class="cls-4" x="40.28" y="0">VE</tspan></text>
    </g>
  </g>
</svg>