<?xml version="1.0" encoding="UTF-8"?>
<svg id="Capa_2" data-name="Capa 2" xmlns="http://www.w3.org/2000/svg" viewBox="0 0 215.71 172.49">
  <g id="Capa_1-2" data-name="Capa 1">
    <path d="m69.75,97.33c6.34-1.69,12.08-3.22,18.71-4.99,5.22,9.23,15,14.37,26.55,16.24,11.28,1.83,22.2.17,33.22-5.8,0,7.57,0,14.43,0,21.3,0,4,.24,8.02-.12,11.98-1.16,12.97-12.37,23.49-25.51,23.54-39.63.14-79.26.06-118.89.05-.82,0-1.64-.14-3.31-.3,0-5.74-.28-11.5.12-17.22.18-2.6,2.08-2.67,4.34-1.22,2.47,1.59,5.3,3.67,7.99,3.69,36.13.24,72.26.2,108.4.14,9.9-.02,16.57-6.51,16.79-15.97.21-8.93-6.23-17.23-15.07-16.47-16.19,1.38-29.73-5.7-43.9-11.16-3.15-1.22-6.26-2.56-9.32-3.82Z"/>
    <path d="m215.71,107.62c-18.23,14.78-38.18,23.14-62.05,21.09v-17.2c13.93-.97,27.82-1.93,41.7-2.89.02-.24.03-.49.05-.73-13.85-.99-27.7-1.98-41.35-2.96-1.84-4.63,1.07-7.53,2.18-11.04,2.5-7.89,7.48-8.14,14.38-7.23,13.98,1.85,30.85,9.24,45.09,20.97Z"/>
    <path d="m161.77,77.86c-1.61-5.88-3.08-11.26-4.75-17.41,5.63-4.87,11.87-10.27,18.11-15.67-.19-.3-.38-.6-.57-.9-6.19,3.34-12.45,6.56-18.52,10.09-2.48,1.44-4.03,1.45-6.52-.35-3.96-2.86-8.53-4.85-13.16-7.38,16.72-12.15,35.59-14.95,55.99-14.08-5.46,18.63-14.49,34.39-30.57,45.7Z"/>
    <path d="m91.4,50.36c5.03-2.72,9.64-5.21,14.89-8.06-.34-6.98-.72-14.71-1.1-22.45.33-.07.65-.13.98-.2,1.74,6.37,3.62,12.7,5.16,19.11.63,2.62,1.63,3.67,4.46,4.2,4.5.83,8.82,2.65,13.54,4.15-2.59-19.22-12.92-33.84-26.73-47.12-9.1,15.78-13.95,32.12-11.2,50.36Z"/>
    <path d="m56.61,67.21c3.89-4.19,7.46-8.03,11.52-12.41-2.56-6.5-5.4-13.7-8.24-20.91.29-.17.58-.33.87-.5,3.69,5.47,7.5,10.87,11.01,16.45,1.43,2.28,2.72,2.96,5.57,2.54,4.53-.65,9.21-.32,14.16-.41-8.62-17.37-23.09-27.9-40.43-36.05-3.56,17.87-2.91,34.9,5.54,51.29Z"/>
    <path d="m123.5,82.61c3.33,2.4,6.62,1.1,9.42-1.29,2.86-2.44,2.68-5.51.43-8.46-4.53-5.94-16.56-5.64-20.71.52-2.75,4.08-1.41,9.58,3.2,13.19,6.39,5.01,17.41,5.35,24.48.74,1.19-.78,2.33-1.64,3.69-2.6-1.27,6.34-6.27,11.01-13.09,12.05-9.18,1.4-17.99-.11-26.05-4.68-12.1-6.85-12.18-20.64,0-27.4,10.15-5.63,20.75-5.53,30.99.13,4.94,2.73,8.46,6.83,7.7,12.88-.79,6.39-5.95,8.51-11.33,9.65-5.63,1.19-11.13.13-15.32-3.95-1.53-1.49-2.7-4.61-2.23-6.54.47-1.9,3.03-4.1,5.05-4.58,2.74-.66,6.02-.34,8.71.59,1.54.53,2.37,3.1,3.53,4.75-1.57,1.04-3.05,2.27-4.74,3.05-1.08.5-2.48.32-3.73.44,0,.5-.01,1-.02,1.51Z"/>
    <path d="m153.08,136.89c12.46,8.89,20.71,20.56,27.76,33.92-17.17,3.67-33.02,1.29-47.95-7.02,4.5-3.18,8.78-6.21,13.34-9.43,5.9,2.54,12.22,5.26,18.54,7.98.18-.28.36-.57.55-.85-4.22-3.31-8.35-6.73-12.69-9.87-2.48-1.79-3.67-3.32-1.93-6.49,1.24-2.25,1.51-5.05,2.39-8.25Z"/>
    <path d="m8.1,102.01c1.53-.41,3.05-1.17,4.58-1.18,18.66-.08,37.35-.67,55.95.27,6.81.35,13.62,3.98,20.1,6.87,10.63,4.73,21.32,7.89,33.2,7.03,7.87-.57,13.27,5.72,13.15,13.7-.12,7.75-5.37,13.11-13.24,13.13-36.32.06-72.63.03-108.95,0-1.41,0-2.82-.29-4.23-.44,0-.42,0-.84,0-1.26,1.58-.08,3.17-.22,4.75-.22,33.98-.01,67.97,0,101.95,0,1.67,0,3.34.05,5-.04,6.53-.35,11.49-5.16,11.76-11.35.24-5.46-4.25-10.84-10.07-12.04-.65-.13-1.34-.33-1.98-.24-15.73,2.28-29.11-4.95-43-10.35-3.62-1.4-7.68-2.22-11.56-2.27-17.32-.24-34.65-.1-51.97-.1-1.74,0-3.47,0-5.21,0l-.24-1.51Z"/>
    <path d="m34.79,80.75l-2.02-14.36c2.28-.55,4.54-1.1,6.78-1.65,9.7-2.35,18.64,5.95,17.03,15.8l-.03.21h-21.76Z"/>
    <path d="m63.95,97.6H23.75c.52-6.49,4.8-11.3,10.97-11.68,6.12-.38,12.31-.39,18.43.02,6.2.42,10.42,5.29,10.8,11.66Z"/>
    <path d="m74.97,91.37c2.14-5.51,5.12-10.46,5.88-15.73,1.44-10.03-5.41-15.1-15-11.98,2.58-5.87,7.37-9.28,12.79-8.81,5.96.51,8.89,4.51,10.67,9.73,2.74,8.03-.27,18.83-7.09,23.76-2.21,1.6-5.14,2.18-7.24,3.03Z"/>
    <path d="m51.88,109.31h23.36c-4.21,8.72-7.84,16.24-12.09,25.05-4.05-9.01-7.63-16.96-11.27-25.05Z"/>
    <path d="m8.59,134.51c3.78-8.51,7.38-16.64,11.32-25.5,3.94,8.79,7.57,16.9,11.42,25.5H8.59Z"/>
    <path d="m60.09,134.58h-22.83c3.75-8.42,7.3-16.36,11.37-25.5,4.05,9,7.63,16.97,11.46,25.5Z"/>
    <path d="m45.69,108.78c-3.87,8.62-7.38,16.44-11.4,25.39-4.01-8.98-7.54-16.88-11.35-25.39h22.75Z"/>
    <path d="m77.43,111.53c4.05,8.35,7.49,15.44,11.18,23.03h-22.46c3.76-7.68,7.28-14.87,11.28-23.03Z"/>
    <path d="m89.98,53.72c10.83-1.08,21.47-2.14,32.1-3.2.14.51.27,1.02.41,1.54-8.97,5.04-17.95,10.08-26.85,15.08-1.53-3.63-3.42-8.1-5.66-13.41Z"/>
    <path d="m22.41,85.8c-1.86,4.25-3.42,7.82-5.2,11.89-1.09.05-2.86-.25-4.32.28-2.78,1.01-5.38,2.49-8.05,3.81-.94.46-1.82,1.38-2.75,1.4-.56.01-1.46-1.22-1.67-2.03-2.02-7.67,3.3-14.93,11.26-15.32,3.47-.17,6.96-.03,10.71-.03Z"/>
    <path d="m29.53,80.48h-15.53c-4.09-11.16-2.25-13.19,13.31-14.35.71,4.58,1.43,9.21,2.22,14.35Z"/>
    <path d="m92.92,83.17c11.04,19.31,29.46,16.57,47.65,16.95-14.39,7.52-36.46,3.8-45.12-7.09-2.04-2.56-5.44-5.25-2.53-9.86Z"/>
    <path d="m102.27,121.4c-3.66,4.86-6.8,9.05-10.27,13.65-3.6-7.37-6.88-14.12-10.79-22.12,7.65,3.08,14.02,5.64,21.05,8.47Z"/>
    <path d="m110.06,121.41c4.28,0,7.6-.4,10.78.09,5.14.8,7.56,5.74,5.29,9.96-2.23,4.16-5.26,4.4-8.15.6-2.49-3.28-4.91-6.6-7.91-10.65Z"/>
    <path d="m116.51,134.68h-20.63c3.55-4.71,6.64-8.82,10.21-13.56,3.46,4.51,6.62,8.62,10.41,13.56Z"/>
    <path d="m137.42,61.74c9.38-5.7,12.38-4.58,16.25,6.25-2.52.92-5.05,1.84-7.69,2.8-1.35-1.71-2.46-3.34-3.81-4.77-1.35-1.43-2.93-2.66-4.75-4.28Z"/>
    <path d="m119.85,57.42c9.89-7.26,13.65-7.56,22.34-2.27-6.53,6.89-14.28,3.16-22.34,2.27Z"/>
    <path d="m7.61,127.52v-18.71h9.25c-2.97,6.7-5.7,12.83-8.42,18.96l-.83-.25Z"/>
    <path d="m154.87,71.04c2.08,11.38,1.26,12.96-6.3,12.18v-10.11c2-.66,4.13-1.36,6.3-2.08Z"/>
    <path d="m153.34,86.92c-1.48,7.99-5.97,11.42-14.25,9.6,6.02-2.47,5.71-11.82,14.25-9.6Z"/>
    <path d="m66.81,71.48c4.23-3.68,6.45-3.2,7.86,1.29,1.58,5.01-.59,10.82-5.07,13.58,4.18-10.09,3.66-13.36-2.79-14.87Z"/>
    <path d="m68.25,65.04c2.29.27,5.18-.24,6.77.97,4.13,3.14,3.79,7.86,2.96,13.62-1.49-11.88-2.16-12.71-9.83-13.23.03-.45.06-.9.1-1.35Z"/>
    <path d="m68.29,95.09l4.04-1.91s-6.17,1.57-6.84-5.04-.67-22.64-.67-22.64l-5.04,15.58,2.35,4.48s2.02,9.86,6.17,9.53Z"/>
  </g>
</svg>