<?xml version="1.0" encoding="UTF-8"?>
<svg id="Capa_2" data-name="Capa 2" xmlns="http://www.w3.org/2000/svg" viewBox="0 0 173.48 53.51">
  <g id="Capa_1-2" data-name="Capa 1">
    <g>
      <path d="m67.78,52.72h-8.81c-3.45-6.34-6.81-12.52-10.18-18.71-.1.08-.2.14-.27.23-.06.09-.13.2-.13.3,0,5.52,0,11.04,0,16.57-2.48.99-4.59-1.12-6.81-.44-.45-.45-.79-.79-1.13-1.13,0-14.92,0-29.84,0-44.87,2.01-.82,4.07-1.65,6.19-2.52,3.97,8.63,6.75,17.7,10.42,26.41.06.14.32.19.81.45-.39-1.9.54-3.65-.6-5.31-.17-.24-.26-.81-.11-.94,1.19-1.1.58-2.5.6-3.73.08-5.52.03-11.04.03-16.8,3.14-1.45,6.69-1,10-2.23v52.71Z"/>
      <path d="m123.7,33.24c-1.55,3.39-3.1,6.79-4.76,10.43-1.77-3.91-3.41-7.52-5.36-11.82-.08,1.61-.42,2.64-.1,3.38.45,1.01.12,1.79-.06,2.69-.29,1.46-.59,2.92-.71,4.39-.12,1.43-.08,2.89-.01,4.33.09,1.99-.08,3.94-.96,5.98h-9.26c.28-1.74.66-3.4.79-5.07.14-1.67-.47-3.59.16-4.99.75-1.67.38-3.22.6-4.81.23-1.71.44-3.42.73-5.11.28-1.58-.76-3.35.68-4.78.12-.12.05-.47.02-.7-.53-3.8.78-7.48.77-11.25,0-1.46.54-2.92.65-4.4.12-1.55-.4-3.29.12-4.65.84-2.19.42-4.39.74-6.86,1.46.26,2.87.54,4.29.77,1.34.22,2.68.4,4.16.61.87,4.38,1.71,8.6,2.62,13.14.35-.35.7-.7.93-.93.63-3.99,1.24-7.86,1.87-11.88,2.24-1.15,4.45.82,6.98.55,0,.98-.05,1.81,0,2.63.22,3.39.08,6.87.85,10.14.55,2.36.5,4.64.56,6.95.05,1.75,1.05,3.28.81,5.12-.2,1.57-.46,3.29.65,4.75.06.08,0,.24,0,.36.24,3.99.47,7.98.73,11.97.1,1.58.28,3.15.43,4.78-2.33.5-4.85,1.04-7.66,1.64.49-3.57-.98-6.92-.75-10.46.15-2.25.03-4.51.03-6.76-.18-.05-.37-.09-.55-.14Z"/>
      <path d="m83.34.08h5.91c1.46,3.39,1.55,7.07,2.48,10.55,1.16,4.37,1.59,8.89,2.85,13.25.57,1.97.3,4.18.83,6.17.9,3.39,1.31,6.9,2.37,10.21.6,1.88.31,3.81,1.07,5.68.66,1.62,1.25,3.5.88,5.44-.06.32.4.74.63,1.11-.34.34-.68.68-1.02,1.02-1.14-1.39-2.68-.54-4.03-.69-1.3-.14-2.63-.03-3.93-.03-1.03-1.42-1.15-2.99-1.09-4.65.07-1.96-1.21-6.31-2.4-8.35h-2.62c-.84,0-1.68,0-2.53,0-1.71,1.27-1.31,3.34-1.75,5.02-.66,2.51-1.46,5.02-1.6,7.66-.01.27-.48.51-.73.77-2.77-1.03-5.7-.05-8.64-.63,1.95-5.15,2.55-10.54,4.4-15.59-.35-3.07,1.77-5.72,1.44-8.79,1.48-2.62,1.03-5.85,2.41-8.37.79-1.44-.15-2.96,1.05-4.32.78-.88.56-2.6.88-3.92.91-3.82,1.34-7.77,3.15-11.55Zm2.26,23.76c-1.7,3.77-2.25,6.89-2.56,10.33,1.89-.48,3.72.64,4.92-1.06-1.1-2.72-.77-5.77-2.36-9.27Z"/>
      <path d="m35.27,48.92c-2.78-2.04-6.14-1.35-8.55-3.62,0-4.24-.06-8.56.03-12.87.03-1.44-.22-2.78-.92-3.96-2.16-3.69-4.42-7.31-6.61-10.99-1.02-1.72-1.95-3.5-3.04-5.48,2.15-1.17,4.02-2.18,6.18-3.36,1.18,2.08,2.41,4.23,3.63,6.39,1,1.76,1.98,3.53,3.28,5.84.7-5.12,1.31-9.61,1.92-14.1,2.05-.54,4.08-1.08,6.47-1.7-.47,2.22.66,4.36-.81,6.3-.12.15,0,.47-.02.71-.24,4.71-.13,9.48-.8,14.13-1.06,7.34-.31,14.7-.76,22.72Z"/>
      <path d="m169.12,10.94c3.94,2.48,4.89,5.8,4.09,9.91h-7.69v-3.78c-.65-.53-1.38-1.12-2.23-1.81h-3.31c-.72.97-1.77,3.71-1.77,4.72,0,4.09.07,8.18-.04,12.27-.04,1.48.41,2.69,1.1,3.92h3.51c1.95-.97,1.92-3.02,2.92-4.85,1.89-1.48,4.38-.74,6.86-.94v6.14c-.74,1.98-3.25,1.98-4.75,3.38-1.68,1.57-4.15.91-6.09,1.81-2.13.99-3.98-1.19-5.96-.4-1.92-1.58-3.73-3.07-5.51-4.53,0-6.64.04-13.13-.02-19.62-.02-1.94.82-3.46,2.27-4.45,2.04-1.4,4.18-2.83,6.88-2.52.88.1,1.52-.52,2.24-.66,2.08-.4,4.1.15,6.02,1.04.5.23,1.09.29,1.47.38Z"/>
      <path d="m149.2,6.32c.69.4.34,1.65.28,2.81-.94.94-1.87,1.87-2.82,2.82v29.17c1.25.81,2.66,1.73,4.28,2.78,0,.17.03.63.08,1.41-.95.31-1.95.78-2.99.95-2.58.4-5.18.59-7.72,1.4-1.29.41-2.83.07-4.38.07v-1.93c.57-.57,1.25-1.25,1.99-1.99V10.2c-1.54-.79-3.13-1.61-5-2.57,0-.68.06-1.62-.02-2.55-.06-.7-.28-1.39-.4-1.98,5.34,1.03,10.68,2.06,16.7,3.22Z"/>
      <path d="m0,38.07v-21.17c4.51-1.73,9.04-3.56,14.3-1.45,1.36,1.44,3.17,2.87,3.91,5.27.5,1.61,1.2,3.22,1.23,4.87.04,2.67.08,5.31-.53,8.02-.72,3.18-2.46,5.41-4.69,7.43-.54.49-1.4.81-2.14.88-4.55.39-8.7-.58-12.07-3.86Zm10.6-2.75c.36-1.59.92-2.92.89-4.23-.05-3.01.34-6.01-.55-9.06-.51-1.74-.94-3.12-2.7-3.8-.77.47-1.63,1-2.48,1.53v3.67c0,3.47-.07,6.94.04,10.4.03,1.06.58,2.09.87,3.06h2.34c.62-.61,1.21-1.2,1.58-1.56Z"/>
    </g>
  </g>
</svg>