<?xml version="1.0" encoding="UTF-8"?>
<svg id="Capa_2" data-name="Capa 2" xmlns="http://www.w3.org/2000/svg" viewBox="0 0 160.2 61.03">
  <g id="Capa_1-2" data-name="Capa 1">
    <g>
      <path d="m32.63,55.11c-4.47-1.95-8.88-3.51-12.91-5.75-3.42-1.9-6.61-3.64-10.71-4.01-4.5-.4-7.72-3.18-8.79-7.88-.53-2.33-.12-4.6,1.2-6.47,1.61-2.28,3.6-4.3,5.45-6.41.34-.38.81-.65,1.28-1.02-2.57-3.49-1.85-6.99-.15-10.46,1.58-3.23,4-5.72,7.02-7.63C19.37,2.73,24.11.93,29.18.16c6.13-.93,12.51,2.05,14.68,11.33.77-.45,1.55-.72,2.06-1.25.76-.78,1.3-1.77,1.99-2.63,2.64-3.26,7.47-3.85,10.65-1.12.92.79,1.36,2.15,2.03,3.25-.12.11-.23.22-.35.33.61.04,1.21.06,1.82.11,1.23.11,2.21.57,2.68,1.82.1.27.36.58.62.68,2.51,1.03,5.13,1.03,7.76.68.35-.05.72-.39.98-.69,1-1.16,1.99-2.33,2.92-3.55.86-1.12,1.85-1.56,3.33-1.49,3.79.18,5.81,1.88,6.17,5.91,2.19-.19,4.4-.24,6.57-.61,2.1-.36,4.03-.16,6.05.53,1.52.52,3.23.74,4.82.66,1.82-.1,3.44.15,5.17.71,2.25.72,4.66.99,7.01,1.34.45.07.97-.35,1.45-.55,2.68-1.13,5.53-1.65,7.97.11,1.7,1.23,3.41,2.28,5.32,3.08.63.26,1.11.88,1.63,1.38,1.16,1.1,1.9,1.06,2.9-.18,3.95-4.93,8.44-9.3,13.68-12.85,4.3-2.91,10.21-.35,11,4.72.42,2.68-.61,4.96-2.54,6.72-2.23,2.02-4.64,3.85-6.98,5.75-.35.28-.72.54-.98.99.74-.15,1.5-.46,2.23-.4.84.06,2.02.2,2.38.75.46.7.63,2.06.24,2.75-.72,1.27-1.95,2.25-3.12,3.52,0,0,.15.34.33.66,1.88,3.28,1.86,6.62-.4,9.58-1.54,2.02-3.48,3.83-5.53,5.35-3.92,2.9-8.46,4.65-13.04,6.26-.45.16-.89.31-1.34.47.8,1.81.54,2.24-1.41,2.18-1.4-.05-2.8-.4-4.2-.39-1.01,0-2.02.37-3.03.6-19.77,4.45-39.75,5.27-59.88,3.58-7.98-.67-15.87-1.9-23.69-3.67-1.55-.35-3.24-.12-4.86-.08-1.18.03-1.88-.3-1.67-1.36Zm104.63-21.26c-.14-2.77,1.24-4.66,2.69-6.52.12-.16.41-.19.63-.28,1.53-.64,3.23-1.05,4.56-1.98,3.46-2.39,6.8-4.98,10.12-7.56.81-.63,1.5-1.5,2.03-2.39.92-1.54.84-3.06-.35-4.53-2.11-2.59-4.38-2.99-7.14-1-6.16,4.44-11.46,9.73-15.58,16.14-.28.44-.58.97-1.01,1.19-2.53,1.32-5.09,2.55-7.64,3.82-.11-.09-.23-.17-.34-.26.47-.84.81-1.79,1.43-2.49.85-.96,1.92-1.72,2.89-2.57.82-.72,1.88-1.37,1.61-2.67-.29-1.4-1.48-1.93-2.7-2.3-.45-.14-.96-.07-1.41-.19-.36-.1-.81-.25-.99-.53-1.42-2.25-3.45-3.34-5.96-2.28-2.87,1.21-5.84,2.66-8.09,4.74-2.54,2.35-4.93,4.79-8,6.45-.58.31-1.1.73-1.65,1.1-.1-.1-.2-.2-.3-.3.17-.41.26-.89.52-1.23,1.1-1.44,2.21-2.89,3.4-4.25,1.07-1.22,2.27-2.34,3.42-3.49.72-.72.67-1.37.02-2.13-1.5-1.76-3.83-2.42-5.97-1.35-1.39.69-2.69,1.66-3.86,2.7-2.04,1.81-3.94,3.79-5.91,5.67-.52.49-1.12.9-1.69,1.34-.06-.4.03-.63.17-.79,2.23-2.5,4.42-5.04,6.74-7.46.96-1,.73-1.58-.21-2.28-2.09-1.55-5.54-1.33-7.2.67-1.09,1.31-1.79,2.94-2.82,4.31-1.08,1.43-2.26,2.81-3.56,4.05-1.13,1.08-2.48,1.95-3.75,2.87-.49.35-1.05.6-1.58.89l-.32-.36c.22-.55.34-1.19.69-1.65,1.28-1.66,2.59-3.31,3.99-4.86,1.13-1.25,1.18-1.52-.18-2.57-.68-.53-1.42-.99-2.07-1.55-1.47-1.25-1.43-2.21.09-3.36.57-.43,1.22-.81,1.66-1.36.28-.34.44-1.02.3-1.41-.44-1.25-3.93-2.34-4.82-1.42-1.92,1.98-4.08,3.89-4.4,6.89-.19,1.81-.85,3.37-2.19,4.55-3.19,2.82-6.41,5.61-9.72,8.29-.71.58-1.84.71-2.8.87-.36.06-1.13-.35-1.15-.6-.13-1.21-.27-2.49.04-3.62.11-.42,1.44-.62,2.23-.73,1.98-.27,4.02-.25,5.95-.69,1.97-.45,3.18-1.88,3.45-3.97.29-2.18-.54-3.88-2.39-5-2.64-1.61-5.41-1.91-8.2-.41-3.07,1.66-5.13,4.25-6.54,7.4-.33.73-.64,1.54-1.18,2.1-1.61,1.64-3.29,3.21-5.03,4.71-.51.44-1.3.54-1.97.8-.06-.68-.12-1.35-.16-2.03,0-.09.05-.18.08-.27,1.45-4.54,3.88-8.55,6.87-12.2.54-.66,1.58-1.04,2.46-1.27,2.08-.54,4.21-.9,6.31-1.38.57-.13,1.09-.45,1.64-.68l-.07-.51h-6.65c.46-.86,1.01-1.31,1.5-1.82.98-1.02.88-1.79-.31-2.57-2.54-1.67-5.57-1.2-7.44,1.18-.59.75-1.18,1.52-1.69,2.32-.85,1.33-2.02,1.95-3.6,1.96-.71,0-1.44.12-2.11.34-1.21.4-1.34,1.37-.31,2.12.6.43,1.31.73,2.08,1.14-.39.66-.71,1.23-1.06,1.79-1.89,3.08-3.53,6.26-4.2,9.86-.67,3.63.8,6.03,4.33,7.15,2.35.75,4.13.16,5.47-1.92.72-1.13,1.26-2.37,1.99-3.49.46-.71,1.12-1.29,1.87-2.14.41,2.32,1.22,3.96,2.8,5.14,2.64,1.98,6.08,1.96,8.59-.31,3.62-3.28,7.09-6.73,10.65-10.07.73-.69,1.6-1.22,2.41-1.83.14.12.27.23.41.35-.51,1.15-1.07,2.29-1.53,3.47-.53,1.38-1.16,2.76-1.39,4.19-.28,1.8.94,3.24,2.99,4.07,2.35.95,2.67.88,4.29-1.01.72-.84,1.44-1.7,2.23-2.64,1.07,2.37,1.88,3.22,3.58,4.12.86.46,1.33.37,2-.45,1.88-2.29,3.88-4.48,5.93-6.62.73-.75,1.76-1.21,3-2.03-.35,1.56-.62,2.66-.83,3.77-.32,1.69.07,3.25,1.06,4.63,1.39,1.94,3.64,2.15,5.3.43.86-.89,1.49-1.99,2.3-2.94.62-.72,1.37-1.34,2.3-2.25,0,.87,0,1.24,0,1.62.04,2.14,1.83,4.26,4.17,4.95,1.97.58,2.83.12,4.47-2.1.91-1.23,2-2.34,3-3.5.11.06.22.12.33.18-.05.45-.1.91-.15,1.36-.2,1.87.82,3.8,2.43,4.71,1.14.64,2.17.64,3.14-.32,1.3-1.28,2.6-2.55,3.93-3.79.53-.49,1.13-.9,1.66-1.31.44,1.45.6,2.86,1.25,3.97,1.66,2.84,4.64,5.15,8.25,1.57,2.93-2.91,6.2-5.42,10.04-7.09.57-.25,1.03-.78,1.54-1.18-.09-.11-.17-.23-.26-.34-5.44.78-9.64,4.49-14.86,6.46ZM13.54,23.4c-.89.49-1.45.83-2.03,1.11-3.36,1.65-6.03,4.07-7.94,7.28-2.41,4.07-1.09,8.27,3.2,10.3,2.22,1.05,4.58,1.41,7,1.22,5.28-.4,10.1-2.29,14.51-5.08,2.44-1.55,4.69-3.48,6.79-5.49,2.1-2.02,2.1-5.26.34-7.32-.94-1.11-1.59-1.2-2.65-.2-4.56,4.31-10.02,7.19-15.62,9.83-2.39,1.13-4.53.86-5.51-.58-1.04-1.53-.59-3.35,1.34-5.37,2.71-2.85,6.07-4.64,9.75-5.88,1.72-.58,3.48-1.09,5.2-1.67,1.22-.41,1.95-1.2,1.65-2.61-.33-1.53-1.02-2.04-2.56-1.68-2.38.55-4.72,1.23-7.1,1.74-.47.1-1.04-.26-1.56-.41.22-.49.32-1.09.67-1.44,2.84-2.9,6.51-4.34,10.25-5.55,3.06-.99,6.13-.7,9.09.73.65.31,2.01.33,2.29-.06.47-.64.66-1.85.38-2.6-1.91-5.2-6.38-7.87-11.81-6.98-4.97.81-9.62,2.58-13.79,5.45-2.58,1.77-4.66,4.03-5.77,6.99-.48,1.27-.75,2.68-.78,4.04-.03,1.83,1.07,2.98,2.82,3.52.52.16,1.02.39,1.85.72Zm67.47,24.57c-.2-1.73-.29-3.46-.64-5.13-.37-1.76-1.41-2.58-2.8-2.57-1.37.01-2.25.72-2.7,2.5-.88,3.44-.81,6.91.05,10.35.33,1.32,1.04,2.38,2.64,2.38,1.38,0,2.34-.7,2.74-2.43.38-1.66.49-3.39.72-5.09Zm-8.37-.75c-.23-1.38-.43-3.28-.91-5.11-.3-1.17-1.24-1.89-2.59-1.85-1.29.04-2,.78-2.44,1.88-.18.44-.39.91-.41,1.37-.07,2.62-.18,5.24-.08,7.85.04,1.01.41,2.08.91,2.97.92,1.63,3.13,1.66,4.17.1.41-.62.71-1.38.83-2.11.24-1.5.32-3.03.53-5.09Zm25.7-6.91c.15.69.38,1.28.38,1.87.03,3.5.03,6.99,0,10.49,0,1.04-.13,2.14-1.55,2.11-1.32-.03-1.42-1.07-1.43-2.07-.01-3.16-.03-6.32,0-9.48.01-.96.2-1.91.3-2.87h-2.22c.12.79.3,1.47.31,2.16.03,3.5,0,6.99.02,10.49,0,1.75.82,2.46,2.76,2.49,2.03.03,2.9-.68,2.96-2.46.04-1.1.01-2.2.01-3.3,0-3.12,0-6.24,0-9.42h-1.55Zm12.74,15.11h2.42c-.17-.76-.41-1.46-.46-2.17-.08-1.14.01-2.3-.03-3.45-.04-1,.15-1.59,1.39-1.6,1.51-.01,2.56-.94,2.78-2.43.25-1.77.63-3.67-1.06-5.06-.24-.2-.61-.34-.92-.35-1.41-.04-2.83-.02-4.1-.02.11.75.3,1.44.31,2.12.03,3.49.04,6.99,0,10.49,0,.81-.21,1.63-.33,2.46Zm-63.83.01c-.25-.9-.53-1.71-.68-2.53-.7-3.81-1.34-7.63-2.05-11.43-.07-.4-.43-.75-.66-1.12-.24.35-.63.66-.71,1.04-.4,2.02-.71,4.05-1.07,6.07-.47,2.66-.95,5.31-1.43,7.98h1.13c.24-1.2.33-2.36.77-3.37.11-.26,1.79-.29,1.92-.02.48.98.62,2.14.92,3.38h1.84Zm58.36.02c-.19-.69-.47-1.34-.52-2-.08-1.29,0-2.58-.03-3.88-.02-.95.32-1.34,1.33-1.36,1.51-.04,2.51-.89,2.82-2.39.37-1.81.54-3.63-1-5.08-.17-.16-.41-.3-.63-.31-1.49-.09-2.99-.15-4.59-.23.77,2.08.68,13.65-.02,15.25h2.64ZM28.5,14.46c2.59.91,3.21,2.92,3.54,5.22,2.52-.69,4.97-1.37,7.56-2.08-.53-.98-.76-2.14-1.43-2.53-2.95-1.7-6.12-2-9.66-.62Zm26.7,30.17c.07-.01.15-.02.22-.04,0-1.05-.03-2.1,0-3.15.03-.76-.23-1.18-1.05-1.17-1.82.01-3.64-.04-5.45.04-.37.02-.99.5-1.02.81-.12,1.14-.05,2.31-.05,3.47.5-.84.7-1.74,1.1-2.54.23-.47.78-.78,1.19-1.17.21.46.59.92.59,1.39.05,3.78.04,7.56,0,11.34,0,.61-.24,1.23-.37,1.85h2.59c-.19-.54-.5-1.02-.51-1.5-.04-4.02-.05-8.03,0-12.05,0-.35.46-.69.7-1.03.35.27.85.46,1,.81.42.95.7,1.97,1.03,2.96Zm36.12-.29v-3.59c-.81-.14-1.49-.21-2.15-.37-1.79-.42-2.84.32-2.84,2.14,0,.8.06,1.66.36,2.38.62,1.49,1.46,2.9,2.14,4.37.56,1.21,1.15,2.42,1.51,3.69.14.5-.34,1.17-.54,1.76-.61-.27-1.39-.39-1.79-.84-.57-.65-.86-1.54-1.29-2.37v3.65c.55,0,1.04-.1,1.47.02,2.78.72,4.27-.53,3.53-3.35-.5-1.9-1.64-3.62-2.47-5.43-.54-1.17-1.15-2.32-1.52-3.54-.16-.52.23-1.21.37-1.82.6.28,1.36.41,1.76.86.61.69.98,1.6,1.46,2.44Zm-29.4,11.11c-.15-.63-.41-1.21-.42-1.79-.04-3.83-.04-7.66.01-11.5,0-.44.46-.87.71-1.31.38.36.88.66,1.1,1.1.38.76.58,1.62.85,2.43.22-.21.24-.35.24-.5-.09-4.23.66-3.64-3.64-3.62-4.42.02-3.75-.79-3.79,3.89,0,.06.08.12.19.27.29-.86.47-1.66.84-2.37.25-.48.76-.81,1.15-1.21.24.49.68.98.69,1.48.06,3.59.05,7.18.02,10.78,0,.77-.23,1.54-.35,2.34h2.4Zm-24.63,0c-.19-.63-.47-1.12-.47-1.61-.04-3.98-.04-7.96.01-11.93,0-.35.45-.7.69-1.05.36.25.87.43,1.04.78.39.79.61,1.66.89,2.5.27-1.02.36-2.01.22-2.97-.05-.34-.65-.84-1.02-.86-1.77-.09-3.55-.09-5.32,0-.36.02-.95.52-.99.85-.12,1.12-.05,2.26-.05,3.39.46-.77.71-1.54.97-2.31.23-.66.34-1.6,1.31-1.29.33.1.58.98.59,1.5.05,3.64.04,7.28.01,10.93,0,.68-.22,1.35-.35,2.08h2.46Zm92.39-15.09c.54,2.07-.61,3.67-1.11,5.46-.58-1.83-1.59-3.51-1.19-5.45h-2.16c1.47,4.99,3.22,9.83,1.95,15.07h2.47c-1.39-5.31.32-10.14,1.94-15.09h-1.9Zm-10.37,15.14c1.2,0,2.73.06,4.25-.04.35-.02.92-.54.96-.88.13-1.02.05-2.06.05-3.09-.6.76-.81,1.67-1.31,2.38-.34.47-1.08.65-1.65.96-.2-.47-.57-.93-.58-1.4-.05-3.59-.05-7.18-.01-10.77,0-.77.2-1.53.31-2.3h-2.02c.16,5.06.16,10,0,15.13Z"/>
      <path d="m113.96,30.17c.12-.34.18-.74.39-1.03,1.53-2.18,3.04-4.38,4.66-6.5.44-.57,1.2-.94,1.88-1.28.81-.4,1.82-1.2,2.54-.16.65.94.11,2.03-.71,2.67-2.8,2.21-5.67,4.33-8.51,6.48-.08-.06-.17-.13-.25-.19Z"/>
      <path d="m143.38,23.68c3.39-3.81,6.95-7.46,11.48-10.58-.25,2.43-7.86,9.31-11.48,10.58Z"/>
      <path d="m60.36,23.69c1.08-2.01,2.44-3.51,4.32-4.48.33-.17.8-.09,1.2-.13-.02.44.1.94-.08,1.3-1.23,2.52-2.93,3.56-5.44,3.3Z"/>
      <path d="m75.97,47.86c.18-1.86.28-3.68.56-5.46.08-.51.67-.95,1.02-1.41.37.44.97.83,1.08,1.33.82,3.74.73,7.5-.04,11.24-.09.46-.67.81-1.02,1.22-.34-.41-.92-.79-.99-1.25-.29-1.88-.43-3.79-.62-5.66Z"/>
      <path d="m67.56,47.76c.19-1.78.31-3.59.61-5.38.08-.51.66-.95,1.01-1.42.37.44.98.84,1.08,1.34.81,3.74.73,7.51-.04,11.25-.09.46-.67.81-1.03,1.21-.34-.42-.92-.8-.99-1.26-.3-1.89-.44-3.8-.65-5.75Z"/>
      <path d="m115.75,44.22c-.14.77-.13,1.64-.49,2.32-.25.47-.99.69-1.51,1.02-.24-.44-.67-.86-.7-1.32-.1-1.32-.09-2.66,0-3.99.03-.47.43-.91.66-1.36.56.34,1.34.57,1.62,1.07.35.61.29,1.46.42,2.26Z"/>
      <path d="m43.74,45.96c.29,1.55.58,3.1.94,4.99-.72,0-1.35.1-1.89-.06-.17-.05-.2-.85-.14-1.28.18-1.23.43-2.44.66-3.66.15,0,.29,0,.44.01Z"/>
      <path d="m107.79,44.11c-.15.84-.13,1.72-.47,2.41-.24.48-.99.7-1.51,1.03-.24-.44-.66-.88-.7-1.34-.1-1.33-.1-2.68,0-4.02.03-.45.53-1.27.72-1.24.54.08,1.26.38,1.48.82.35.69.35,1.56.49,2.34Z"/>
    </g>
  </g>
</svg>