<?xml version="1.0" encoding="UTF-8"?>
<svg id="Capa_2" data-name="Capa 2" xmlns="http://www.w3.org/2000/svg" viewBox="0 0 191.77 101.63">
  <g id="Capa_1-2" data-name="Capa 1">
    <g>
      <path d="m61.08,15.27c-1.24-1.26-2.67-1.89-3.65-3.35-.86-.87-1.26-3.04.55-2.78.8.04,7.06,2.83,6.32.82-.65-2.77,2.17-1.21,3.54-1.42,5.65-.53,11.97-4.63,17.47-2.39,5.33,3.2-.76,7.86,1.87,9.83,4.46,3.13,1.46.61,3.97-.85,1.16-.62.29-5.09.54-6.52-.47-1.79-2.85-2.15-2.51-4.86.01-3.69,5.11-5.32,6.99-1.77,1.88,3.52-1.65,4.95-1.3,8.18.32,1.38-.66,4.29.61,5.04,2.35,1.43-.62,3.9,3.76.83,2.68-1.75-3.56-7.52,2.46-10.13,5.73-1.64,11.32,2.19,17.02,2.66,1.41.14,4.22-1.35,3.42,1.44-.72,1.96,5.62-.86,6.44-.91,2.7.26.3,3.48-.88,4.3-.9.73-1.56.95-2.35,1.96,2.17.19,5.29-1.26,7.13-2.44.47-.35.92-.41,1.38,0,1.49,1.56-1.16,3.93-2.24,5.07-3.27,3.02-7.57,3.42-11.8,4.14,1.33,1.15,3.35-.61,4.35.88.63,1.27-1.06,2.11-1.89,2.74-2.39,1.45-4.99,1.5-7.72,1.5.6.86.67,1.98,1.75,2.06,4.1.44,8.23.58,12.33.94,7.96.81,15.91,1.69,23.82,2.94,10.61,1.54,21.11,3.71,31.56,6.06,1.73.04,1.94-3.58,5.94-1.78,2.63,1.36,2.29,5.59-.59,6.41-.67.14-1.41.4-1.34,1.24,0,11.76,0,23.53,0,35.3.36,3.12-2.55.93-4.24.85-7.59-1.76-15.24-3.22-22.91-4.58-2.01-.62-1.22,1.85-1.35,3.05.04.75.18.89.9.98,6.23.89,12.52,1.6,18.64,2.99-2.63,2.2-5.08,4.38-7.68,6.59-.68.59-.75.82-.19,1.52,2.55,3.33,5.45,6.36,7.82,9.81-12.57-1.83-25.13-4.05-37.83-4.94-12.2-1.44-8.44,1.56-9.03-10.54,0-1.34-.21-1.51-1.51-1.61-4.11-.29-8.21-.76-12.33-.97-7.49-.35-14.98-.67-22.49-.69-.65-.01-1.16.11-1.56.74-.44.69-1.65.68-2.1-.03-.41-.63-.92-.73-1.56-.71-8.45.1-16.9.29-25.33,1.04-2.99.2-5.98.43-8.97.62-1.98.13-2.03.16-2.03,2.14-.55,11.22,2.7,8.7-6.97,9.74-13.35,1.24-26.7,3.03-39.88,5.17,3.61-3.11,7.08-6.01,10.68-9.07.64-.55.65-.82-.07-1.34-3.6-2.58-6.95-4.9-10.65-7.5,6.5-1.44,13.2-2.08,19.81-3.05,1.52-.2.77-2.22.94-3.28,0-.53-.29-.73-.77-.72-9.15,1.52-18.17,3.62-27.24,5.51-.38-13.57-.02-27.16-.14-40.74,0-1.11.06-1.15,1.16-1.41,2.25-.52,4.49-1.1,6.75-1.61,15.49-3.5,31.2-6.07,47-7.66,4.85-.5,9.7-.93,14.56-1.23,1.75.07,1.44-1.1,2.54-2.21-2.5-.07-4.83.04-7.08-1.14-1.02-.71-3.29-1.49-2.68-3.08.94-1.64,2.93.31,4.09-.95-5.23-.77-10.81-1.8-13.73-6.79-.99-1.05-.3-3.38,1.3-2.42,1.26.84,5.85,3.04,7.14,2.38Zm38.85,52.52c-.33,3.82-.04,7.73-.13,11.58,0,.63.07,1.24.86,1.17,18.24.2,36.4,2.08,54.41,4.91,1.18.18,1.31.1,1.31-1.1,0-3.51,0-7.02.01-10.54,0-.86-.09-.99-.95-1.14-18.37-2.93-36.89-4.84-55.51-4.88Zm-59.79-16.32c-.07.02-.15.04-.22.06-2.67-4.16-5.25-8.39-7.88-12.58-1.19-1.56,1.25-1.15,1.64-2.4-3.41,1.47-9.65.34-11.7,2.86.81.57,1.93-1.29,1.97.42-.37,3.71.88,10.1-.74,13.13-.28.36-.33.68-.02,1,1.65,2.28.38,9,.79,12.17.25,2.06-1.67,1.43-1.6,2.72,3.17-2.01,8.86-.1,10.83-3.03-.94.09-2.09,1.19-2.09-.28.16-4.79-.36-9.61.22-14.36,3.23,4.67,5.72,9.08,8.79,13.86h-2.25l-.07.26c3.65,1.9,7.7-1.74,11.55-.54.04.01.11-.07.18-.12.08-.63-.41-.57-.79-.64-1.11-.19-1.18-.26-1.18-1.37,0-3.2,0-6.41,0-9.61-.34-1.81,1.52-3.21.77-3.89-1.67-2.41-.34-8.54-.8-11.77-.26-2.72,2.11-1.67,2.04-3.11-1.41.4-2.72.99-4.26.86-1.35.06-7.03-.13-6.64,1.87.82-.42,1.72-.85,1.62.46-.1,4.67.18,9.39-.15,14.03Zm-8.65,27.69c0,1.77,0,3.55,0,5.32,0,1.07.14,1.18,1.19,1.01,9.92-1.62,19.9-2.88,29.91-3.75,7.64-.64,15.3-.98,22.97-1.14,1.05-.03,1.17-.1,1.17-1.07.01-3.61.01-7.23,0-10.84,0-.82-.14-.96-.96-.94-9,.04-17.97.8-26.93,1.55-8.83.73-17.6,1.98-26.34,3.39-.98.16-1.01.2-1.01,1.16,0,1.77,0,3.55,0,5.32Zm53.25-18.82c-.05-.07-.11-.15-.16-.22-.87.3-1.88,1.56-2.37.17-2.81-5.25-5.59-10.52-8.42-15.76-1.32-1.19,6.7-9.29,7.75-11.28,1.15-1.8,1.86-.04,3.23-.25-3.81-4.3-9.63,2.43-14.06-.32-.11-.07-.33.03-.57.05.77,1.09,1.49,1.09.47,2.3-1.82,2.63-3.64,5.27-5.45,7.9-.22.32-.39.7-.86.72-.26-2.99,0-6.1-.1-9.13,0-1.2,1.43-.79,1.88-1.9-1.55.26-2.8.91-4.4.66-1.86,0-5.97-.44-6.82,1.5.59-.08,1.04-.13,1.57-.2.19,3.61.04,7.14.08,10.75,0,1.1-.06,2.18-.91,3.04-.32.32-.22.69.1.98,1.66,2.05.41,9.58.81,12.68.07,1-1.06,1.19-1.67,1.75.23.21.42.29.53.23,1.42-.75,2.96-.68,4.49-.71,2.1-.3,5.76.56,6.86-1.67-1.05.23-2.66,1.42-2.53-.3-.02-1.7-.03-3.41.02-5.11.11-1.35,2.83-4.82,3.92-5.67,1.68,2.86,2.74,6.1,4.21,9.09.59,1.44-1.97,1.38-2.14,2.65,1.47-.42,2.55-1.55,4.21-1.16,3.29.17,7.96,2.39,10.35-.79Zm98.67-9.94c-.02-2.53.78-5.16.33-7.67-6.37-.65-12.55-3-18.94-3.65,1.87,4.43.56,9.28.92,13.94.29,1.76-1.41,2.75-.79,3.62,1.7,4.12.45,8.9.81,13.26.13,1.31-.49,2.25-.82,3.47,6.28,1.29,12.54,2.47,18.72,4.09.35-2.59.71-5.47.48-8.09-3.68-.21-7.11-1.42-10.71-2.08-.7-.15-.94-.4-.95-1.11-.11-8.31-.89-5.48,8.52-3.91.42-2.12.53-4.36.53-6.53-.08-1.22-2.03-.69-2.88-1.09-1.32-.57-6.48-.62-6.18-2.35.23-1.02-.75-4.97,1.06-4.21,3.39.69,6.44,1.45,9.91,2.29Zm-64.01-11.27c.03-2.13.43-4.29.38-6.61-5.46.25-10.77-.62-16.16-.42.84,3.78.4,7.46.5,11.27.32,1.53-1.19,2.83-.68,3.67,1.42,2.94.36,6.51.69,9.68.16,1.52-.24,2.94-.58,4.35,5.06.57,10.22.58,15.32.96.71.04.8.01.85-.66.06-2.06.53-4.13.2-6.18-3.04.24-6.04-.28-9.08-.37-.73-.05-.91-.24-.92-.95-.15-6.77-.62-4.3,7.32-4.34.85-8.49,1.17-5.55-6.39-6.47-1.64.1-.76-2.4-.97-3.45.02-.99.14-1.12,1.15-1.07,2.85.16,5.49.29,8.37.57Zm20.64-4.39c-5.22-.63-10.19-1.08-15.38-1.6-.71-.07-.8.09-.6.81.8,3.34.3,6.86.43,10.27-.01,1.08.02,2.18-.63,3.16-.13.2-.11.64.02.86.63,1.02.61,2.15.62,3.27-.14,3.63.5,7.38-.61,10.86,5.35.56,10.65,1.11,15.95,1.66.38-1.04.66-5.82.4-6.72-2.95-.21-5.89-.55-8.82-.88-1.01-.12-1.1-.23-1.11-1.21-.01-1.12-.01-2.25,0-3.37,0-1.04.09-1.15,1.11-1.06,1.76.16,3.52.37,5.28.56.91.1.98.09,1.06-.75.07-1.73.47-3.51.15-5.23-2.37-.24-4.57-.41-6.82-.68-1.39-.32-.58-2.32-.79-3.36.01-1.18.14-1.33,1.31-1.19,2.71.25,5.35.81,8.07.94.13-2.19.57-4.28.35-6.33ZM18.99,73.77l-.13-.21c-1.2.1-3.29,2.14-2.98-.36.46-4.26-1.27-12.87,1.46-15.84-2.76-1.96-.98-11.69-1.48-15.39-.07-1.97,3-1.16,3.07-3.02-4.52,2.53-10.14.96-14.51,3.89-.26.18-.54.31-.27.82.83-.38,1.66-.76,2.66-1.21.23,4.57.01,9.01.09,13.57,0,1.16-.18,2.24-.93,3.16-.35.43-.32.77.08,1.15,1.81,2.34.4,11.44.85,15.02,0,1.25-1.66,1.3-2.44,2-.64.24-.44,1.11.25.61,4.31-2.7,10.4-.62,14.27-4.16Zm142.37-12.86c-2.72-.45-5.31-.88-7.89-1.31-.66-.11-.77-.36-.52-1.01,2.5-6.54,5-13.09,7.49-19.64.79-1.75-2.06-1.27-3.05-1.63-4.13-.66-8.27-1.32-12.51-1.99-.13,2.19-.76,4.29-.36,6.5,2.12-.05,4.09.47,6.17.72,1,.15,1.08.34.73,1.27-2.51,6.58-4.97,13.17-7.47,19.75-.4.86.14,1.03.89,1.1,2.19.32,4.38.62,6.57.97,3.18.51,6.35,1.05,9.62,1.6.02-2.13.52-4.23.34-6.32Zm-72.51-27.02c-.24,3.68,0,7.42-.1,11.12-.04,2.19,2.75,2.15,4.34,2.3,2.09.06,2.68-.56,2.69-2.65-.07-3.27.17-6.63-.12-9.87-2.48.19-4.5-.09-6.81-.89Zm39.55-23.07c-.04-.1-.08-.2-.12-.3-10.95,4.68-23.85-3.02-24.01,1,.59.71,1.94.67,2.8.93,3.61.75,7.25,1.03,10.92,1.3-4.49,1.18-9.28-.33-13.84-.73.14.82-.24,1.86.78,1.96,1.15.12,2.29.32,3.45.4,6.7.36,15.49,1.53,20.03-4.57Zm-59.82,3.16c0-.08,0-.17,0-.25,4.36-.41,8.75-.61,13-1.78.25-.06.64-.32.64-.49-.42-3.81-12.53,3.65-24.21-.92,2.91,4.87,9.39,5.27,14.5,5.16,2.89-.15,5.76-.47,8.65-.71,1.42.04,1.25-.88,1.09-2.05-4.56.87-9.08,1.49-13.67,1.04Zm22.63,10.1h0c.39,2.07-1.19,8.83,1.62,8.94.5.01,1.01-.49,1.15-1.13.38-4.87.12-9.81.24-14.7-.78-2.41-.5-4.93-.59-7.44-.06-1.22.18-2.26.99-3.2,1.49-1.51,1.12-4.78-1.08-5.31-3.13-.74-4.2,3.85-1.81,5.33.14.13.41.11.54,0,.29-.39-.26-.69-.45-.98-2.23-1.99,1.25-5.56,2.66-2.55.41,1.21.22,2.31-.61,3.25-1.84,2.44-.59,5.87-.93,8.73,0,.58-.16.93-.78,1.11-.89.25-.95.4-.95,1.31,0,2.21,0,4.43,0,6.64Zm16.5-4.82c0,.08,0,.16,0,.25,7.94,1.69,20.2,3.18,25.06-4.96-.34-.2-.48-.06-.77.06-4.4,2.46-9.5,2.49-14.4,2.6-2.14.27-4.91-1.14-6.39.99,4.39.93,8.74.45,13.14.45-4.2,1.42-8.87.8-13.21.33-1.11-.06-2.4-.25-3.42.29Zm-32.21-.96c-.86-.91-1.6-1.42-2.7-1.3-3.16.34-6.32.35-9.48.02-3.43-.19-6.45-1.38-9.6-2.62,4.29,8.23,17.44,6.86,25.09,5.1v-.24c-.99-.53-2.22-.42-3.3-.32-4.54.51-9.08,1.19-13.53-.37,4.75.22,8.78.39,13.51-.28Zm44.94-8.57c-5.9.72-24.19-9.56-19.32,3.89.73,1.99-.65,3.22-2.29,4.08-1.67.95-2.65,3.19-1.53,4.88.08-.02.15-.04.23-.05-.79-4.9,5.47-3.54,5.34-7.95-.63-4.85-.67-6.69,4.96-5.66,2.86.34,10.61,3.09,12.61.81Zm-54.19,0c1.82,2.08,7.85.06,10.33-.36,2.51-.67,8.08-2.03,7.34,2.34-.18.97-.25,1.96-.29,2.94.2,4.69,5.57,2.41,5.51,7.97,2.7-5.31-5.53-4.65-3.69-9.23,4.81-13.03-13.52-2.9-19.2-3.65Zm56.48,14.22c-.05-.09-.11-.18-.16-.28-4.56.14-9.1-.72-13.26-2.62-.6-.28-.73-.2-1.2.54,2.32,1.4,4.97,1.95,7.46,2.95-2.58.35-5.25-.94-7.52-2.08-1.04-.63-1.98-.28-3.02-.11,4.97,3.13,12.54,5.55,17.69,1.61Zm-58.83-.32c-.05.11-.09.23-.14.34,5.4,4.08,12.43,1.2,17.82-1.4-.6-.67-1.96-.66-2.84-.24-2.44,1.29-5.18,2.41-7.96,2.34,2.52-1.1,5.23-1.62,7.58-3.07-.41-.78-.46-.81-1.16-.51-4.19,1.81-8.71,2.81-13.28,2.54Zm29.47,50.75c-2.86-1.32-1.34-6.97-1.68-9.65.14-1.08.04-3.23,1.49-3.26.71-.03,1.17.24,1.36.97.42,2.64,1.02,9.66-.72,11.62,2.21,1.24,1.42-5.89,1.57-7.08-.15-1.61.39-3.78-.3-5.2-2.14-1.01.31-3.75-2.75-4.04-.93-.23-1.1-.12-1.11.83.03,4.66-.25,9.35-.03,13.99.9,3.21,2.03,6.36,2.03,9.73.07-1.5.49-3.04.35-4.47-.48-1.12-.38-2.25-.2-3.44Zm20.46-45.32c.02-.08.04-.17.06-.25-2.51-1.32-5.13-2.41-7.33-4.28-.2-.16-.48-.3-.73-.31-2.46.42,2.72,3.08,3.37,3.7-2.63.4-4.33-3.76-6.88-3.09,2.89,2.82,7.34,5.9,11.52,4.23Zm-41.41-.14c4.3,1.92,8.91-1.14,11.72-4.12-2.69-.36-3.96,3.05-6.63,3.22,1.09-1.47,3.03-1.9,4.03-3.42-.55-.63-1.22-.41-1.75.07-2.26,1.88-4.78,2.88-7.37,4.27Zm16.75,23.74c-2.26,3.41,5.72,4.67,6.5,1.7.22-.51.02-.79-.52-.82-2.03.08-4.18.39-5.98-.88Zm81.29,32.26c-.09-.09-.19-.19-.28-.28-3.77,3.27-7.1,7.07-10.71,10.53-.24.24-.48.48-.27,1.01,3.94-3.5,7.74-7.33,11.27-11.25Zm-2.64-.52c-.1-.08-.2-.16-.3-.23-3.75,3.43-7.21,7.19-10.85,10.74-.2.2-.53.39-.13.86,3.89-3.59,7.88-7.33,11.29-11.36ZM75.74,16.74c1.85,2.1,5.18,2.04,7.57.93-.3-1.07-2.24.17-3.52-.42.95-.45,2.13.1,2.61-1.09-2.07-.41-4.39.49-6.66.58Zm28.28-.68c.62,1.2,1.54.87,2.55,1.07-1.16.77-3.05-.52-3.37.46,2.07,1.37,5.96,1.02,7.62-.86-1.84-.39-3.74-.15-5.59-.73-.32-.08-.68.03-1.21.06ZM29.27,84.87c-4.22,4.14-8.82,8.23-12.58,12.74.07.06.13.12.2.17,4.26-3.61,7.97-7.92,12.01-11.8.26-.27.67-.51.37-1.11ZM99.21,25.16c.88,2.76,3.96,5.48,7.04,4.8-1.67-1.31-3.17-2.34-4.41-4.07-.23-.26-.38-.66-.92-.48.06.98.99,1.48,1.3,2.45-1.42-.48-1.49-2.22-3.01-2.69Zm-14.92,2.74c.32-1.03,1.28-1.53,1.17-2.57-1.68,1.52-3.04,3.27-4.99,4.52,1.97,1.28,6.44-2.34,6.7-4.6-1.54.38-1.33,2.06-2.89,2.65Zm80.86,56.32c-.06-.08-.12-.17-.18-.25-3.95,3.25-7.98,7.33-11.39,11.28,4.26-2.71,7.66-7.54,11.57-11.03ZM87.38,20.14c-.65.57-.9,1.33-1.75,1.51.12-.89,1.3-1.11,1.14-2.18-.89.03-1.09.84-1.58,1.27-.53.47-1.06.96-1.52,1.51-.43.52-1.32.58-1.47,1.41,1.41.36,3.47-.49,4.67-1.97.3-.37.96-.7.5-1.55Zm19.84.58c-1.45-.95-3.18-1.25-4.51-2.45-.17-.13-.45-.11-.72-.17-.05.98.98.98,1.17,1.68-.87.12-1.29-1.18-2.25-.71,1,1.77,4.04,2.59,6.32,1.64Zm-8.08-.41c-.08.06-.16.11-.23.17.79,2.06,3.23,3.66,5.51,3.19-1.55-1.49-2.99-2.87-4.45-4.27-.86.73.74,1.58,1.06,2.25-.07.06-.13.12-.2.17-.56-.5-1.13-1.01-1.69-1.51Zm-14.8-2.27c-1.78,1.08-3.15,1.79-5.14,2.67,2.4.86,5.07.46,6.43-1.65-1-.45-1.38.92-2.31.66q1.11-1.06,1.03-1.68Zm103.79,24.91c3.19.07,3.23-4.77.07-4.81-3.1-.03-3.14,4.82-.07,4.81Zm-92.65,5.59c-2.01-.13-4.17.49-6.1-.78-1.21.03-.07,1.36.48,1.54,1.53.48,5.2,1.48,5.62-.76Zm-.03,2.56c-2.05-.09-4.1.44-6-.77-1.24-.22-.28,1.24.31,1.43,1.37.6,5.48,1.52,5.7-.66ZM29.27,88.03c-3.13,2.75-6.32,5.89-9.01,9.08.84.55,5.11-4.76,6.21-5.56.5-.77,3.41-2.76,2.8-3.52Zm68.39-54.06c-.08-.02-.17-.04-.25-.06-.42,2.68-.09,5.45-.19,8.16.09,1.36-.23,2.57.28,3.9.35-.96.42-10.84.16-12ZM28.27,83.28c-.42-.3-.68,0-.94.25-2.12,2.29-4.64,4.27-6.5,6.77.05.06.11.11.16.17,1.42-.4,6.76-6.55,7.28-7.19Zm2.41,7.05c-.08-.11-.17-.22-.25-.33-2.37,1.62-4.16,4-6.27,5.94-.19.19-.28.46-.51.85.39-.03.61.02.7-.06,2.14-2.11,4.32-4.18,6.34-6.4Zm-11.62-1.3c.08.04.15.09.23.13.87-.41,5.06-4.62,5.35-5.4-.32-.29-.55-.08-.78.15-1.55,1.74-3.56,3.15-4.8,5.11Zm142.74,7.1c.06.09.12.18.17.27,1.99-1.22,3.39-3.29,5.13-4.86.11-.12.15-.31.26-.56-.24,0-.42-.05-.49,0-1.67,1.72-3.69,3.18-5.07,5.15Zm-134.47.23c2.24-1.19,3.61-3.42,5.52-5.06.24-.24.62-.47.16-1.03-1.86,1.84-3.69,3.65-5.52,5.46-.08.08-.07.24-.16.63Zm128.34-5.76c-.07-.1-.15-.19-.22-.29-1.84,1.09-3.18,2.91-4.77,4.58.71.55,4.33-3.54,4.99-4.29Zm13.08,2.05c-.08-.06-.16-.13-.24-.19-1.42,1.35-3.12,2.58-4.06,4.29.25,0,.43.05.5,0,1.19-1.39,3.02-2.46,3.8-4.09Zm-132.81-1.8c-1.58.58-2.36,2.04-3.54,3.11-.48.55-1.27.87-1.35,1.78,1.9-.75,4.57-4.24,4.89-4.9Zm-1.56,4.21c.06.09.12.18.17.28,1.61-.58,2.59-2.38,3.92-3.46.22-.22.23-.46-.15-.74-1.38,1.24-2.71,2.54-3.94,3.93Zm128.02-11.4c-1.26.21-1.86,1.29-2.67,2.07-.44.41-1.16.73-1.03,1.79,1.49-1.18,2.63-2.47,3.7-3.85Zm10.83,1.73c-.06-.09-.12-.18-.17-.28-1.42.46-2.95,2.6-3.96,3.79,1.71-.81,2.9-2.18,4.14-3.51Zm-25.16,9.09c.11.1.21.2.32.3,1.34-1.1,2.55-2.32,3.78-3.77-.68-.54-3.56,2.79-4.1,3.47Zm-126.92-10.26c-1.05-.05-2.03,1.52-2.76,2.18-.34.44-1.05.64-.99,1.4.75-.17,3.28-2.58,3.75-3.58ZM87.96,21.69c-.32.68-2.56,2.31-1.89,2.95,1.68-.45,2.29-1.21,1.89-2.95Zm82.16,72.19c-1.04,1.12-2.8,1.99-2.82,3.42.97-.79,3.19-2.24,2.82-3.42ZM98.57,21.72c-.24,1.94.35,2.78,2,2.82-.23-1.15-1.33-1.85-2-2.82Zm-57.21,70.34c-.05-.11-.1-.23-.15-.34-1.17.13-2.88,2.45-3.06,3.13,1.29-.68,2.11-1.89,3.21-2.79Zm103.88,1.96c.66,1.05,2.5-1.85,3.19-2.27-.99-.63-2.32,1.74-3.19,2.27Zm-101.17-2.12c-1.05.49-2.21,1.65-2.53,2.5,1.11-.27,2.19-1.5,2.53-2.5Zm52.02-36.46c1.32-.01,2.23-1.25,1.34-2.6-.15,1.15-.55,1.76-1.34,2.6Zm75.74,40.18c-.99.23-1.41.85-1.81,1.42-.04,1.22,1.76-.65,1.81-1.42Zm-27.16-3.54c-.74,0-1.79.95-1.97,1.79.8-.1,1.65-.87,1.97-1.79Zm-129.08-5.6c1.06-.34,1.69-1.04,1.71-1.8-.76.38-1.4.78-1.71,1.8Zm30.88,5.96c-.75.25-1.14.79-1.55,1.46.97,0,1.58-.6,1.55-1.46Zm93.38,1.3c1.04-.32,1.13-.44,1.03-1.24-.53.23-1.05.41-1.03,1.24Z"/>
      <path d="m114.4,74.49c1.2-8.19,10.68-1.7,5.99,3.5-2.49,2.18-6.06-.32-5.99-3.5Zm6.21.6c-.26-4.7-5.45-4.83-4.92-.02.52,3.55,4.4,3.78,4.92.02Z"/>
      <path d="m123.12,71.21c7.65-1.24,7.27,10.32,0,7.42v-7.42Zm4.52,4.23c.41-2.58-3.42-4.34-3.48-2.37.23,1.13-.76,5.5.98,5.14,1.44,0,2.44-1.1,2.5-2.77Z"/>
      <path d="m134.37,72.16c1.04-.04,1.11.02,1.1.86,0,2.08-.01,4.15-.01,6.23,0,.73-.17.84-.82.62-2.19-.22-4.01.52-4.41-2.5.03-1.79-.3-3.91.11-5.6.24-.11.6.04.87.07.35,2.17-1.02,6.1,1.28,7.12,3.41.56,1.25-4.93,1.88-6.79Z"/>
      <path d="m114.21,78.09c-2.28.53-2.16-2.61-3.71-3.52-.64.88.54,3.65-.67,3.53-.39-.1-.71-.48-.58-.93,0-2.04,0-4.09-.01-6.13,0-.74.06-.8.82-.78.48.01.96.03,1.42.11,1.66.3,2.28,2.03,1.22,3.35-1.59,1.38.77,2.9,1.51,4.37Zm-3.57-3.93c3.16-1.31.54-4.2-.26-2.5-.08.79-.27,1.6.26,2.5Z"/>
      <path d="m151.91,75.64c-.4-.06-.68-.25-1.02-.42-1.38-.56-2.14.8-1.17,1.67.87.78,1.87,1.49,2.58,2.42,1.15,1.55-.51,3.43-2.23,3.03-.98-.3-1.86-.19-1.87-1.64.71.23,1.33.64,2.05.73.82.04,1.72-.95.99-1.68-.93-.98-2.18-1.78-2.88-2.96-1.56-3.3,4.4-3.24,3.55-1.16Z"/>
      <path d="m141.73,74.27c-5.3-3.04-4.88,6.75-.06,5.42,1.2.2-.07,1.22-.69,1.11-3.61.03-5.25-4-3.47-7.02.6-1.49,2.46-1.14,3.73-.87.62.15.71.46.49,1.35Z"/>
      <path d="m105.66,74.47c2.89-2.1-.59-4.89-.86-2.47,0,1.73.05,3.47.05,5.2.13.9-1.06,1.13-1.09.13,0-2.14.01-4.28.01-6.42,0-1.35,2.02-.5,2.84-.46,2.16.64,1.53,4.32-.95,4.02Z"/>
      <path d="m145.48,81.12c-.87.24-1.02.14-1.01-.7,0-1.67.02-3.34.03-5.01.19-1.5-.68-1.1-1.8-1.3-.07-.53.08-.91.62-.85,1.2.33,3.41,0,4.13,1.04-.32.23-.55.57-.97.32-.78-.17-.98-.04-.99.8-.02,1.9,0,3.8,0,5.71Z"/>
      <path d="m40.91,59.47c-1.48-.78-10.01-14.17-10.89-17.11,1.5.84,10.26,14.61,10.89,17.11Z"/>
      <path d="m44.15,40.29c.68,6.22.49,12.63-.11,18.86-.09,0-.17,0-.26,0-.32-6.25-.16-12.59.04-18.85.11,0,.22-.01.33-.02Z"/>
      <path d="m27.25,43.67c.79,1.69.73,16.11-.02,18.68-.34-.36-.25-.78-.25-1.14.11-5.86-.49-11.72.27-17.54Z"/>
      <path d="m59.73,79.17h-1.3c-.35-8.42,1.63-6.53-4.3-6.34-.76-.05-.94.17-.93,1,0,1.8.04,3.6.11,5.4.1.9-.83.7-1.42.71,0-2.05.02-3.94,0-5.97.1-1.39-1.57-.54-2.35-.51-.58-1.7,3.12-1.21,4.17-1.54,1.52.07,8.09-1.22,8.62-.3.08.95-1.22.61-1.83.65-1.48-.4-.49,5.6-.76,6.91Z"/>
      <path d="m68.18,70.7c8.09,1.04,3.67,10.31-2.68,7.91-4.7-2.17-1.91-7.86,2.68-7.91Zm-3.53,4.12c-.09,4.27,6.48,4.14,6.41-.05-.02-4.18-6.44-3.93-6.41.05Z"/>
      <path d="m78.43,78.58c-9.23-1.33-2.81-11.86,3.65-7.07,2.93,2.75-.01,7.21-3.65,7.07Zm-3.04-4.28c-.26,4.05,6.37,4.37,6.39.25.11-4.36-6.57-4.33-6.39-.25Z"/>
      <path d="m49.42,80.07c-.53.49-1.1.35-1.63.37-.59-1.02-.56-2.94-2.08-2.66-2.67.14-2.6,1.01-3.24,3.35-.34.07-.79.16-1.33.28.63-2.44,1.96-4.67,2.84-7.05.16-.58.18-1.21.93-1.25,1.77-.51,3.06,5.66,4.5,6.96Zm-5.56-2.84c.86-.25,2.23.13,2.1-.94-.29-.71-.37-1.43-1.23-1.69-.3.9-.55,1.65-.87,2.63Z"/>
      <path d="m36.78,81.95v-6.56c-.88-.41-1.57.17-2.32.31-.86-1.94,4.46-1.49,5.62-1.98.75-.24.84.97.12,1-.9.09-2.19-.29-2.03,1.07-.02,1.67-.03,3.34,0,5.01.03,1.14-.04,1.23-1.39,1.15Z"/>
      <path d="m60.39,38.08c.59,2.27.44,19.24-.27,20.87-.68-6.89-.38-13.98.05-20.89.07,0,.15.01.22.02Z"/>
      <path d="m74.32,36.24c-.33,1.51-7.37,10.47-9.12,11.68.3-1.41,6.97-10,9.12-11.68Z"/>
      <path d="m169.41,45.42c.83,2.61.65,22.02-.05,23.5-.46-.26-.35-.71-.36-1.08-.19-7.46-.35-15.01.41-22.42Z"/>
      <path d="m106.86,37.48c.71,1.81.72,16.45-.09,18.98-.65-6.28-.48-12.69.09-18.98Z"/>
      <path d="m127.18,57.95c-.66-6.16-.45-12.56.07-18.77.5.39.4.83.4,1.18.03,5.85.38,11.76-.24,17.58-.08,0-.16,0-.23,0Z"/>
      <path d="m11.09,71.84c-.45-8.84-.57-17.82.19-26.65.09,0,.19,0,.28-.01.24,8.83.6,17.82-.16,26.63-.1,0-.21.02-.31.03Z"/>
      <path d="m155.46,42.58c0,1.97-5.35,16.34-6.64,17.96.03-1.94,5.18-15.96,6.64-17.96Z"/>
      <path d="m189.88,40.54c-.11,2.39-3.31,2.36-3.42.02.14-2.4,3.3-2.57,3.42-.02Zm-.88-.94c-1.84-.16-2.17.27-1.43,1.88.47-.88.92-.11,1.43,0v-1.88Z"/>
    </g>
  </g>
</svg>