<?xml version="1.0" encoding="UTF-8"?>
<svg id="Capa_2" data-name="Capa 2" xmlns="http://www.w3.org/2000/svg" viewBox="0 0 190.53 86.12">
  <defs>
    <style>
      .cls-1 {
        fill: #1d1d1b;
      }
    </style>
  </defs>
  <g id="Capa_1-2" data-name="Capa 1">
    <path class="cls-1" d="m86.13,45.68c-1.08-2.21-2.15-4.41-3.23-6.62.17-.05.34-.09.5-.14-1.17-1.06-2.34-2.12-3.75-3.4-.43.13-1.27.38-2.11.63,2.84-2.74,5.57-5.55,5.77-10.54-4.12,2.33-6.07,5.58-7.33,9.32-.11.32.83,1,1.28,1.51-.8.4-2.19,1.27-2.31,1.11-.75-.92-1.95-2.54-1.63-3.07,2.05-3.28,4.46-6.34,6.77-9.45.12-.16.39-.31.59-.3,4.88.1,6.57-3.86,9.09-6.91,2.21-2.68,4.75-5.11,7.32-7.46.97-.88,2.43-1.23,3.66-1.82.23.25.46.51.7.76-.56.99-.95,2.12-1.7,2.93-3.64,4-7.54,7.77-11,11.92-2.42,2.9-4.34,6.24-6.35,9.47-.46.74-.36,1.84-.69,3.81,1.78-1.33,2.65-2.19,3.69-2.71,2.97-1.47,6.25-2.43,8.94-4.27,2.65-1.82,4.36-5.44,7.16-6.52,4.05-1.57,8.7-1.96,13.13-2.13,5.69-.23,11.78,3.38,16.68-3.04.09.33.17.67.26,1-.85,1.06-1.7,2.13-2.9,3.62,9.75,2.44,18.65,3.16,26.86-3.08,2.95-2.25,5.96-4.52,9.23-6.23,5.71-2.99,9.75-2.18,14.45,1.95.81.71,2.2.91,3.36,1.04,10.32.66,10.57,12.95.84,14.56-2.86.42-5.85-.07-8.67-.57,5.5-.67,14.91.26,13.95-7.94-.45-3.19-2.81-4.41-5.65-5.01-1.66-.35-2.55.14-3.35,1.85-.73,1.55-2.47,2.61-3.65,3.97-.83.95-1.65,1.98-2.19,3.11-1.56,3.29-4.13,4.84-7.26,4.21-2.63-.53-3.68-2.09-3.42-5.32,3.27.41,6.35.02,6.6-3.45.09-2.34-2.12-4.33-4.92-3.79-2.49.48-5.25,1.21-7.15,2.75-7.64,6.18-16.19,7.29-25.54,5.82-6.68-1.05-8.87.59-11.24,7.98,2.82.13,5.5.26,8.18.39.03.24.06.48.09.72-2.14.37-4.3,1.11-6.43,1.02-3.17-.14-4.89,1.3-6.51,3.8-3.98,6.15-8.02,12.28-12.45,18.12-1.99,2.62-4.69,4.96-7.53,6.62-4.14,2.43-7.52.36-7.6-4.42-.05-2.66.36-5.42,1.12-7.97.75-2.54,1.27-4.55-1.86-5.66-.35-.12-.55-.68-.83-1.03,1.8.21,3.35,2.43,5.44.27,2.6-2.68,5.48-5.11,8.23-7.64,4.61,1.32,9.19,2.44,13.59-2.31-5.59-1.52-10.5-2.93-15.47-4.11-.58-.14-1.46,1.05-2.21,1.63-.72-2.11-2.23-2.43-4.26-2.11-6.56,1.02-9.11,6.25-6.33,13.15Zm16.75,10.58c3.25-4.79,6.5-9.59,9.75-14.38-.26-.35-.53-.71-.79-1.06-2.05.67-5.58.92-5.91,2.08-1.75,6.15-6.13,7.17-11.45,7.27-.92.02-2.45.69-2.62,1.34-.9,3.44-1.94,6.97-1.99,10.48-.05,3.72,2.88,5.01,5.75,2.57,2.79-2.34,4.73-5.64,7.26-8.3Zm-5.86-26.99c.19.37.38.74.57,1.12,5.9,1.33,11.79,2.69,17.71,3.94.62.13,1.64-.22,2.03-.71,1.87-2.34,3.58-4.8,5.79-7.84-7.76-1.43-14.77-3.07-21.79-.2-1.67.68-2.89,2.44-4.32,3.7Zm81.1-12.1c-2.38-4.4-8.58-4.67-12.01-.65,3.2.7,5.83,2.19,5.4,5.81-.49,4.07-3.84,4.79-7.51,5.1,1.07,2.92,3.24,2.83,5.31,2.35,2.73-.64,4.88-3.04,4.22-5.35-1.28-4.47,1.02-5.96,4.59-7.26Zm-84.44,30.84c4.11,1.43,8.05-.09,9.44-3.54.29-.73.34-1.8,0-2.47-.19-.38-1.47-.54-2.1-.33-3.3,1.07-5.78,3.11-7.34,6.34ZM5.15,6.08C10.25,1.44,16.04,1.35,22.22,3.41c1.54.51,3.22.95,4.83.9,7.19-.2,11.76,5.18,9.35,11.97-1.28,3.6-3.81,6.83-6.14,9.96-1.99,2.65-4.5,4.91-6.42,7.7,7.73-6.49,19.13-9.11,21.68-21.02.33.05.66.1.99.15-.14,1.85.14,3.87-.51,5.53-1.26,3.24-3.16,6.23-4.56,9.42-2.11,4.82-4.02,9.73-5.49,14.75C48.15,21.88,66.81,4.38,91.59.5c5.79-.89,11.61-.74,17.21,1.68-16.45-1.8-30.92,3.37-44.12,12.54-13,9.03-25.09,18.9-28.08,36.45-2.95-3.72-4.3-7.77-3.04-12.17,1.18-4.15,3.15-8.07,5.07-12.83-9.53,7.44-21.26,11.54-25.04,24.12-.31-.03-.61-.06-.92-.09.21-2.31-.19-4.92.77-6.85,1.98-3.99,4.45-7.81,7.18-11.34,3.16-4.1,6.94-7.72,10.2-11.74,1.53-1.89,2.99-4.13,3.53-6.44.46-1.96.25-4.81-.92-6.21-1.11-1.31-3.86-1.24-5.9-1.78-.2.35-.39.7-.59,1.05,9.72,17.64-15.49,29.5-14.95,14.15.29-6.54,4.41-11.49,9.56-15.14-2.92-4.13-8.37-3.91-16.09.52-.1-.11-.2-.21-.3-.32Zm8.27,15.39c-.03,4.41,1.94,6.07,5.4,5.43,7.58-1.41,11.52-11.64,6.7-17.65-.54-.67-2.36-1.15-2.99-.76-5.13,3.18-8.41,7.69-9.1,12.98Zm45.51,53.35c-.83.35-2.06-.25-3.1-.42.36-.97.47-2.21,1.14-2.87,3.48-3.41,7.63-5.69,12.55-5.95,1.48-.08,3.93.63,4.29,1.59.5,1.33-.02,3.8-1.05,4.81-5.84,5.7-12.68,9.41-21.18,8.72-10.83-1.32-1.97-11.93,2.95-15.01,9.61-6.49,20.81-8.84,32.27-9.57-.96-.88-1.84-1.09-2.69-1.03-7.3.51-14.68.6-21.89,1.72-12.02,1.87-23.88,4.84-35.92,6.48-6.37.87-13,.1-19.49-.36-2.02-.14-5.1-.68-3.91-4.4.09-.29-.9-1.31-1.15-1.24-.63.2-1.49.74-1.62,1.3-.58,2.46,1.04,3.77,2.97,4.68,5.16,2.44,10.66,3.09,16.2,2.2,15.61-2.49,31.11-5.64,46.75-7.97.07.28.13.56.2.84-1.1.46-2.25.84-3.29,1.41-4.24,2.31-8.62,4.43-12.63,7.11-3.13,2.09-5.38,5.13-5.73,9.17-.21,2.42.73,4.09,2.89,5.22,7.48,3.9,25.23-2.66,28.31-10.49,1.27-3.23-.1-6.02-3.35-6.81-5.15-1.25-15.9,3.76-18.17,8.47-1.07,2.23-.28,3.75,2.16,4.14,3.65.59,8.52-2.2,10.19-5.64-2.4,1.24-4.97,2.73-7.68,3.87Zm54.32-17.48c16.68,3.01,33.38,6.31,50.21,8.23,4.16.42,8.6-1.23,12.82-2.32,2.03-.53,3.5-2.22,2.92-4.66-.13-.55-.99-1.02-1.61-1.31-.17-.08-1.08.73-1.02,1,.95,4.47-2.67,4.32-5.15,4.86-8.32,1.8-16.57.74-24.82-.87-11.39-2.23-22.83-4.21-34.26-6.25-1.92-.34-4.01-.75-5.01,2.13,1.8.6,3.46.96,4.96,1.68,5.06,2.41,10.29,4.58,15,7.56,2.28,1.44,4.01,4.28,5.13,6.86,1.48,3.41-.1,5.93-3.79,6.29-8.92.89-16.33-2.52-22.32-8.97-.89-.96-1.5-3.36-.92-4.23.72-1.09,2.81-1.84,4.28-1.79,4.53.18,8.54,2.06,11.87,5.13.96.88,1.38,2.35,2.05,3.55-1.45.11-3.1.73-4.3.24-2.37-.97-4.49-2.55-7.43-4.31,2.7,3.69,5.42,6.01,9.22,6.37,1.35.13,3.5-.48,4.03-1.45.51-.93-.15-3.14-1.04-4.12-3.78-4.14-8.67-6.6-14.21-6.99-2-.14-5.29,1.04-5.9,2.5-2.06,7.86,8.56,13.53,14.98,14.92,3.51.82,7.38,1.12,10.92.55,4.69-.75,6.44-4.43,4.17-8.65-1.55-2.87-3.87-5.68-6.54-7.52-4.41-3.03-9.38-5.26-14.12-7.82-.03-.21-.07-.42-.1-.63Zm53.65-18.53c-1.38,2.24-2.37,3.85-3.36,5.46-.85-.97-.79-1.65-1.02-2.21-.52-1.27-.92-3.16-1.87-3.53-1.02-.4-3.01.24-3.87,1.12-1.78,1.81-3.03,4.13-4.63,6.14-1.47,1.85-3.1,3.57-4.67,5.35-.74-5.18,6.1-7.24,4.27-13.08-1.51.77-2.57,1.31-3.62,1.85-.03-.27-.07-.54-.1-.81h-5.76c-2.91,3.56-5.67,6.94-8.44,10.33.1.11.2.21.29.32.8.49,1.6.97,1.91,1.16,2.71-3.51,5.36-6.96,8.02-10.41.32.22.64.43.95.64-1.63,3.23-5.64,5.58-4.19,10.63,2.28-4.63,4.67-8.36,8.69-10.71-.84,1.76-2.33,3.14-3.01,4.84-.68,1.73-.57,3.79-.8,5.7,1.5-.28,2.99-.56,4.75-.88,2.7,2.83,3.54,2.79,8.36-.77,1.56,3.05,1.8,3.07,4.19.38-.45-.17-.88-.33-1.44-.54,2.3-3.24,6.14-5.65,5.34-10.96Zm-14.74,12c1-2.38,2-4.77,3.28-7.81,2.13,6.07,1.84,6.88-3.28,7.81Zm6.96-4.69c-.56-.14-1.13-.29-1.7-.43.53-2.13,1.06-4.27,1.58-6.41.62.16,1.23.31,1.84.47-.57,2.12-1.14,4.25-1.72,6.37Zm23.64-10.77c-1.53,4.45-2.77,8.35-4.24,12.16-1.36,3.66-5.36,7.72-8.5,3.5-1.69.2-3.88.94-4.24.41-1.08-1.57-1.03-3.35.71-5.05,1.95-1.9,3.39-4.32,4.91-6.33q.74,1.22-3.38,10.18c2.5-2.24,5.1-4.38,7.47-6.75,2.42-2.44,4.6-5.11,7.28-8.12Zm-5.5,9.52c-.38-.27-.76-.55-1.15-.82-1.62,2.19-3.24,4.38-4.86,6.57.44.32.88.63,1.32.95,1.56-2.23,3.13-4.46,4.69-6.69Zm-107.73-16.59c4.06-5.35,8-10.81,12.27-15.99,1.38-1.68,3.61-2.66,5.45-3.97.34.31.69.61,1.03.92-.63,1.16-1.06,2.49-1.92,3.44-3.7,4.08-7.7,7.89-11.24,12.09-2.28,2.71-4.08,5.87-5.78,8.99-.43.78.33,2.22.66,4.02-2.41,1.89-1.93-2.69-3.61-3,1.05-2.17,2.1-4.34,3.15-6.51Zm8.84-9.28c.2.17.39.34.59.51,2.11-2.35,4.21-4.7,6.32-7.05-.22-.19-.43-.38-.65-.57-2.09,2.37-4.17,4.74-6.26,7.11Zm55.47,30.42c-.93.45-1.86.91-3.6,1.76,1.92-5.3,4.03-9.28,8.34-12.11-2.96-.37-6.13-1.12-8.71-.2-4.66,1.66-6.98,5.81-7.89,10.59-.14.74.46,1.63.71,2.45.83-.32,1.65-.65,2.48-.97-.46-.32-1.31-.64-1.31-.97-.02-3.19,5.33-9.47,8.54-10.11.27-.05.59.2,1.78.63-3.2,3.7-6.13,7.1-9.07,10.5,1.16-.6,2.32-1.21,3.51-1.83.42,1.15.79,2.14,1.41,3.82,1.6-1.26,2.85-2.24,4.11-3.23-.1-.11-.19-.21-.29-.32Zm32.59,25.79c.98.1,2.07-.89,3.11-1.37-.85-.72-1.6-1.89-2.55-2.09-7.89-1.63-15.82-3.09-23.74-4.59,7.24,4.03,14.84,7.18,23.19,8.05Zm-154.19-3.42c-.89.18-1.61,1.23-2.41,1.87.98.54,2,1.62,2.94,1.54,8.41-.64,15.95-3.89,23.97-8.12-8.72,1.65-16.63,3.1-24.5,4.7Zm36.49-36.82c1.01-4.16,2.92-8.16,7.14-10.53,2.22-1.24,3.97-.21,4.39,2.29.62,3.74-4.24,10.77-7.95,11.43-2.22.4-3.46-.51-3.59-3.2Zm1.37,1.72c.41.14.81.28,1.22.43,4.04-2.31,4.16-2.73,1.69-8.3-1.12,3.04-2.02,5.45-2.91,7.87Zm8.51-11.2c-.61-.16-1.23-.31-1.84-.47-.52,2.04-1.04,4.08-1.56,6.12.6.15,1.21.31,1.81.46.53-2.04,1.06-4.07,1.59-6.11Zm-35.86,54.67c-.54.78.07,2.35.15,3.56,1.06-.41,2.44-.52,3.12-1.26,4.21-4.58,8.27-9.3,12.44-14.05-6.13,2.68-11.82,6.04-15.72,11.75Zm119.18-9.94c3.68,3.89,7.27,7.87,11.04,11.68.88.89,2.33,1.2,3.52,1.78-.02-1.4.02-2.81-.08-4.2-.03-.38-.45-.77-.75-1.09-4.18-4.5-9.26-7.63-15.24-9.4.51.41,1.08.76,1.52,1.23ZM69.53,24.2c-1.49,1.3-2.32,2.03-3.15,2.76-.24-.17-.48-.34-.72-.52.69-1.57,1.38-3.14,2.07-4.7-.4-.27-.8-.55-1.21-.82-3.79,3.96-3.12,3.99-1.65,8.97-.03,2.51-3.36,4.45-1.42,8.57,1.2-1.49,2.06-2.58,2.93-3.66,1.05-2.17,2.1-4.34,3.15-6.51v-4.09Zm69.13,47.39c1.17,2.75,2.25,5.55,3.58,8.21.33.66,1.5.91,2.28,1.35.23-.88.95-2.07.62-2.6-1.66-2.66-3.59-5.15-5.43-7.71-.35.25-.7.49-1.05.74Zm-104.36,6.84c-.25.75.33,1.77.53,2.66.79-.41,1.96-.63,2.29-1.27,1.34-2.64,2.41-5.42,3.89-8.84-3.64,1.97-5.68,4.33-6.71,7.46Zm12.63-12.73c-.03-.65-1.44-1.77-2.12-1.69-.74.08-1.69,1.25-1.88,2.08-.11.52,1.04,1.31,1.99,2.39.94-1.21,2.04-2.03,2-2.79Zm85.59-.06c.29.84,1.26,1.74,2.12,1.98.45.12,1.82-1.14,1.79-1.73-.04-.81-1.02-1.57-1.96-2.85-.97,1.24-2.11,2.14-1.95,2.6ZM5.15,6.08C1.35,9.35.32,13.01,1.71,15.31c1.09-2.59,2.41-5.75,3.74-8.91-.1-.11-.2-.21-.3-.32Zm97.73,50.18c-3.13-2.2-6.47-.96-9.73-1.1-.03.32-.07.63-.1.95,3.04.3,6.07.61,9.11.91.24-.25.48-.51.72-.76Zm-23.93-36.74c2.11-2.35,4.21-4.7,6.32-7.05-.22-.19-.43-.38-.65-.57-2.09,2.37-4.17,4.74-6.26,7.11.2.17.39.34.59.51Zm-38.59,64.2l-4.19,2.3c1.48-.19,2.86-.94,4.19-2.3Zm100.83,1.69c1.65.88,3.44.95,5.32.09l-5.32-.09Z"/>
  </g>
</svg>