<?xml version="1.0" encoding="UTF-8"?>
<svg id="Capa_2" data-name="Capa 2" xmlns="http://www.w3.org/2000/svg" viewBox="0 0 135.98 102.61">
  <g id="Capa_1-2" data-name="Capa 1">
    <g>
      <path d="m56.15,11.3c-5.39-.48-9.83,1.81-13.04,5.85-3.19,3.43-6.45,15.99,3.64,14.66-.27-.21.52-.43.87-.77-.29-.18-.89-.19-.6-.42-4.24.05-5.09-5.11-2.91-8.01-1.27,5.43,3.86,6.64,7.32,3.47,1.33.4.82-1.06,1.92-1.03.4-1.2-1.54-.46-1.44-1.43,4.74.02,6.29-2.88,10.45-4.8.59.16.91-.3,1.12-.75.88-.02,1.65.26,1.99-.73.79-.16,2.36.51,2.27-.7,1.55-.33,4.26.26,3.12-2.04-.75.11-2.36-1.5-3.07-2.14-1.13-1.36-2.71-2.22-3.29-3.87.67-.58,1.78,2.41,3.07,2.19.39,1.31,2.24,1.01,2.5,2.47,1.51-.34,1.26,1.15,2.92.77.41.86,1.19.98,1.67.21-1.08-1.66-2.8-2.56-4.19-4.18-1.4-3.3-4.61-4.8-5.04-8.7,1.25,1.76,2.06,2.72,3.66,3.98,1.17.82.27,1.63,1.74,1.42.39,1.55,3.61,1.75,3.1,3.25,2.1-.62,8.58,5.71,9.34,2.34-.8.07-1.66-2.22-1.48-2.92.43.48.77.86,1.22,1.36,3.94,3.56,8.43,4.37,13.75,5.12.24.77,1.94,1.36,3.01,1.41-.25,1.47,1.87.3,2.65,1.01,1.01,4.34,9.93,2.65,7.6,8.94-.2.1-.47.23-.8.39-1.15-3.84-6.6-1.41-9.8-2.05-6.89,2.52-6.88,1.74-1.12,6.37.42,1.18-4.45-1.64-4.68-2.12-1.29-.04-2.54-1.19-3.83-.62.6.62-.79.24-1.13.38-1.04.2-1.78,1.89-2.57.26-4.28-.82-8.1,4.07-11.84,6.37-.11.24.05.8-.5.86-.5.06-.28.61-.66.79-1,.35-.57,1.6-1.61,1.54-.21.73-1.8,5.14-2.09,4.07.4-3.26,2.24-6.05,4.08-8.49,1.31-1.11,6.6-7.41,1.94-3.67-.48-.02-.99.82-1.38,1.1-.64,1.02-1.52,1.31-2.32,2.47-4.95,5.56-12.95,13.69-7.22,21.37-1.67.65-2.42-1.26-3.74-1.91-.23-.38.03-1.12-.84-1.25.76-3.51-1.74-2.93-.37-5.24.86-2.03-.12-5.67,1.85-6.56-.25-1.75,4.03-5.21,3.49-6.11.26-.06.5-.12.75-.18-.37-.25-.17-.58-.11-.97.32.49.53-.71.88-.26.22-3.31-5.46,4.55-5.55,5.53-.6-.29-1.36,2.36-1.45,3-1.08.6-1.93,2.61-2.52,3.43-4.42,5.36-5.44,14.46,3.56,15.93,6.2.61,11.02-1.71,15.29-4.55,3.69-2.63,10.17-4.47,9.27-10.65-2.43-2.71-5.2-4.35-8.17-1.64-2.98,1.29-5.32,3.82-6.44,6.93-.46-2.77,1.75-4.61,3.31-6.97,2.16-2.71,5.57-3.87,7.98-5.69,1.72-.41,4.91-.52,5.64-2.48,4.81,0,9.61,0,14.44,0,.41,1.24,2.17.52,3.25.75.57,1.41,2.8.34,3.38,1.4,3.39.51,5.87,2.54,8.95,3.63,13.7,8.69,19.27,23.91,18.61,41.23-1.12-5.86-1.59-11.59-3.56-17.11-1.69-2.32-2.2-5.81-4.7-7.94.1-1.23-4.88-4.94-3.99-5.37-5.48-2.72-9.52-7.21-16.17-8.3-2.06-2.2-22.14-3.43-16.38,3.69,6.58.51,11.91,1.24,16.95,5.17-.77.3,2.77,2.15,2.97,3.03,1.08.8,1.3,2.76,2.22,2.9.62,1.02.81,2.73,1.82,3.35.49,4.2,3.85,11,2.02,15.25.15-3.75-.75-6.74-1.98-10.17-1.67,1.31-.43,4.26-.79,6.14-.74.98-.84,1.94-.99,3.04-.8,2.85-2.24,6.09-4.23,9.01,3.03-8.65,5.45-18.28-.05-26.44-.95-.6-1.27-1.85-2.23-2.1-.36-.39-.5-1.03-1.22-.95-1.12-1.11-2.83-1.04-3.67-2.22-5.63.32-.14,1.24,1.31,2.78,8.54,3.65,7.28,15.66,5.31,24.27-2.37,3.92-4.3,9.72-8.73,12.4-.2,1.31-1.93,1.64-2.75,2.59-.9.72-1.36,1.46-2.7,1.65-1.65,1.35-3.62,2.71-6.1,2.99-2.59,1.89-9.35,1.64-11.65-.72-1.39-.33-2.63-2.15-3.15-3.22.36-1.61-1.66-3.81-.11-4.9-.35-2.88,2.39-4.98,1.44-5.73-2.19,1-1.87,2.85-4.41,2.56.68.72-.45.73-.92.76-.32.74-.8,1.07-1.64.91-.98,1.08-2.59,1.39-4.16,1.56.18,1.02-.62.67-1.37.76-1.22-.07-.95,1.19-2.05.95-1.31,2.66,10.02-2.49,11.1-3.18.29,2.47-5.52,3.09-7.64,4.73-1.13.85-2.68.26-3.48,1.47-1.18.17-2.61-.34-3.73.76-5.45.78-10.9-.64-16.03-1.48-.37-1.35-1.72-.2-2.22-1.48-1.3.21-1.89-1.06-3.16-1.11.15-1.22-1.5-.03-1.35-1.39-.99.29-1.17-.92-2.06-.78-2.48-3.03-6.95-5.6-7.39-9.8.93,1.46,1.97,2.46,3.12,3.74.43-.05.65.15.56.6.55.35,1.28.13,1.76.75,1.04.91,2.54,1.4,3.83,1.94.55-.07.69.31.81.73.87-.05,1.75-.11,2.19.78,5.09.47,10.95,3.27,16.17,1.01,1.48-.15,7.06-1.41,6.87-2.48,3.85-1.21,6.03-3.76,9.81-5.24.6-.65,1.94-1.3,2.88-1.31.28-1.19,1.6-.35,2-1.49.93.18,1.7-.19,2.17-1.03.94-.02,1.53.24,1.9-.75,2.66-.32,4.7-1.7,7.55-1.48,3.62,1.77,3.12,5.93,0,8.09,1.52,4.33,7.23-.39,9.35-1.99.58-1.06,1.44-1.48,1.87-2.79.35-.16.88-.3.6-1.03,1.28.27.49-1.14,1.31-1.67,5.86-8.95-1.26-18.45-10.89-11.73-1.96.15-3.07,2.27-4.86,2.83-.1,0-.28.08-.29.14-.11.61-1.19.19-1.01,1.05-4.01,1.79-6.59,4.16-11.18,4.33-6.07,1.99-13.38.05-18.54-2.55-3.23-2.2-5.07-5.67-6.92-8.07-.19-2.33-1.04-4.6-1.73-6.68.5-1.93.25-4.04.13-6.01.07-3.33,1.52-6.39,2.37-8.91.98-1.58.12-1.8-1.03-.5-.61,1.76-1.61,3.37-2.47,5.45-.81,3.98-1.26,7.5-1.01,11.9,1.11.42.91,3.15.66,4.01,1.05-.12,1.13.81,1.07,1.66.94.92,1.19,1.9,1.82,3.12,1.88,2.81,6.44,5.88,9.23,7.25-2.43.04-4.14-2.17-6.42-2.4-.26-1.02-1.51-.48-1.35-1.77-1.27.29-1-.73-1.88-.74-.15-.48-.46-.7-.84-.95-.45-.35-.06-1.47-.98-.77-.01-.42-1.04-2.58-1.49-2.35q-.15-.69-1.08-1.62c-7.27-13.26,5.83-29.67-2.7-27.12-2.49,1.93-3.87,4.17-5.13,6.58-1.68,1.82-1.43,4.24-2.97,5.9-1.87,7.79-1.61,12.64.73,19.97-.25-.48-.39-.75-.64-1.23-5-5.57-4.8-16.24-2.6-23.99,1.18-5.23,4.82-8.57,4.47-14.66-4.94-5.96-12.89,3.79-16.48,7.04C4.78,47.78,1.71,60.95,2.87,75.82c.21.61.17,1.25-.07,1.9.25.71.93,1.39.91,2.31.26,1.55-.01,5.59-.49,1.35-5.07-12.09-4.07-29.95,2.47-41.11,2.77-6.45,7.74-12.32,11.81-16.42,1.91-2.13,3.39-3.28,5.31-4.99,2.84.88,1.14-.1,3.68-.03,6.79-5.27,20.06-11.79,29.67-7.52Zm39.91,10.75c10.59,1.1-1.82-5.51-3.7-2.9.51.31.82.57,1.63.48-.05,1.42,1.68,1.41,2.07,2.42Z"/>
      <path d="m4.24,85.52c.07-.67-.88-2.28.19-2.23-.14.68.29,1.97-.19,2.23Z"/>
      <path d="m56.15,11.25c.54.27,1.72.03,1.77.71-.62.22-1.9.12-1.77-.71Z"/>
      <path d="m85.97,31.31h-1.48c.87-.37,1.68-1.32,1.48,0Z"/>
      <path d="m98.28,32.3c.45.21,1.32.17,1.49.52-.54-.12-1.63.39-1.49-.52Z"/>
      <path d="m30.99,71.46c-.22-.35-.86-1.15-.04-1.22.21.39.06.81.04,1.22Z"/>
      <path d="m64.73,0q.41.43.36,1c-.6.11-.29-.58-.36-1Z"/>
      <path d="m108.35,87.47c.04-.48-.22-1.03.54-.87-.2.27-.25,1.1-.54.87Z"/>
      <path d="m56.48,75.97c.17.17.28.28.5.5-.4.03-.71.05-1.29.09.42-.31.61-.45.8-.58Z"/>
      <path d="m82.97,32.72c.4-.14.44-.42.82.07-.32-.02-.73.26-.82-.07Z"/>
      <path d="m5.18,86.35c-.08.27.18.92-.16.93.06-.29-.27-.99.16-.93Z"/>
      <path d="m85.01,32.08c-.59-.06-.84.14-1.05-.12.54-.25.36-.25,1.05.12Z"/>
      <path d="m64.14,7.58c-.06.2.14.69-.13.68.02-.25-.27-.75.13-.68Z"/>
      <path d="m23.58,81.5c.06-.2-.14-.68.13-.68-.02.25.27.73-.13.68Z"/>
      <path d="m107.81,88.12c.06.55-.08.38-.74.4.39-.21.55-.3.74-.4Z"/>
      <path d="m82.68,33.37c-.04.17.12.55-.13.5.04-.17-.12-.55.13-.5Z"/>
      <path d="m31.76,72.01c-.04.17.12.55-.13.5.04-.17-.12-.55.13-.5Z"/>
      <path d="m51.14,23.17c.1.02.28-.06.25.08-.1-.02-.28.06-.25-.08Z"/>
      <path d="m63.35,6.78c-.02.1.06.28-.08.25.02-.1-.06-.28.08-.25Z"/>
    </g>
  </g>
</svg>