<?xml version="1.0" encoding="UTF-8"?>
<svg id="Capa_2" data-name="Capa 2" xmlns="http://www.w3.org/2000/svg" viewBox="0 0 124.13 122.07">
  <defs>
    <style>
      .cls-1 {
        fill: #fff;
      }
    </style>
  </defs>
  <g id="Capa_1-2" data-name="Capa 1">
    <g>
      <path d="m3.53,75.66c-5.63-7.35-4.87-18.88,4.83-25.43-4.14-7.48-4.71-15.1.02-22.47,4.52-7.04,11-10.98,19.78-10.81.23-.57.49-1.14.7-1.74,1.09-3.06,2.64-5.83,5.04-8.08,3.88-3.64,8.08-3.7,12.04-.12.13.12.32.18.57.33,1.46-1.38,2.85-2.91,4.46-4.16,3.62-2.81,7.69-4.06,12.19-2.48,1.57.55,2.97,1.59,4.5,2.43,10.44-5.59,18.99-2.58,22.1,8.05,2.73-1.65,5.59-2.01,8.49-.62,2.85,1.37,4.26,3.87,4.87,6.74,6.51.97,8.48,5.68,7.61,11.11.46.16.96.4,1.47.51,3.68.81,5.56,3.27,6.3,6.8.15.71.25,1.52.67,2.05,2.28,2.93,2.7,6.13,1.73,9.62-.2.72-.33,1.46-.45,2.05,1.01,1.35,2.15,2.53,2.87,3.92,1.18,2.29.94,4.73.23,7.16-.55,1.89-1.05,3.81-1.33,5.76-.17,1.17-.07,2.46.25,3.6,1.59,5.49-.12,9.15-5.42,11.31-.17.07-.34.13-.79.3.21,3.12-.07,6.27-2.31,8.89-1.54,1.8-3.54,2.77-6.02,3.53-2.04,8.08-6.93,14.34-14.18,18.7-7.23,4.34-14.99,6-23.51,3.99-1.37,2.65-3.22,4.9-6.38,5.38-3.16.48-5.7-.86-7.83-3.24-1.46.27-2.92.63-4.4.8-6,.7-11.45-.65-16.06-4.67-2.82-2.47-4.36-5.64-4.59-9.6h-3.56c-2.87,2.51-6.33,3.62-10.17,1.58-4.33-2.31-4.98-6.29-4.28-10.9-4.37-1.23-7.6-3.74-9.28-7.97-1.6-4.04-1.26-8.12-.15-12.32Zm22.47-25.72l.08.07c.83-3.07,1.55-6.19,2.53-9.21,1.02-3.15,1.71-6.54,5.14-8.57-1.75-.85-2.78-.1-3.47.86-1.15,1.59-2.32,3.25-3.07,5.05-1.84,4.43-3.42,8.97-5.15,13.44-1.67,4.3-3.31,8.61-5.14,12.84-.66,1.52-1.79,2.87-2.84,4.19-.72.9-1.74,1.61-2.98,1.17-1.28-.45-1.84-1.61-2.05-2.85-.52-3.07.33-5.82,2.36-8.15,1.05-1.2,2.39-1.8,4.07-1.25.4.13.91-.1,1.6-.2-1.08-2.02-2.66-1.79-4.08-1.48-.87.2-1.72.79-2.44,1.37-3.46,2.82-4.7,7.66-3.09,11.8,1.36,3.49,4.43,4.5,7.49,2.31,1.21-.86,2.14-2.11,3.17-3.21.47-.51.87-1.09,1.41-1.78,1.1,2.95,3.23,4.2,5.92,4.54,2.54.32,4.88-.35,6.89-1.97,3.06-2.48,4.43-5.76,4.54-9.65.11-3.67-1.3-6.53-4.43-8.5,7.54-7.63,7.92-9,5.6-20.09,1.52.94,2.92,1.8,4.38,2.71-1.42,5.72-2.17,11.49-1.68,17.39.18,2.2.69,4.3,1.98,6.11,2.03,2.84,5.6,3.2,8.12.79.88-.84,1.55-1.89,2.27-2.88.4-.55.69-1.17,1.09-1.85,2.41,3.44,4.75,4.28,7.84,2.98,1.62-.68,2.86-1.82,3.77-3.31.72-1.18,1.4-2.39,2.12-3.61,3.85,3.98,5.59,3.66,8.86-1.55,1.84,1.46,3.82,2.43,6.21,1.39,2.59-1.12,4.22-3.14,5.1-5.75.13-.39-.32-.98-.65-1.91-.79,1.28-1.22,2.11-1.78,2.83-.57.74-1.2,1.48-1.95,2.02-2.02,1.46-4.36.72-4.83-1.69-.75-3.82-.3-7.53,2.11-10.79,1.04-1.4,2.41-2.06,4.18-1.78.48.07.98.01,1.66.01-1.32-1.9-2.55-2.36-4.41-1.9-2.06.51-3.5,1.83-4.57,3.57-1.83,2.97-2.71,6.2-2.45,9.71.19,2.6-1,4.39-3,5.82-1.43-1.12-1.7-2.39-1.59-3.75.26-3.1.61-6.19.87-9.29.11-1.34.82-2.8-.86-4.18-.84,1.08-1.65,2.13-2.47,3.19-3.73-1.68-6.83-.38-9.53,2.2-2.46,2.34-4,5.29-4.44,8.65-.4,3.11-1.95,5.64-3.6,8.14-.96,1.45-2.25,2.74-4.21,2.23-1.84-.48-2.13-2.18-2.48-3.77-.83-3.69-.18-7.35.34-10.98.36-2.47.53-5.03,1.76-7.3,3.56.2,6.38-1.29,8.88-3.4,3.93-3.3,6.57-7.51,8.2-12.34.76-2.25,1.04-4.61.73-6.99-.5-3.76-3.68-5.62-7.02-3.87-1.71.89-3.3,2.23-4.55,3.71-4.34,5.13-6.69,11.31-8.8,17.59-.23.68-.53,1.33-.83,2.06-2.95-1.34-4.8-3.4-5.65-6.25-1.48-5,.31-9.19,3.75-12.88-1.37-.9-2.02,0-2.6.64-3.04,3.34-4.33,7.23-3.43,11.73.21,1.03.45,2.04.77,3.51-1.09-.83-1.74-1.38-2.44-1.85-1.67-1.12-3.5-1.72-5.53-1.94-6.74-.74-13.71,5.35-15.3,11.19-1.2,4.41-.2,8.41,2.22,12.12.55.84,1.37,1.57,2.21,2.14.6.41,1.44.49,1.8-.49-.05-.14-.06-.24-.12-.31-.11-.15-.24-.28-.38-.41-3.36-3.21-4.44-7.23-3.55-11.62,1.06-5.18,4.6-8.31,9.56-9.79,1.22-.36,2.63-.47,3.89-.28,6.31.94,9.09,7.38,8.4,12.82-.61,4.75-3.82,7.61-7.95,9.57-.83.4-1.68.77-2.51,1.16Zm-1.13,31.16c0-1.34.11-2.56-.02-3.77-.38-3.59-2.91-5.37-5.81-5.29-6.72.18-11.36,6.46-9.25,12.82.58,1.75,1.63,3.2,3.43,3.93,1.39.56,1.91.34,2.86-1.31-1.73-.35-3.09-1.11-3.87-2.82-2.14-4.72,1.41-10.3,6.59-10.25,1.6.02,2.54.55,2.87,2.16.3,1.45.39,3.01.21,4.47-.57,4.58-1.33,9.14-1.99,13.71-.2,1.4-.44,2.81-.42,4.21.01.92.39,1.95,1.6,2,1.18.05,1.61-.77,1.74-1.82.3-2.43.65-4.86.93-7.3.32-2.82.8-5.58,2.25-8.09.5-.87.83-1.94,2.51-1.95.14.75.44,1.53.39,2.29-.25,3.29-.59,6.57-.92,9.85-.14,1.38-.55,2.77.18,4.08,2.33.16,2.73.04,2.88-1.32.45-3.84.95-7.69,1.11-11.54.08-1.85.73-3.27,1.76-4.64.67-.89,1.49-1.44,2.79-.79.35,1.15.22,2.31-.19,3.5-.59,1.69-1.21,3.38-1.58,5.12-.3,1.45-.53,3.02-.3,4.46.43,2.7,3.61,3.68,5.66,1.88.62-.55,1.14-1.22,1.78-1.92,4.32,3.65,6.57-.05,9.06-2.57,3.43,2.39,5.57,2.01,7.66-1.3.5-.79.93-1.65,1.25-2.53.63-1.77,1.09-3.61,1.74-5.37.98-2.65,1.99-5.29,3.13-7.86.42-.95.89-2.15,2.37-2.08.7,1.33.3,2.62-.09,3.87-.55,1.8-1.19,3.57-1.77,5.37-1.58,4.87-2.87,9.8-2.45,14.98.22,2.68.73,5.34,1.14,8.18-.45.33-1.02.74-1.49,1.09-1.51-1.75-2.73-3.46-4.24-4.84-4.38-3.99-11.21-4.88-16.09-2.18-2.75,1.52-4.38,3.81-4.44,7.06-.06,3.25,1.74,5.26,4.4,6.69,2.84,1.53,5.87,1.97,9.05,1.43,3.57-.6,6.79-2.05,9.74-4.08,1.82,1.99-.37,4.71,1.49,6.79,1.56-1.2,1.55-2.72,1.46-4.2-.09-1.48-.35-2.96-.54-4.44.74-.59,1.37-1.11,2.01-1.62,3.14,3.9,6.25,5.49,11.06,5.46,7.67-.03,14.15-2.93,19.39-8.48,2.42-2.56,4.25-5.51,5.05-9.03,1.36-5.99-1.44-9.78-7.58-10.17-.19-.01-.38-.01-.57-.02-4.88-.17-9.11,1.61-12.7,4.71-3.35,2.89-6.42,6.12-9.57,9.24-1.34,1.32-2.58,2.74-4.12,4.39-1.68-7.48-.71-14.26,2.49-21.4.14,1.12.18,1.65.27,2.17.36,1.99,1.3,3.61,3.37,4.14,2.18.56,3.87-.44,5.13-2.17.72-.99,1.31-2.07,1.95-3.1,3.11,2.6,3.71,2.62,7.11.27,3.85,1.1,5.45-1.71,7.1-4.33,3.08,2.53,4.41,2.44,7.79-.27,1.13,0,2.08.1,2.99-.03.8-.12,1.54-.59,2.33-.75.89-.18,1.84-.09,2.72-.28.52-.11,1.01-.49,1.45-.84.56-.44,1.06-.96,1.56-1.42.29.21.49.29.58.43.61.91,1.35,1.36,2.36.62.87-.64.45-1.4.28-2.26-.35-1.73-.6-3.53-.53-5.28.11-2.92.57-5.81,1.69-8.56.47-1.15.45-2.22-1.18-2.78-.57.55-1.16,1.11-1.74,1.66-3.09-1.11-5.08.64-6.77,2.79-2.5,3.18-3.37,6.89-3.13,10.9.06.96.56,2.01-.28,3.04-1.56-.39-1.82-1.67-1.88-2.83-.22-4.16.18-8.27,1.16-12.24,7.26-3.06,12.63-11.4,10.67-16.43-1.22-.55-2.45-.34-3.49.34-1.41.92-2.82,1.91-3.98,3.12-2.53,2.63-4.02,5.89-5.12,9.35-1.96,6.19-2.67,12.49-1.67,19.44-.17.12-.63.46-1.11.76-1.34.82-2.42.37-2.71-1.15-.11-.55-.05-1.13-.08-1.7-.18-3.16.68-6.16,1.4-9.19.25-1.04.25-2.13.36-3.2-1,.13-1.55.43-1.91.89-.46.58-.76,1.28-1.12,1.92-2.36-1.05-3.53-.99-5.27.43-.72.59-1.38,1.31-1.9,2.08-2.35,3.57-3.68,7.41-2.92,11.76.19,1.08.22,2.13-1.25,2.34-2.14-2.6-1.95-12.6.3-17.95,1.88-.66,3.84-1.12,5.57-2.03,1.81-.94,3.56-2.14,5.03-3.55,1.59-1.52,1.66-4.14.57-5.74-1.1-1.61-3.06-2.21-5.31-1.65-2.65.66-4.51,2.38-5.82,4.64-1.08,1.86-1.87,3.88-2.93,6.12-3.1.25-6.38.57-9.67.77-4.52.28-9.07.3-13.57.75-4.13.41-8.16,1.44-11.94,3.25-2.16,1.03-4.09,2.33-5.66,4.16-1.28,1.5-1.87,3.27-2.08,5.17-.1.93.38,1.71,1.32,1.93.96.22,1.75-.22,1.86-1.24.44-4.08,3.39-5.89,6.63-7.41,3.79-1.79,7.85-2.74,11.99-3.09,6.3-.53,12.62-.82,18.93-1.2.45-.03.89,0,1.66,0-.26,1.6-.49,2.99-.73,4.45-2.87-1.38-4.12-1.21-5.95.95-1.07,1.26-1.9,2.72-2.83,4.08-1.63-4.34-4.06-4.62-7.46.09-.32-1.1,0-2.45-1.47-2.91-1.46-.03-2.04,1.08-2.38,2.28-.23.8-.13,1.68-.25,2.52-.55,3.82-1.06,7.64-1.75,11.44-.2,1.1-.42,2.49-2.16,2.79-.22-.48-.62-.96-.62-1.44-.01-1.41.09-2.82.23-4.23.27-2.81.61-5.62.86-8.43.09-1.04.03-2.12-1.6-2.5-.66,1.03-1.34,2.11-2.02,3.2-2.49-1.93-4.3-1.91-6.57.04-1.71,1.47-2.68,3.4-3.36,5.48-.91,2.81-1.29,5.69-1.18,8.65.07,1.94-.78,3.32-2.71,4.17-.63-1.89-.19-3.51.36-5.13.8-2.33,1.4-4.69,1.27-7.19-.09-1.61-.9-2.67-2.33-3.24-1.36-.54-2.63-.24-3.64.81-.84.87-1.58,1.84-2.36,2.77-2.63-2.21-3.03-2.22-6.5.05Zm85.48-45.66c-.3.17-.53.23-.62.37-.78,1.17-1.43,2.43-3.18,2.43-1.46,0-2.8-.2-4.04-1-1.65-1.07-3.31-2.11-5.01-3.19,1.55-1.25,3.16-2.25,4.36-3.61,1.01-1.16,1.66-2.69,2.22-4.16.17-.45-.38-1.55-.86-1.76-.89-.39-1.33.47-1.5,1.23-.89,4-4.31,5.38-7.43,7.26,0-1.94.26-3.75.57-5.55.45-2.6,1-5.18,1.4-7.78.31-2.04-.18-2.62-2.07-2.96-1.26,1.57-2.29,3.3-3.73,4.57-3.87,3.4-8.5,4.73-13.63,4.38-4.18-.29-7.24-3.21-7.63-7.34-.35-3.75,2.47-7.99,6.02-8.95,2-.54,3.73-.04,5.08,1.57.46.55.88,1.13,1.32,1.71,1.47-.65,1.15-1.52.68-2.39-1.08-2.01-4.18-3.5-6.53-3.15-5.29.79-9.5,6.52-8.68,11.82.81,5.25,4.36,8.54,9.81,8.88,5.18.32,9.89-1.05,13.94-4.41.44-.37.93-.68,1.81-1.32-.4,2.56-.7,4.6-1.04,6.63-.78,4.64-1.61,9.28-2.36,13.93-.19,1.18-.34,2.44.79,3.36,1.09-.02,1.57-.57,1.73-1.55.38-2.32.77-4.64,1.21-6.96.15-.78.47-1.52.83-2.68,1.36.84,2.42,1.41,3.37,2.11,1.22.89,2.31,1.95,3.53,2.84,2.14,1.56,4.5,2.35,7.19,1.73,2.01-.47,3.43-1.88,3.72-3.8.15-.98.11-1.93-1.28-2.22Zm-.93,48.34c0-1.93-1.44-3.31-3.42-3.28-1.96.02-3.4,1.47-3.37,3.36.04,1.86,1.63,3.5,3.44,3.36,2.05-.16,3.48-1.56,3.34-3.44Z"/>
      <path class="cls-1" d="m24.86,81.1c3.47-2.26,3.87-2.26,6.5-.05.78-.93,1.52-1.9,2.36-2.77,1.01-1.04,2.29-1.35,3.64-.81,1.43.57,2.25,1.63,2.33,3.24.14,2.5-.47,4.86-1.27,7.19-.56,1.62-.99,3.24-.36,5.13,1.93-.84,2.78-2.23,2.71-4.17-.11-2.96.27-5.84,1.18-8.65.68-2.09,1.65-4.02,3.36-5.48,2.26-1.95,4.07-1.97,6.57-.04.68-1.08,1.37-2.16,2.02-3.2,1.63.38,1.69,1.46,1.6,2.5-.25,2.81-.6,5.62-.86,8.43-.13,1.41-.24,2.82-.23,4.23,0,.48.4.95.62,1.44,1.74-.3,1.96-1.69,2.16-2.79.68-3.79,1.19-7.62,1.75-11.44.12-.84.02-1.72.25-2.52.34-1.2.92-2.31,2.38-2.28,1.46.46,1.15,1.81,1.47,2.91,3.39-4.71,5.83-4.43,7.46-.09.93-1.36,1.77-2.82,2.83-4.08,1.83-2.17,3.08-2.33,5.95-.95.24-1.47.47-2.85.73-4.45-.77,0-1.22-.02-1.66,0-6.31.38-12.63.67-18.93,1.2-4.14.35-8.19,1.3-11.99,3.09-3.24,1.53-6.19,3.34-6.63,7.41-.11,1.03-.9,1.46-1.86,1.24-.94-.22-1.42-1-1.32-1.93.21-1.9.81-3.67,2.08-5.17,1.56-1.83,3.5-3.13,5.66-4.16,3.79-1.81,7.81-2.84,11.94-3.25,4.5-.45,9.05-.47,13.57-.75,3.29-.2,6.57-.52,9.67-.77,1.06-2.24,1.86-4.26,2.93-6.12,1.31-2.26,3.17-3.97,5.82-4.64,2.25-.56,4.21.03,5.31,1.65,1.09,1.6,1.02,4.22-.57,5.74-1.47,1.41-3.22,2.6-5.03,3.55-1.73.9-3.69,1.37-5.57,2.03-2.26,5.35-2.44,15.36-.3,17.95,1.47-.21,1.44-1.26,1.25-2.34-.76-4.35.57-8.19,2.92-11.76.51-.78,1.17-1.5,1.9-2.08,1.74-1.41,2.91-1.47,5.27-.43.36-.64.67-1.34,1.12-1.92.36-.45.91-.76,1.91-.89-.11,1.07-.11,2.16-.36,3.2-.72,3.03-1.57,6.03-1.4,9.19.03.57-.02,1.15.08,1.7.29,1.52,1.37,1.97,2.71,1.15.49-.3.94-.64,1.11-.76-1-6.95-.3-13.25,1.67-19.44,1.1-3.45,2.59-6.71,5.12-9.35,1.16-1.2,2.57-2.2,3.98-3.12,1.04-.68,2.27-.89,3.49-.34,1.96,5.03-3.41,13.37-10.67,16.43-.98,3.97-1.38,8.08-1.16,12.24.06,1.17.32,2.44,1.88,2.83.84-1.02.33-2.08.28-3.04-.24-4.01.64-7.72,3.13-10.9,1.69-2.15,3.68-3.9,6.77-2.79.58-.55,1.17-1.11,1.74-1.66,1.63.56,1.64,1.64,1.18,2.78-1.12,2.75-1.59,5.64-1.69,8.56-.06,1.76.19,3.55.53,5.28.17.86.59,1.62-.28,2.26-1,.74-1.75.29-2.36-.62-.1-.14-.29-.22-.58-.43-.5.46-1,.98-1.56,1.42-.44.34-.93.73-1.45.84-.89.19-1.83.1-2.72.28-.8.16-1.54.63-2.33.75-.91.13-1.86.03-2.99.03-3.38,2.71-4.71,2.8-7.79.27-1.65,2.63-3.25,5.43-7.1,4.33-3.4,2.36-4,2.33-7.11-.27-.65,1.03-1.24,2.11-1.95,3.1-1.26,1.74-2.95,2.73-5.13,2.17-2.06-.53-3-2.15-3.37-4.14-.1-.52-.14-1.06-.27-2.17-3.2,7.14-4.18,13.92-2.49,21.4,1.54-1.65,2.79-3.07,4.12-4.39,3.16-3.12,6.22-6.34,9.57-9.24,3.59-3.1,7.82-4.88,12.7-4.71.19,0,.38,0,.57.02,6.14.39,8.94,4.18,7.58,10.17-.8,3.52-2.63,6.47-5.05,9.03-5.24,5.55-11.73,8.44-19.39,8.48-4.82.02-7.93-1.56-11.06-5.46-.64.51-1.27,1.03-2.01,1.62.19,1.48.45,2.96.54,4.44.09,1.48.1,3-1.46,4.2-1.86-2.08.33-4.8-1.49-6.79-2.94,2.03-6.17,3.48-9.74,4.08-3.18.54-6.2.1-9.05-1.43-2.66-1.43-4.46-3.45-4.4-6.69.06-3.25,1.69-5.54,4.44-7.06,4.88-2.69,11.71-1.81,16.09,2.18,1.51,1.38,2.73,3.09,4.24,4.84.47-.35,1.04-.76,1.49-1.09-.41-2.84-.92-5.5-1.14-8.18-.42-5.17.87-10.11,2.45-14.98.58-1.79,1.21-3.57,1.77-5.37.39-1.26.79-2.54.09-3.87-1.48-.07-1.95,1.13-2.37,2.08-1.14,2.58-2.16,5.22-3.13,7.86-.65,1.76-1.11,3.6-1.74,5.37-.31.88-.75,1.74-1.25,2.53-2.09,3.31-4.23,3.69-7.66,1.3-2.49,2.52-4.74,6.21-9.06,2.57-.64.7-1.16,1.37-1.78,1.92-2.05,1.8-5.23.82-5.66-1.88-.23-1.44,0-3.01.3-4.46.36-1.74.99-3.43,1.58-5.12.41-1.19.54-2.36.19-3.5-1.3-.64-2.12-.1-2.79.79-1.02,1.37-1.68,2.79-1.76,4.64-.17,3.86-.67,7.7-1.11,11.54-.16,1.35-.55,1.47-2.88,1.32-.73-1.31-.32-2.69-.18-4.08.33-3.28.67-6.56.92-9.85.06-.76-.25-1.54-.39-2.29-1.68,0-2.01,1.07-2.51,1.95-1.44,2.5-1.92,5.27-2.25,8.09-.28,2.44-.63,4.87-.93,7.3-.13,1.05-.56,1.87-1.74,1.82-1.21-.05-1.59-1.08-1.6-2-.02-1.4.22-2.81.42-4.21.66-4.57,1.42-9.13,1.99-13.71.18-1.46.09-3.02-.21-4.47-.33-1.61-1.27-2.14-2.87-2.16-5.18-.05-8.73,5.53-6.59,10.25.77,1.71,2.14,2.47,3.87,2.82-.95,1.66-1.47,1.88-2.86,1.31-1.8-.73-2.84-2.18-3.43-3.93-2.11-6.35,2.53-12.63,9.25-12.82,2.9-.08,5.43,1.7,5.81,5.29.13,1.2.02,2.43.02,3.77Zm42.23,22.01c1.85,3.62,4.58,5.17,7.97,5.27,9.42.28,16.72-3.82,22.15-11.35,1.27-1.77,2.03-3.82,2.06-6.07.04-2.85-.95-4.36-3.67-5.31-.87-.3-1.83-.46-2.75-.52-4.71-.28-8.76,1.55-12.11,4.6-4.66,4.25-9.03,8.83-13.64,13.37Zm-6.5,3.15c-1.18-2.82-1.94-3.9-3.73-5.41-3.84-3.23-10.68-3.68-14.52-.96-3.39,2.41-3.28,6.95.25,9.16,1.71,1.07,3.6,1.62,5.6,1.64,4.6.05,8.61-1.62,12.39-4.44Zm-11.11-30.72c-1.25-.07-1.96.69-2.47,1.62-2.01,3.71-3,7.67-2.88,11.9.03,1.13.43,1.99,1.68,2.35,1.17-.53,1.77-1.56,2.48-2.57,2.12-3,2.2-6.53,2.7-9.94.2-1.36-.2-2.62-1.52-3.36Zm27.56-7.8c-.83.89-1.51,1.41-1.91,2.09-1.75,2.95-2.85,6.13-3,9.57-.06,1.28-.08,2.74,1.32,3.46.95.49,2.06-.36,3.14-2.26.23-.41.41-.84.6-1.27,1.32-3.04,1.23-6.24.99-9.44-.05-.63-.63-1.22-1.15-2.16Zm10.9,10.43c1.35.53,2.22.02,2.88-.85.44-.59.92-1.26,1.06-1.96.62-3.01,1.16-6.05,1.62-9.09.08-.53-.37-1.15-.57-1.71-2.33.68-3.08,1.34-4.21,4.27-1.17,3.04-2.31,6.15-.78,9.33Zm24.62-19.67c-1.13,1.05-2.08,1.66-2.67,2.52-1.8,2.59-2.63,5.55-2.75,8.7-.02.56-.01,1.14.13,1.67.46,1.72,2.08,2.2,3.13.77.86-1.17,1.49-2.62,1.8-4.04.54-2.45.81-4.98,1.08-7.48.06-.52-.35-1.1-.72-2.15Zm-28.44-.19c2.95-.47,5.47-1.42,7.17-2.67.38-.28.76-.57,1.07-.92.8-.93.92-2.41.32-3.43-.52-.89-1.68-1.26-3.01-.7-.84.35-1.67.92-2.29,1.58-1.62,1.71-2.58,3.8-3.26,6.15Zm19.62-2.13c3.21-1.36,5.02-3.15,6.93-6.93.8-1.59,1.9-3.16,1.28-5.45-4.72,2.98-6.68,7.39-8.2,12.38Z"/>
      <path class="cls-1" d="m25.99,49.94c.84-.39,1.68-.76,2.51-1.16,4.13-1.96,7.35-4.82,7.95-9.57.69-5.44-2.09-11.88-8.4-12.82-1.26-.19-2.66-.08-3.89.28-4.97,1.48-8.5,4.61-9.56,9.79-.9,4.38.18,8.41,3.55,11.62.13.13.26.26.38.41.05.07.07.17.12.31-.35.97-1.2.89-1.8.49-.84-.57-1.66-1.3-2.21-2.14-2.42-3.71-3.42-7.7-2.22-12.12,1.59-5.84,8.56-11.93,15.3-11.19,2.03.22,3.86.82,5.53,1.94.7.47,1.35,1.02,2.44,1.85-.33-1.47-.57-2.49-.77-3.51-.9-4.51.39-8.39,3.43-11.73.58-.64,1.23-1.54,2.6-.64-3.45,3.69-5.24,7.88-3.75,12.88.84,2.85,2.7,4.9,5.65,6.25.3-.74.6-1.39.83-2.06,2.11-6.28,4.46-12.46,8.8-17.59,1.25-1.47,2.85-2.82,4.55-3.71,3.35-1.75,6.53.11,7.02,3.87.31,2.38.04,4.73-.73,6.99-1.63,4.83-4.27,9.04-8.2,12.34-2.51,2.11-5.32,3.6-8.88,3.4-1.23,2.27-1.4,4.83-1.76,7.3-.53,3.63-1.17,7.29-.34,10.98.36,1.59.65,3.29,2.48,3.77,1.96.51,3.25-.78,4.21-2.23,1.65-2.5,3.2-5.03,3.6-8.14.44-3.37,1.98-6.31,4.44-8.65,2.7-2.57,5.8-3.88,9.53-2.2.82-1.06,1.63-2.1,2.47-3.19,1.69,1.38.98,2.84.86,4.18-.26,3.1-.62,6.19-.87,9.29-.11,1.36.16,2.63,1.59,3.75,2-1.43,3.19-3.21,3-5.82-.26-3.5.62-6.74,2.45-9.71,1.07-1.74,2.51-3.06,4.57-3.57,1.86-.46,3.08,0,4.41,1.9-.68,0-1.18.06-1.66-.01-1.78-.27-3.14.38-4.18,1.78-2.41,3.26-2.86,6.96-2.11,10.79.47,2.41,2.81,3.14,4.83,1.69.75-.54,1.38-1.29,1.95-2.02.56-.72.99-1.56,1.78-2.83.33.93.78,1.52.65,1.91-.88,2.61-2.51,4.62-5.1,5.75-2.39,1.04-4.37.07-6.21-1.39-3.26,5.21-5.01,5.53-8.86,1.55-.71,1.22-1.4,2.43-2.12,3.61-.91,1.49-2.16,2.63-3.77,3.31-3.09,1.3-5.43.46-7.84-2.98-.39.68-.69,1.3-1.09,1.85-.72.99-1.39,2.05-2.27,2.88-2.52,2.41-6.09,2.06-8.12-.79-1.29-1.81-1.8-3.9-1.98-6.11-.49-5.89.25-11.67,1.68-17.39-1.46-.91-2.86-1.77-4.38-2.71,2.32,11.09,1.94,12.46-5.6,20.09,3.13,1.96,4.54,4.83,4.43,8.5-.12,3.89-1.48,7.17-4.54,9.65-2.01,1.62-4.35,2.29-6.89,1.97-2.69-.34-4.82-1.58-5.92-4.54-.54.69-.94,1.27-1.41,1.78-1.03,1.1-1.96,2.35-3.17,3.21-3.06,2.19-6.13,1.18-7.49-2.31-1.61-4.13-.37-8.98,3.09-11.8.72-.58,1.56-1.17,2.44-1.37,1.42-.32,2.99-.55,4.08,1.48-.69.1-1.2.33-1.6.2-1.68-.55-3.02.05-4.07,1.25-2.03,2.33-2.87,5.07-2.36,8.15.21,1.25.78,2.4,2.05,2.85,1.24.44,2.26-.27,2.98-1.17,1.05-1.32,2.18-2.66,2.84-4.19,1.84-4.23,3.48-8.54,5.14-12.84,1.73-4.48,3.31-9.01,5.15-13.44.75-1.8,1.91-3.46,3.07-5.05.69-.96,1.72-1.71,3.47-.86-3.43,2.03-4.12,5.43-5.14,8.57-.98,3.02-1.7,6.14-2.53,9.21-.09.03-.24.03-.26.08-1.42,3.86-2.98,7.68-4.19,11.6-1.17,3.81,2.47,7.24,6.3,6.16,2.09-.59,3.71-1.78,4.83-3.65,1.64-2.77,1.71-5.77,1.01-8.76-.61-2.61-2.62-3.79-5.25-3.46-1.84.23-1.92.17-2.51-2.05Zm20.56-18.28c2.64.21,4.34-.33,6.57-2.21,4-3.37,6.83-7.53,8.12-12.64.36-1.44.56-2.97.53-4.46-.05-2.64-1.99-3.65-4.26-2.18-1.08.7-2.05,1.68-2.81,2.73-4.09,5.64-6.24,12.12-8.14,18.75Zm10.65,17.89c0,.09,0,.19,0,.28-.02,1.7.36,3.3,2.1,3.94,1.8.67,2.77-.78,3.64-1.98,2.3-3.15,3.72-6.72,4.41-10.54.26-1.42.65-3.24-.98-4.08-1.65-.85-3.09.24-4.27,1.35-3.17,2.98-4.5,6.8-4.89,11.03Z"/>
      <path class="cls-1" d="m110.34,35.44c1.4.3,1.43,1.24,1.28,2.22-.3,1.92-1.71,3.33-3.72,3.8-2.69.62-5.05-.17-7.19-1.73-1.22-.89-2.31-1.95-3.53-2.84-.96-.7-2.02-1.27-3.37-2.11-.37,1.16-.69,1.9-.83,2.68-.44,2.31-.84,4.63-1.21,6.96-.16.98-.63,1.52-1.73,1.55-1.13-.92-.98-2.18-.79-3.36.75-4.65,1.58-9.28,2.36-13.93.34-2.03.64-4.07,1.04-6.63-.88.64-1.37.95-1.81,1.32-4.05,3.37-8.76,4.73-13.94,4.41-5.45-.33-9-3.63-9.81-8.88-.82-5.3,3.4-11.03,8.68-11.82,2.35-.35,5.45,1.14,6.53,3.15.47.88.79,1.74-.68,2.39-.45-.58-.86-1.16-1.32-1.71-1.35-1.61-3.08-2.11-5.08-1.57-3.55.96-6.37,5.2-6.02,8.95.39,4.13,3.44,7.05,7.63,7.34,5.13.35,9.76-.97,13.63-4.38,1.44-1.27,2.48-3,3.73-4.57,1.89.35,2.38.92,2.07,2.96-.4,2.6-.95,5.19-1.4,7.78-.31,1.8-.57,3.61-.57,5.55,3.12-1.87,6.54-3.26,7.43-7.26.17-.76.61-1.63,1.5-1.23.48.21,1.03,1.32.86,1.76-.55,1.47-1.2,3-2.22,4.16-1.2,1.37-2.81,2.36-4.36,3.61,1.69,1.08,3.36,2.12,5.01,3.19,1.24.81,2.58,1,4.04,1,1.75,0,2.39-1.25,3.18-2.43.09-.14.32-.19.62-.37Z"/>
      <path class="cls-1" d="m109.41,83.79c.14,1.88-1.29,3.27-3.34,3.44-1.82.14-3.41-1.5-3.44-3.36-.04-1.89,1.41-3.34,3.37-3.36,1.98-.02,3.41,1.35,3.42,3.28Z"/>
      <path d="m67.1,103.11c4.61-4.55,8.98-9.12,13.64-13.37,3.35-3.05,7.39-4.89,12.11-4.6.93.06,1.88.22,2.75.52,2.73.94,3.71,2.46,3.67,5.31-.03,2.25-.78,4.31-2.06,6.07-5.43,7.54-12.73,11.63-22.15,11.35-3.39-.1-6.12-1.66-7.97-5.27Z"/>
      <path d="m60.6,106.26c-3.79,2.81-7.79,4.48-12.39,4.44-2.01-.02-3.9-.57-5.6-1.64-3.53-2.21-3.64-6.76-.25-9.16,3.85-2.73,10.69-2.28,14.52.96,1.79,1.5,2.54,2.58,3.73,5.41Z"/>
      <path d="m49.48,75.54c1.32.74,1.72,2,1.52,3.36-.51,3.41-.58,6.94-2.7,9.94-.71,1.01-1.32,2.04-2.48,2.57-1.25-.37-1.65-1.22-1.68-2.35-.11-4.23.87-8.19,2.88-11.9.5-.93,1.22-1.69,2.47-1.62Z"/>
      <path d="m77.05,67.75c.52.94,1.1,1.53,1.15,2.16.23,3.19.33,6.4-.99,9.44-.19.43-.37.87-.6,1.27-1.08,1.9-2.19,2.75-3.14,2.26-1.41-.73-1.38-2.19-1.32-3.46.15-3.44,1.25-6.63,3-9.57.41-.68,1.08-1.2,1.91-2.09Z"/>
      <path d="m87.95,78.18c-1.53-3.19-.39-6.29.78-9.33,1.13-2.93,1.88-3.59,4.21-4.27.2.56.65,1.18.57,1.71-.46,3.04-1.01,6.07-1.62,9.09-.14.7-.61,1.37-1.06,1.96-.66.88-1.53,1.38-2.88.85Z"/>
      <path d="m112.57,58.51c.37,1.05.78,1.62.72,2.15-.27,2.51-.54,5.03-1.08,7.48-.31,1.42-.95,2.87-1.8,4.04-1.05,1.42-2.66.95-3.13-.77-.14-.53-.15-1.12-.13-1.67.12-3.15.95-6.1,2.75-8.7.6-.86,1.54-1.47,2.67-2.52Z"/>
      <path d="m84.13,58.32c.67-2.34,1.63-4.43,3.26-6.15.63-.66,1.45-1.23,2.29-1.58,1.34-.56,2.49-.19,3.01.7.6,1.02.48,2.51-.32,3.43-.3.35-.69.64-1.07.92-1.71,1.25-4.23,2.2-7.17,2.67Z"/>
      <path d="m103.76,56.19c1.52-4.99,3.48-9.39,8.2-12.38.62,2.29-.47,3.86-1.28,5.45-1.91,3.77-3.72,5.57-6.93,6.93Z"/>
      <path d="m46.56,31.66c1.9-6.64,4.05-13.12,8.14-18.75.76-1.05,1.73-2.03,2.81-2.73,2.27-1.46,4.21-.46,4.26,2.18.03,1.48-.16,3.01-.53,4.46-1.28,5.11-4.12,9.26-8.12,12.64-2.22,1.88-3.93,2.42-6.57,2.21Z"/>
      <path d="m25.99,49.94c.6,2.22.67,2.28,2.51,2.05,2.62-.33,4.64.84,5.25,3.46.7,2.98.64,5.99-1.01,8.76-1.11,1.87-2.74,3.06-4.83,3.65-3.83,1.08-7.47-2.36-6.3-6.16,1.21-3.93,2.77-7.74,4.19-11.6.02-.05.17-.06.26-.08l-.08-.07Z"/>
      <path d="m57.21,49.54c.39-4.23,1.73-8.05,4.89-11.03,1.18-1.11,2.63-2.2,4.27-1.35,1.63.84,1.24,2.67.98,4.08-.7,3.82-2.12,7.39-4.41,10.54-.87,1.19-1.84,2.64-3.64,1.98-1.73-.64-2.11-2.24-2.1-3.94,0-.09,0-.19,0-.28Z"/>
    </g>
  </g>
</svg>