<?xml version="1.0" encoding="UTF-8"?>
<svg id="Capa_2" data-name="Capa 2" xmlns="http://www.w3.org/2000/svg" viewBox="0 0 144.93 33.83">
  <g id="Capa_1-2" data-name="Capa 1">
    <g>
      <path d="m100.6,19.1c.01-.16.03-.32.03-.48,0-5.87,0-11.74,0-17.61,0-.84,0-.86.85-.75,3.32.43,6.22,1.82,8.9,3.76,2.28,1.65,4.23,3.64,5.91,5.9.07.1.15.2.34.44.03-.36.06-.57.06-.78,0-2.82.01-5.64,0-8.45,0-.51.14-.65.64-.65,8.98.01,17.97.01,26.95,0,.47,0,.67.09.66.63-.03,1.99-.01,3.98-.01,5.98,0,.17-.02.33-.04.57-.25,0-.48,0-.71,0-2.84,0-5.68.02-8.52-.01-.57,0-.71.17-.7.72.02,7.82.01,15.64.01,23.46,0,.29-.03.58-.04.94-.86-.16-1.64-.31-2.42-.46-1.39-.26-2.78-.53-4.18-.78-.51-.09-.63-.35-.63-.84.01-7.42,0-14.83.03-22.25,0-.66-.19-.83-.82-.8-1.12.05-2.25.04-3.37,0-.54-.02-.67.18-.67.7.02,7.14.01,14.28,0,21.42q0,.86-.85.74c-1.87-.26-3.73-.51-5.6-.77q-.94-.13-.97-1.09c-.18-5.02-1.49-9.68-4.35-13.86-.84-1.23-1.95-2.17-3.14-3.02-.08-.05-.19-.06-.4-.12v17.06c-1.13-.09-2.16-.18-3.19-.26-2.72-.22-5.45-.45-8.17-.64-.53-.04-.75-.21-.81-.73-.21-1.75-.08-1.47-1.78-1.48-2.08-.02-4.15,0-6.23-.01-.52,0-.75.16-.68.69.02.15,0,.3,0,.44.05.45-.14.58-.59.56-1.91-.08-3.81-.14-5.72-.17-.58,0-.71-.24-.71-.77.01-4.98,0-9.96,0-14.94,0-3.48,0-6.95,0-10.43,0-.79.02-.82.78-.73,3.1.36,5.86,1.59,8.41,3.33,4.61,3.16,7.84,7.47,10.25,12.45.49,1.01.91,2.04,1.36,3.07.04,0,.08,0,.11,0Zm-13.83-8.71c-.04.25-.07.35-.07.45,0,3.09,0,6.18,0,9.27,0,.46.23.5.59.5,1.93-.01,3.85,0,5.78-.01.16,0,.31-.04.57-.07-1.57-3.87-3.6-7.33-6.86-10.14Z"/>
      <path d="m45.45.08c.02.35.04.6.04.85,0,8.65,0,17.29.01,25.94,0,.63-.14.87-.83.89-1.84.06-3.68.2-5.52.35-.53.04-.69-.13-.68-.62.01-.51,0-1.02,0-1.53,0-.35-.14-.49-.49-.49-2.5,0-5,0-7.5,0-.34,0-.49.11-.53.46-.11.86-.23,1.72-.4,2.57-.04.2-.29.48-.48.5-4.01.54-8.02,1.04-12.03,1.55-.84.11-.85.09-.98-.77-.45-2.9-1.6-5.51-3.33-7.87-.59-.81-.59-.78-1.53-.44-1.13.41-2.27.83-3.43,1.12-.6.15-.72.41-.71.96.02,2.63,0,5.26.02,7.88,0,.59-.1.89-.76,1.02-2.09.4-4.17.89-6.31,1.36V.54h30.01c-.24,1.16-.38,2.27-.69,3.33-1.64,5.58-5.23,9.74-9.8,13.14-.7.52-.71.52-.19,1.19,1.43,1.83,2.51,3.86,3.3,6.04.08.23.19.46.35.86.22-.91.4-1.65.59-2.39,1.84-6.89,5.18-12.89,10.62-17.6,2.71-2.35,5.79-4.03,9.34-4.76.6-.12,1.21-.18,1.91-.28ZM6.83,15.05c3.98-.14,10.88-4.51,11.7-7.37-.17-.02-.33-.05-.49-.05-3.54,0-7.07,0-10.61-.01-.48,0-.61.15-.61.62.02,1.93,0,3.85,0,5.78,0,.33,0,.67,0,1.04Zm31.61-4.55c-.06-.03-.13-.05-.19-.08-3.13,2.72-5.17,6.16-6.74,10.11.38,0,.6,0,.83,0,1.78,0,3.56-.02,5.33,0,.61.01.81-.17.81-.79-.03-2.9-.01-5.8-.01-8.7,0-.18-.02-.37-.03-.55Z"/>
      <path d="m48.06,30.71V.02h.72c9.17,0,18.35,0,27.52-.02.66,0,.81.18.8.82-.02,8.43-.01,16.86-.01,25.3,0,.89,0,.89-.9.89-1.84,0-3.69-.04-5.53-.02-.53,0-.69-.17-.68-.69.02-5.57.01-11.14.01-16.72,0-.28-.03-.56-.05-.84-.05,0-.11-.01-.16-.02-.21.65-.4,1.3-.62,1.94-2.04,5.96-5.22,11.17-10.08,15.26-2.62,2.21-5.58,3.81-8.96,4.54-.58.13-1.17.19-1.76.28-.08.01-.16-.02-.3-.03Zm6.99-11.53c.08.02.15.05.23.07,4.08-2.87,6.22-6.93,7.2-11.82-.28-.02-.49-.05-.69-.05-2.01,0-4.02.02-6.04-.01-.55,0-.72.15-.72.72.03,3.49.01,6.99.01,10.48v.61Z"/>
      <path d="m139.74,9.95c1.4,0,2.61,1.25,2.6,2.67-.01,1.44-1.21,2.64-2.63,2.64-1.41,0-2.63-1.22-2.63-2.64,0-1.46,1.21-2.68,2.66-2.67Zm1.83,2.67c.01-1-.85-1.88-1.83-1.89-.99-.01-1.86.83-1.89,1.83-.03,1.01.86,1.93,1.87,1.93.99,0,1.85-.87,1.86-1.87Z"/>
      <path d="m140.71,13.84c-.47.12-.9.15-.97-.75-.13.3-.14.42-.21.47-.16.12-.35.3-.52.29-.12,0-.33-.26-.34-.42-.04-.55-.03-1.1-.01-1.65,0-.13.1-.38.15-.38.62.02,1.29-.07,1.83.17.51.22.35.79.1,1.28-.13.25-.02.62-.02.98Z"/>
    </g>
  </g>
</svg>