<?xml version="1.0" encoding="UTF-8"?>
<svg id="Capa_2" data-name="Capa 2" xmlns="http://www.w3.org/2000/svg" viewBox="0 0 133.11 82.51">
  <g id="Capa_1-2" data-name="Capa 1">
    <g>
      <path d="m66.74,25.81c-1.66,7.34-3.32,14.68-5.03,22.23h-8.14c-.03-.06-.14-.15-.12-.21.03-.09.15-.15.22-.24.11-.15.21-.3.4-.59h-2.47c-.74,3.85-2.97,7.1-6.18,9.38-3.19,2.26-7.9,2.78-11.36-.14-.14-.12-.4-.09-.62-.13-1.52,1.54-.62,3.69-1.26,5.31-.76,1.94-.21,3.82-.7,5.94-2.99-.22-6.08.49-9.02-.97.68-4.93,1.69-9.84,1.77-14.87-1.16,2.64-2.87,4.6-5.65,5.44-1.37.41-2.75.94-4.15,1.09-2.56.27-5.11-.03-7.64-.61-3.99-.91-6.69-4.42-6.77-9.1h6.87c.49,1.14,1.05,2.43,1.6,3.72h5.77c.66-.66,1.36-1.36,2.06-2.06-.01-2.03,0-2.04-1.52-2.47-1.87-.53-3.7-1.17-5.59-1.63-2.13-.52-3.83-1.64-5.24-3.28-.36-.42-.77-.78-1.25-1.26v-5.2c.26-.64.43-1.12.66-1.57,1.3-2.56,3.9-4.11,6.8-4.94,2.25-.65,4.47-.73,6.67-.53,4.86.44,8.47,3.69,8.85,9.03h-6.28c-.72-.88-1.58-1.91-2.52-3.05h-3.94c-.86.78-1.67,1.51-2.49,2.25.28.93.7,1.42,1.72,1.66,2.07.49,4.04,1.55,6.13,1.85,2.41.34,3.73,1.96,5.14,3.5.57.62.75,1.67.91,2.56.15.82.03,1.68.53,2.56.93-6.57,1.85-13.13,2.77-19.69h7.13c.1.66.19,1.27.31,2.02,2.01-.52,3.57-1.73,5.48-2.22,3.84-.99,7.31.08,9.54,3.38,1.4,2.07,2.15,4.24,1.99,6.78-.13,2.07-.03,4.15-.03,6.59,2.37-1.71,4.52-3.25,6.25-4.5,3.14-13.92,6.15-27.32,9.26-41.13-.05.04.28-.25.78-.71.11.65.19,1.21.3,1.84.32.12.7.26,1.08.39.27,2.97.41,5.96.85,8.9.28,1.89.39,3.81.73,5.65.35,1.91.11,3.91.66,5.64.56,1.73.1,3.46.63,5.01.53,1.59.46,3.13.6,4.7.12,1.35.45,2.67.63,4.02.18,1.34.04,2.65.54,4.06.58,1.6.43,3.52.65,5.3.28,2.19.5,4.39,1.15,7.15.31-2.11,1.1-3.5,1.02-5.2-.05-.97.49-1.97.84-3.22,1.6.23,3.21.68,4.85,1.27,1.66.59,3.5.68,4.67,2.25q-1.89,1.1-4.89,1.16c-.95,5.5-2.22,10.95-3.24,16.45-1.01,5.41-2.12,10.79-3.23,16.39-.1.12-.39.44-.68.76-.19-.19-.34-.34-.58-.58-.26.15-.55.31-.85.48-.08-.19-.25-.39-.22-.56.45-3.26-.62-6.4-.81-9.61-.1-1.74-.15-3.64-.62-5.31-.47-1.7-.21-3.42-.65-5.01-.52-1.91-.14-3.9-.69-5.65-.57-1.83-.04-3.73-.65-5.33-.7-1.83-.02-3.73-.66-5.33-.69-1.72-.36-3.37-.57-5.04-.14-1.13-.43-2.24-.64-3.36-.19-1.02.49-2.19-.53-3.08-.12-.11-.15-.4-.12-.6.44-2.6-.8-5.02-1.17-7.71Zm-26.06,23.99c.52-.82,1.22-1.53,1.46-2.38.71-2.5,1.54-4.97,1.4-7.66-.09-1.67-.38-3.11-1.88-4.17-1.07.3-2.15.6-3.29.92l-3.54,3.54c.37,1.64-.33,3.25-.48,4.9-.15,1.67-.36,3.32-.8,4.81,2.36,2.75,4.71,1.76,7.12.04Z"/>
      <path d="m117.73,46.26c-.79.76-1.58,1.52-2.35,2.27.17,1.54-.92,2.78-.74,4.38.16,1.39-.39,2.86-.67,4.54-2.75-.13-5.51.39-8.42-.92.24-1.21-.77-2.7.55-4.03.11-.11.02-.42.04-.64.22-2.54.49-5.09.64-7.64.07-1.27.92-2.31.75-3.69-.14-1.06.31-2.2.51-3.43h-4.39c-1.28.81-2.76,1.75-4.21,2.67-.42,3.56-.6,6.94-1.29,10.22-.44,2.12-.52,4.21-.62,6.33-.02.34-.52.66-.92,1.13-2.41-.27-5.01.57-7.54-.91-.15-1.49-.09-2.97.52-4.53.57-1.45-.57-3.23.59-4.7.11-.14.11-.4.13-.6.22-2.43.41-4.87.68-7.3.13-1.13.44-2.23.64-3.35.2-1.12-.35-2.28.58-3.41.43-.52.07-1.69.07-2.82,1.15-.03,2.32-.08,3.48-.09,1.19-.02,2.39,0,3.63,0,.11.71.2,1.32.32,2.11.88-.37,1.81-.5,2.31-1.03,1.66-1.75,3.66-1.97,5.97-1.65.08.57.17,1.18.27,1.84.23-.14.48-.21.5-.33.25-1.22.5-2.45.66-3.68.17-1.24.02-2.43.55-3.73.54-1.3.12-3,.12-4.69,2.45-1.48,5.12-.32,7.73-.82.12.71.21,1.31.31,1.91.33.08.63.16.93.23.02.16.09.34.03.46-.1.19-.43.35-.41.48.4,2.61-.65,5.07-.71,7.64-.03,1.34-.44,2.67-.62,4.01-.16,1.21.35,2.52-.8,3.95.67-.18,1.21-.17,1.35-.4,1.85-3,4.71-5.06,6.88-7.52h7.9c-.27.64-.46,1.08-.69,1.59.31.15.73.35,1.09.52-2.97,3.29-5.93,6.58-9,9.98,2.25,5.44,4.56,11.02,6.96,16.81-2.13,0-4.4.05-6.67-.01-2.07-.05-3.25-1.4-3.7-3.21-.67-2.69-1.97-5.13-2.78-7.75-.03-.09-.15-.16-.19-.2Z"/>
    </g>
  </g>
</svg>