<?xml version="1.0" encoding="UTF-8"?>
<svg id="Capa_2" data-name="Capa 2" xmlns="http://www.w3.org/2000/svg" viewBox="0 0 226.51 55.98">
  <g id="Capa_1-2" data-name="Capa 1">
    <g>
      <path d="m49.71,18.18c1.27-3.19,2.58-6.5,3.94-9.92,1.44-.4,2.81-1.37,4.5-1-1.2,2.41-2.08,4.91-3.05,7.38-1,2.53-1.83,5.12-2.68,7.7-.84,2.56-1.27,5.26-1.93,8.09-1.23,1.02-2.67,2.08-4.78,1.89.87-2.18.97-4.42,1.64-6.57.66-2.11,1.27-4.24,1.94-6.46-.25.03-.62-.05-.82.1-.77.6-1.75.5-2.59.86-1,.44-2.11.16-3.12.37-1.86.38-3.72.21-5.58.31-.71.04-1.4.29-2.24.47-1.2,3-2.07,6.21-2.84,9.42-1.41.93-2.89,1.51-4.45,1.9-.58-1.28.25-2.28.52-3.33.53-2.05,1.26-4.04,1.93-6.05.19-.56.46-1.09.73-1.72h-2.85c-.21.11-.42.22-.71.36-.05-.25-.16-.45-.1-.54.43-.62.66-1.43,1.55-1.63.18-.04.31-.29.52-.5h1.69c.92-.4,1.27-1.07,1.49-2.03.22-.96.87-1.81,1.24-2.74.7-1.78,1.32-3.59,2.29-5.26.11-.19.02-.5.02-.82,1.63-.67,3.11-1.53,5.02-1.19-1.95,3.81-3.67,7.59-5.13,11.74.97-.22,1.81.24,2.61-.37.17-.13.53-.02.8-.02h3.43c1.2,0,2.4.06,3.59-.02,1.09-.07,2.18-.27,3.42-.43Z"/>
      <path d="m31.07.63c0,.53,0,.8,0,1.08-.92,1.26-1.94,2.4-3.45,3.13-1.5-1-3.31-1.56-5.1-1.82-2.05-.3-4.16-.15-6.18.74-2.21.97-4,2.38-5.58,4.25-1.29,1.52-2.13,3.24-2.96,4.99-.72,1.51-1.08,3.15-1.57,4.74-.74,2.38-.67,4.81-.62,7.24.02,1.03.37,2,1.11,2.8.79.86,1.82,1.18,2.89,1.28,1.13.11,2.29.09,3.42,0,.7-.05,1.4-.28,2.07-.51,3.54-1.25,5.35-2.38,7.99-4.37.39-.29.85-.49,1.38-.79-.13.65-.22,1.13-.32,1.64-1.08,1.4-2.68,2.17-4.19,3.1-1.26.77-2.58,1.39-3.88,2.07-1.33.69-6.49,2.73-7.49,2.77-1.11.04-2.15.42-3.29.41-1.48-.02-2.64-.5-3.63-1.53-.3-.31-.61-.62-.94-.94,0-.14.03-.32-.03-.45-1.11-2.22-.48-4.61-.65-6.91.6-.66.18-1.52.44-2.27.25-.72.32-1.5.56-2.22.27-.81.68-1.57.96-2.38.32-.92.83-1.73,1.31-2.56.46-.79.83-1.63,1.32-2.38.49-.74,1.02-1.46,1.64-2.09,1.5-1.53,2.94-3.14,4.7-4.4,1.58-1.13,3.23-2.13,4.99-2.94,1.75-.81,3.57-1.39,5.51-1.71,1-.17,2.04-.04,2.96-.32,1.01-.31,2-.32,2.98-.25,1.22.09,2.42.38,3.68.6Z"/>
      <path d="m165.27,13.03c-.31.7-.6,1.35-.89,1.98-1.15,2.52-2.07,5.13-2.96,7.76-.58,1.7-.84,3.46-1.32,5.17-.22.78-.26,1.54-.29,2.24-.85,1.85-2.41,2.18-4.27,2.18.38-1.23.62-2.42,1.1-3.5.95-2.11,1.8-4.26,2.72-6.39,1.04-2.4,2.1-4.8,2.96-7.26.5-1.41,1.1-2.87,1.1-4.46,0-.6.26-1.19.43-1.9.93-.61,1.96-1.29,3-1.98h1c.14.19.39.38.45.61.57,2.21,1.45,4.3,2.32,6.39.78,1.86,1.62,3.7,2.62,5.44,1.33,2.33,2.5,4.73,3.7,7.12.07.14.23.23.44.45,2.25-6.2,4.47-12.35,6.75-18.63,1.22-.48,2.43-1.53,4.26-1.35-4.29,7.71-7.85,15.53-9.86,24.22-.72.43-1.64.99-2.57,1.55h-.97c-.15-.15-.44-.32-.43-.46.09-.89-.88-1.43-.72-2.33-1.52-3.13-2.93-6.31-4.62-9.35-.74-1.33-1.4-2.7-2.17-4.01-.6-1.04-.95-2.22-1.42-3.33-.03-.07-.17-.09-.38-.19Z"/>
      <path d="m133.8,8.85c1.12-.8,2.36-1.58,3.69-2,.99.14.49,1.17,1.08,1.49.04,1.26.77,2.3,1.19,3.43.39,1.08.79,2.17,1.4,3.18.46.76.57,1.74,1.03,2.51,1.7,2.88,3.18,5.85,4.59,8.88.09.19.3.31.56.57,2.36-6.16,4.49-12.35,6.72-18.63,1.29-.58,2.6-1.58,4.41-1.37-2.29,3.75-4.22,7.65-5.84,11.69-1.62,4.04-3.21,8.08-4.01,12.38q-2.42,1.67-3.84,1.69c-.13-.38-.26-.82-.43-1.23-.84-1.94-1.64-3.9-2.55-5.8-.89-1.87-1.92-3.67-2.86-5.51-.51-.99-1.2-1.94-1.55-2.94-.51-1.45-1.39-2.68-1.9-4.28-1.7,2.85-2.75,5.81-3.73,8.77-1,3.01-1.97,6.05-2.04,9.34-1.26.73-2.53,1.51-4.26,1.3.51-1.43.97-2.8,1.49-4.15.3-.8.79-1.54,1-2.36.22-.84.89-1.51.84-2.43.88-1.26,1.25-2.75,1.84-4.14.83-1.94,1.66-3.89,2.3-5.9.21-.68.3-1.4.43-2.11.15-.76.29-1.52.46-2.37Z"/>
      <path d="m86.62,32.76c0-.39-.08-.64.01-.8.8-1.42,1.09-3.04,1.79-4.49.79-1.65,1.22-3.42,1.74-5.15.19-.62.1-1.4-.17-2.17-1.47-4.18-2.8-6.23-4.32-8.5-.58-.86-1.22-1.67-1.86-2.48-.07-.09-.28-.07-.44-.1v-.79c1.41-.44,2.75-1.28,4.36-1.07,2.77,3.51,4.72,7.44,5.96,11.76.45.14.36-.31.53-.54.44-.59.99-1.07,1.4-1.7.64-.97,1.51-1.78,2.27-2.66.7-.8,1.4-1.6,2.08-2.41.68-.81,1.68-1.35,2.08-2.4.6-.05.72-.7,1.21-.94.46-.22.78-.74,1.1-1.06h3.18c-.02.69-.49.99-.92,1.23-.92.52-1.67,1.25-2.49,1.9-1.64,1.32-3.08,2.83-4.58,4.29-1.21,1.18-2.3,2.47-3.24,3.88-.47.7-1.29,1.09-1.63,1.94-.23.58-.76,1.58-.88,2.09-.08.34-.22.67-.32,1.01-.49,1.71-1.08,3.39-1.33,5.17-.1.69-.37,1.37-.65,2.01-.14.32-.43.67-.74.82-1.28.62-2.66.93-4.15,1.15Z"/>
      <path d="m206.29,18.57c-.29.23-.6.42-.86.68-.98.99-2.18,1.31-3.53,1.35-.77.02-1.54.25-2.32.3-.81.05-1.71-.2-2.43.06-.99.37-1.99.14-2.95.33-.98,1.14-1.16,2.6-1.71,3.9-.22.51-.29,1.08-.5,1.59-.43,1.03-.65,2.08-.4,3.28,2.05,0,4.13.19,6.15-.07,1.38-.18,2.75-.16,4.12-.28.81-.07,1.6-.33,2.4-.49.4-.08.8-.12,1.37-.2-.43,1.42-1.6,1.73-2.51,2.26-1.8.26-3.56.73-5.38.88-1.78.15-3.56.36-5.34.47-1.89.12-3.8.03-5.71.03-.36-1.5.27-2.81.64-4.12.53-1.84,1.19-3.66,1.95-5.39.64-1.47,1.16-3,1.85-4.47.72-1.55,1.41-3.12,2.17-4.65.13-.27.16-.59.25-.92,1.28-.92,2.76-1.42,4.51-1.74-.09.43-.09.78-.23,1.07-.71,1.5-1.46,2.99-2.18,4.49-.3.62-.56,1.26-.9,2.02,1.36,0,2.65.04,3.94-.01,1.21-.05,2.42-.21,3.62-.31,1.26-.11,2.55.31,3.76-.4l.21.34Z"/>
      <path d="m76.49,29.26c-.58.58-1.15,1.15-1.76,1.76-.67.14-1.49.11-2.04.48-.63.44-1.45-.2-1.92.53-.02.03-.1,0-.16,0-1.32.11-2.63.22-3.95.33s-2.63.26-3.95.31c-1.3.05-2.61.01-3.92.01h-1.09c-.64-.44-.59-.99-.39-1.58.73-2.2,1.38-4.43,2.2-6.6.51-1.36,1.05-2.72,1.64-4.05.92-2.12,1.71-4.31,2.9-6.31.07-.12,0-.32,0-.51,1.17-1.72,3.07-1.78,5.05-2.27-1.25,2.63-2.38,5.02-3.61,7.6,1.79,0,3.4.24,4.9-.06,1.67-.34,3.3-.14,4.94-.26.27-.02.55.03.81-.01.21-.03.4-.16.77-.32-.29.73-.64,1.05-1.2,1.34-1.07.55-2.16.82-3.36,1-1.49.23-2.99.08-4.43.33-1.04.18-2.08.22-3.22.28-1.11,2.83-2.23,5.64-2.68,8.82,2.5-.17,4.87.04,7.28-.26,2.33-.28,4.71-.23,7.15-.57Z"/>
      <path d="m115.79,11.41c-1.17,2.59-2.27,5-3.44,7.57,1.96-.22,3.78.15,5.66-.28,1.77-.4,3.68.13,5.58-.26-.29.98-1.1,1.45-1.87,1.79-.69.3-1.52.26-2.3.37-.83.11-1.65.26-2.48.32-.81.05-1.71-.2-2.43.06-1,.36-1.98.16-2.93.31-1.22,2.66-2.04,5.41-2.71,8.29.16.35.48.52.97.51,1.69-.03,3.4.17,5.05-.06,1.54-.22,3.07-.25,4.61-.27.78-.67,1.87,0,2.69-.63.2-.15.62-.02,1.01-.02-.48,1.14-1.16,1.72-2.34,2.01-1.6.39-3.16.88-4.83.95-.72.03-1.43.25-2.15.3-.76.05-1.57-.15-2.28.04-2.39.64-4.81.07-7.14.33-.22-.22-.37-.37-.57-.57.47-1.62.87-3.31,1.45-4.92,1-2.79,2.07-5.56,3.32-8.25.74-1.6,1.55-3.18,2.1-4.84.51-1.52,1.77-1.86,2.97-2.34.59-.24,1.27-.24,2.05-.38Z"/>
      <path d="m178.69,41.13H37.02c0-.06-.02-.11-.03-.17.26-.04.52-.11.78-.11,7.19,0,14.37,0,21.56,0,4.51-.68,9.06-.23,13.58-.31,4.63-.08,9.25-.02,13.88-.02h55.2c4.57,0,9.15,0,13.72,0,1.49,0,2.93.46,4.44.35,1.52-.11,3.05-.02,4.57-.02h9.15c1.52,0,3.05,0,4.57,0,.09,0,.19.07.28.11,0,.05-.02.11-.02.16Z"/>
      <path d="m111.45,8.83v-.49c.58-.39,1.22-.49,1.92-.51,1.04-.03,2.08-.24,3.13-.29,1.14-.05,2.28-.01,3.42-.01s2.22.2,3.25-.04c1.87-.44,3.72-.18,5.58-.28.2-.01.41,0,.73,0-.77.63-1.27,1.35-2.13,1.63-.48,0-.97.05-1.44-.02-.43-.06-.84-.25-1.29-.39-.07.3-.1.45-.13.6-.09.04-.17.12-.27.13-2.84.12-5.67.21-8.51.34-.34.02-.66.26-1.01.3-.43.05-.87.01-1.3.01-.38,0-.76-.02-1.14,0-.37.03-.83.28-1.09.15-.44-.23-.59.45-.95.18-.07-.05-.2-.04-.3-.06q.46-.96,1.61-1.33s-.03.03-.09.08c.01.19.03.39.05.65.23-.02.41-.03.62-.04-.2-.31-.35-.54-.66-.61Z"/>
      <path d="m64.43,10.14c-.41-.41-.66-.66-.89-.89.63-.18.87-1.11,1.71-1.13.23,0,.46-.23.7-.26,1.1-.13,2.19-.27,3.29-.32,1.14-.05,2.29-.01,3.43-.01,1.42,0,2.83-.02,4.25,0,1.06.02,2.04-.5,3.13-.36.63.08,1.19.18,1.74.69-.19.23-.39.45-.62.72-.45-.13-.88-.26-1.48-.44.18.28.27.42.39.61-.78.14-1.53.33-2.29.4-.76.07-1.53-.02-2.28.02-1.15.07-2.3.25-3.46.31-1.2.05-2.48-.25-3.57.09-1.07.33-2.2-.06-3.2.56-.23.15-.64.02-.86.02Z"/>
      <path d="m193.79,8.83v-.75c.39.16.64.26.88.36.06-.16.13-.35.23-.59.81,0,1.65,0,2.51.02q.4.32.94.02c-.37,0-.67,0-.94-.02-.02-.47.32-.34.56-.34,2.22,0,4.45-.1,6.67.02,1.72.09,3.37-.49,5.07-.36.32.02.64,0,.91,0,.16.16.28.28.42.42-.1.24-.21.49-.32.74-.86.23-1.74.47-2.62.69-.2.05-.4.09-.61.1-.27.02-.54.03-.81,0-2.52-.23-5,.35-7.51.34-.28,0-.56.2-.88.33-.15-.1-.31-.22-.48-.34-1.16.58-2.4.24-3.61.31-.13,0-.28-.2-.42-.31h.56c.25-.74-.2-.65-.56-.65Z"/>
      <path d="m118.63,49.62v5.38c-.41-.21-.71-.35-1.02-.51.13-.14.2-.22.26-.29-.34-1.48-.31-2.95,0-4.47h-6.03v5.1c-.26.04-.41.06-.67.09v-5.23h-2.4c-.25-.22-.41-.36-.69-.6h13.43l.14.13c-.21.04-.41.09-.62.13.07.08.13.17.2.25h-2.58Z"/>
      <path d="m220.28,6.83c.62.04,1.46-.05,2.21.18,2.18.66,3.19,1.66,3.84,3.84.44,1.47,0,2.85-.89,4.08-.85,1.16-2.18,1.54-3.4,2.03-.54.22-1.2-.03-1.82-.26-.94-.34-1.78-.73-2.51-1.42-1.8-1.7-1.82-4.93-.01-6.71.72-.71,1.55-1.21,2.58-1.75Zm-3.23,6.52c1.82,4.24,7.33,3.89,8.77-.2.47-4.01-2.04-6.17-5.39-5.64-3.04,1.07-3.71,3.15-3.38,5.84Z"/>
      <path d="m157.05,54.7c.55.25.96.44,1.56.71-.33.07-.6.13-.87.19.07.13.14.25.21.38-.56-.34-1.12-.69-1.78-1.09-1.41.76-2.75.24-4.15-.85-.14-.28-.4-.77-.69-1.35q-.03-1.86,1.66-3.55c.6-.15,1.19-.4,1.78-.41.6-.02,1.21.19,1.99.33.53.59,1.16,1.27,1.66,1.82.28,1.67-.17,2.88-1.38,3.83Zm-.38-.73c.27-.27.48-.44.64-.65.76-1.01.76-1.87-.08-2.77-.45-.48-1.04-.84-1.39-1.12-1.33-.3-2.24.21-3.09.64-.28.55-.53,1.04-.74,1.44.13.57.25,1.07.39,1.68.28.29.66.67,1.04,1.06.72-.14,1.34.7,2.09.19.12-.12.23-.23.41-.41-.33-.18-.65-.32-.93-.53-.09-.06-.08-.28-.14-.54.31-.01.57-.03.95-.04.25.3.55.67.85,1.04Z"/>
      <path d="m186.22,54.87h-.61v-5.15c-.96,1.93-1.47,3.7-2.36,5.26-.91-.28-1.02-.93-1.21-1.49-.44-1.25-1.06-2.4-1.85-3.5.41,1.45.14,2.92.23,4.37-.21.14-.42.28-.61.4v-5.71h.94c.69,1.51,1.39,3.05,2.2,4.8,1.03-1.61,1.63-3.17,2.15-4.8h1.14v5.82Z"/>
      <path d="m15.38,50.05v1.54c-.5.27-1.03.56-1.61.87.53.75,1.07,1.53,1.66,2.39h-.84c-.62-.83-1.27-1.7-1.87-2.51h-2.12c-.16.16-.28.28-.39.39.8.76-.7,1.36.18,2.12-.47.02-.62.03-.83.04v-5.83h5.05c.17.22.43.56.77.99Zm-1.05-.32h-4.25c.17.41.3.72.43,1.03-.12.14-.23.25-.36.4.16.13.32.26.54.44h3.59c.67-.61.62-1.21.05-1.87Z"/>
      <path d="m196.43,50.05c.06.21.14.42.16.64.02.19-.13.45-.05.56.32.45.3.92.05,1.33-.4.65-.11,1.18.2,1.82-.28.2-.56.39-.97.68v-6.01h1.11c.7.7,1.53,1.47,2.29,2.3.71.79,1.15,1.86,2.28,2.28.25-2.67.21-3.64-.24-4.58.34-.02.63-.04.98-.05v5.86c-.23.01-.48.02-.75.04-1.71-1.52-2.88-3.57-5.07-4.87Z"/>
      <path d="m121.91,50.89c1.16-2.51,4.77-2.98,6.78-.47q.35,1.61.08,2.96c-.67.92-1.58,1.45-2.67,1.76-1.3.36-3.31-.5-3.9-1.74-.13-.27-.26-.57-.28-.86-.04-.54-.01-1.09-.01-1.65Zm6.2-.07c-1.62-2.34-4.71-1.68-5.6.53.13.63.29,1.47.46,2.28.64.33,1.18.61,1.93.99.55-.1,1.31-.24,2.04-.37.41-.4.8-.78,1.18-1.14v-2.3Z"/>
      <path d="m41.09,50.18c.15.39.28.72.4,1.06,1.32.17,2.56.34,3.86.51.25.19.58.43,1.03.77v1.62c-1.96,1.59-4.44,1.44-6.13-.4.12-.12.23-.23.46-.46.33.33.68.67,1.02,1.01,1.25.56,2.46.33,3.63-.15.26-.1.37-.57.59-.95-.4-.29-.71-.51-1.14-.83-.98-.12-2.17-.27-3.53-.44-.13-.18-.35-.49-.7-.96v-1.19c.18-.12.49-.33,1.07-.73.27-.06.92-.31,1.57-.31.66,0,1.31.22,2.17.38.16.16.45.47.75.78-.06.17-.12.31-.21.56-1.49-1.25-3.03-1.65-4.84-.27Z"/>
      <path d="m59.89,54.02c-.21-.4-.41-.81-.68-1.32-.38-1.18.3-2.18,1.13-3.28,1.35-.64,1.63-.55,4.3-.37.56.64,1.15,1.31,1.58,1.8.48,1.9-.39,2.99-1.73,4.04-.68.1-1.58.42-2.41.29-.75-.12-1.59-.37-2.21-1.16Zm3.79.56c.54-.45,1.15-.95,1.51-1.25.24-.67.38-1.05.47-1.31-.14-.48-.26-.86-.42-1.42-.49-.37-1.11-.84-1.55-1.16-1.33-.3-2.24.22-2.96.58-.37.49-.62.82-.9,1.19-.29,1,.37,1.81.73,2.62.51.25.96.48,1.52.76h1.58Z"/>
      <path d="m23.89,51.13c0,.25,0,.69,0,1.12.01.94-.22,1.64-1.2,2.11-1.06.51-1.62.92-2.25.86-.98-.09-1.9-.39-2.66-1.05-.25-.21-.46-.46-.62-.62-.14-.58-.25-1.08-.45-1.9,0,.3-.02.22,0,.19.44-.37.3-.87.32-1.32.93-1.19,2.17-1.89,3.65-1.79,1.36.09,2.56.7,3.22,2.39Zm-6.21-.28v2.24c.39.4.77.79,1.14,1.17.78.14,1.54.28,2.08.37.71-.37,1.2-.62,1.4-.72.74-.99,1.15-1.82.84-2.75-.28-1.39-1.41-1.59-2.48-1.79-1.32-.25-2.19.55-2.98,1.48Z"/>
      <path d="m68.99,50.06v4.81h-.61v-5.81c.29-.02.65-.04,1.1-.07,1.37,1.52,2.76,3.07,4.32,4.8.14-1.69.02-3.18.09-4.69.16-.04.31-.07.59-.14.1,1.98.02,3.9.06,5.88h-.89c-.05-.13-.06-.37-.19-.51-1.26-1.39-2.53-2.77-3.81-4.14-.1-.1-.26-.14-.4-.2-.04-.02-.1.02-.26.05Z"/>
      <path d="m48.41,51.09v-1.29c.24-.21.52-.46.9-.78.74-.1,1.63-.34,2.49-.29.61.04,1.22.46,1.79.76.2.11.29.4.55.76-.37,0-.6.07-.73-.01-.44-.27-.84-.6-1.25-.9h-1.9c-.41.24-.76.45-.98.58-.39.39-.19,1.23.23,1.33.7.17,1.43.38,2.13.34,1.12-.06,1.94.36,2.63,1.19v1.29c-1.85,1.56-4.42,1.59-6.17-.37.12-.12.23-.23.42-.42.78.84,1.76,1.3,2.94,1.28.7,0,1.3-.29,1.88-.59.21-.11.24-.53.37-.84-.36-.28-.66-.51-1.11-.87-.41,0-1.15.2-1.68-.05-.59-.28-1.12-.22-1.74-.28-.23-.25-.48-.53-.78-.86Z"/>
      <path d="m130.08,53.2c0-.69,0-1.18,0-1.67-.02-1.06.48-1.73,1.43-2.19,1.61-.78,2.27-.78,3.79-.19,1.4.54,1.49,1.83,1.93,2.94-.51.94-.53,2.22-1.86,2.61-.68.2-1.32.67-2.06.52-.69-.14-1.41-.31-2-.67-.5-.31-.83-.89-1.23-1.35Zm.7-2.28c-.1,1.1-.2,2.09.53,2.71.59.51,1.32,1.03,2.2.94,2.2-.21,3.1-1.23,2.73-3.89-.56-.42-1.18-.9-1.7-1.3h-2.22c-.51.51-1.08,1.08-1.54,1.53Z"/>
      <path d="m77.41,53.66c-.12.39-.24.77-.39,1.25-.25-.01-.55-.02-1.02-.05,1.16-1.8,2-3.56,2.8-5.35.17-.39.58-.63,1.16-.47,1.37,1.64,2.04,3.74,3.12,5.57-.33.5-.59.29-.8.02-.34-.45-.65-.93-.88-1.28-1.32.48-2.56.1-3.99.3Zm.74-1.1h3c-.5-1.05-.85-2.05-1.56-2.89-.5,1-.96,1.92-1.45,2.89Z"/>
      <path d="m103.17,53.62c-.66.35-.52,1.48-1.55,1.19,1.04-1.99,2.04-3.91,3.03-5.79h.91c.99,1.82,2.03,3.72,3.04,5.57-.36.52-.62.31-.82.04-.34-.45-.65-.93-.88-1.27-1.32.47-2.56.1-3.72.26Zm.44-.98c1.03-.09,2.01.11,3.1-.17-.58-1.01-1.09-1.9-1.61-2.8-.5,1-.96,1.92-1.48,2.97Z"/>
      <path d="m177.02,49.08c.28.28.51.51.75.75v1.69c-.24.19-.53.43-.97.78h-3.92v2.74c-.42-.23-.67-.36-.96-.52.82-.93-.15-1.76-.04-2.65.1-.9.02-1.82.02-2.79h5.12Zm-.37,2.54c.65-.44.51-1,.41-1.51-.17-.17-.29-.29-.39-.39h-3.73v1.9h3.71Z"/>
      <path d="m188.62,49.05h5.07c.05.06.1.11.15.17-.24.07-.49.15-.73.22.07.09.14.18.21.27h-4.07v1.92h3.86v.61h-3.81v1.97h4.29c.21.21.36.36.62.62-1.91.14-3.72.03-5.59.08v-5.86Z"/>
      <path d="m33.41,54.9v-5.85h5.4c.17.37-.35.33-.28.64h-4.47v1.91h3.8c.03.25.05.4.09.72-.34-.11-.6-.18-.9-.28-.05.04-.16.15-.25.23-.47-.09-1.09-.41-1.31-.23-.46.38-.93.14-1.42.32v1.84c.71.14,1.51.03,2.3.05.81.02,1.62,0,2.46,0,.04.18.07.33.13.59-.29.02-.54.06-.79.06-1.61,0-3.21,0-4.77,0Z"/>
      <path d="m144.51,49.05h5.11c.03.17.05.32.1.58h-4.56v1.97h3.8c.04.08.08.16.12.24-.2.05-.4.11-.79.21.19.14.1.07-.04-.03-.18.08-.5.3-.58.24-.64-.51-1.49.52-2.06-.29-.87.58-.35,1.44-.54,2.24h4.41c.21.21.36.36.63.63-1.93.11-3.74.03-5.61.06v-5.86Z"/>
      <path d="m2.05,49.06h5.05c.17.22.43.56.77.99v1.43c-.27.27-.54.54-.81.81-1.3,0-2.6,0-3.94,0-.12.14-.26.3-.47.54.1.46-.24,1.07.35,1.61-.29.18-.56.35-.95.59v-5.98Zm5.17,1.07c-.87-.53-2.5-.62-4.52-.3v1.78h4.07c.14-.14.29-.29.45-.45v-1.03Z"/>
      <path d="m26.67,54.96c-.26-.14-.52-.28-.85-.46.16-.82-.3-1.69.23-2.31-.1-.99-.18-1.86-.28-2.86.44-.12.77-.29,1.11-.3,1.46-.03,2.93-.01,4.42-.01.04.17.08.31.12.45-.1.08-.18.2-.26.2-1.41.01-2.81,0-4.28,0v1.92c.56.01,1.19.03,1.82.03.64,0,1.29,0,1.98,0q-.6.74-1.37.35c-.69.43-1.36.46-2.04,0-.92.81-.15,1.96-.6,2.97Z"/>
      <path d="m165.75,49.06h.55v4.46c-1.24,2.5-5.1,2.09-6.16-.12v-4.31c.22-.02.37-.04.51-.05.06.11.14.2.14.3,0,.87.05,1.74,0,2.61-.08,1.22.25,2.16,1.7,2.63q2.27.02,3.27-1.56v-3.96Z"/>
      <path d="m102.65,49.08c-.5.23-.68.32-.87.41.04.05.07.11.11.16h-2.51v5.37c-.42-.21-.67-.33-.91-.45.44-1.17.2-2.33.21-3.47,0-.48-.25-.97-.39-1.48h-2.49v-.55h6.86Z"/>
      <path d="m210.19,49.68h-2.99v5.19h-.65v-5.18h-2.4c-.24-.21-.4-.35-.67-.59h6.59c.02.11.05.26.12.58Z"/>
      <path d="m90.19,54.25v.6h-5.42s-.03-.02-.06-.06c-.03-.04-.05-.09-.05-.14,0-1.84,0-3.68,0-5.55.19-.04.34-.07.6-.12v5.27h4.92Z"/>
      <path d="m56.29,49.05h.87v5.94c-.35-.17-.6-.3-.87-.44v-5.5Z"/>
      <path d="m169.56,54.87h-.55v-5.82h.55v5.82Z"/>
      <path d="m193.79,9.49h-.54c-.05.17-.1.35-.17.59h-.84c-.02-.06-.06-.13-.05-.13.53-.37.75-1.19,1.59-1.11v.65Z"/>
      <path d="m221.44,11.95c-.48.2-.81.33-1.15.48v2.18c-.19.05-.34.09-.49.13q-.59-2.73-.19-3.75c-.1-.11-.21-.23-.2-.22.08-.45.1-.8.2-1.13.09-.29.25-.55.38-.81.62,0,1.17-.05,1.7.02.45.06.88.25,1.45.43.15.15.42.42.7.71v1.35c-.39.26-.82.55-1.26.84.41.82.81,1.61,1.26,2.49-.28.02-.58.03-.91.06-.48-.9-.94-1.75-1.49-2.78Zm1.11-2.38h-2.24v1.37c.22.46.33.71.37.78.85-.15,1.49-.27,2.12-.38.11-.24.21-.47.33-.74-.16-.28-.35-.63-.58-1.04Z"/>
    </g>
  </g>
</svg>