<?xml version="1.0" encoding="UTF-8"?>
<svg id="Capa_2" data-name="Capa 2" xmlns="http://www.w3.org/2000/svg" viewBox="0 0 186.52 19.68">
  <defs>
    <style>
      .cls-1 {
        fill: #1d1d1b;
      }
    </style>
  </defs>
  <g id="Capa_1-2" data-name="Capa 1">
    <g>
      <path class="cls-1" d="m0,19.3v-10.27c9.57,0,19-.13,28.43.08,2.92.07,4.3,2.14,4.26,5.23-.04,3.33-2.08,4.63-4.79,4.78-4.93.28-9.88.15-14.82.17-4.24.02-8.49,0-13.08,0Zm8.2-5.98v.84h14.87c0-.28-.02-.56-.02-.84h-14.84Z"/>
      <path class="cls-1" d="m81.52,9.2c-1.07,5.06,1.54,5.87,5.6,5.49,3.18-.29,6.43-.28,9.61,0,3.96.34,6.31-.64,5.38-5.45h7.72c2.37,7.37.5,10.01-7.32,10.05-6.81.04-13.62.02-20.44,0-8.63-.02-9.7-1.25-8.56-10.1h8.02Z"/>
      <path class="cls-1" d="m45,13.43c-.14,2.21-.24,3.78-.36,5.6h-7.7c-.12-.74-.29-1.37-.3-2.01-.03-2.52-.01-5.04-.01-7.82h32.15c.24.31.48.62.72.92-1.59,1.23-3.17,2.45-5.15,3.99,1.11,1.2,2.58,2.79,4.44,4.8-4.47.48-8.48,1.54-11.41-2.62-3.23-4.58-7.87-2.47-12.37-2.86Z"/>
      <path class="cls-1" d="m149.57,9.11h7.34q1.34,5.52,7.4,5.52c7.2,0,14.39,0,21.89,0,.11,1.53.19,2.79.32,4.67-3.68,0-7.1,0-10.52,0-5.75,0-11.49,0-17.24,0-9.3,0-9.8-.53-9.19-10.19Z"/>
      <path class="cls-1" d="m110.15,5.81h-36.61c-1.21-3.8.87-5.46,3.83-5.53,9.61-.23,19.22-.22,28.83-.02,2.98.06,5.06,1.68,3.95,5.55Z"/>
      <path class="cls-1" d="m186.13,5.88c-1.21.06-2.26.17-3.31.17-10.95.01-21.9,0-32.88,0-1.58-3.98.47-5.71,3.68-5.79,9.49-.22,18.99-.2,28.48-.02,3.02.06,5.15,1.57,4.03,5.64Z"/>
      <path class="cls-1" d="m124.09,8.35c4.82.71,8.68,1.28,12.82,1.89,1.4-3.43,5.11-.42,8.19-1.34v9.77c-10,2.57-14.23.64-21.01-10.31Z"/>
      <path class="cls-1" d="m32.48,5.38H.12V.12c5.39,0,10.84,0,16.28,0,3.75,0,7.51-.12,11.26.08,3.11.16,5.61,1.24,4.82,5.19Z"/>
      <path class="cls-1" d="m68.76,5.38h-31.85V.12c4.54,0,9.15,0,13.77,0,4.53,0,9.08-.12,13.6.06,4.1.16,5.01,1.43,4.48,5.2Z"/>
      <path class="cls-1" d="m122.54,19.15h-7.81v-10.01h7.81v10.01Z"/>
      <path class="cls-1" d="m130.45,5.81h-15.8V.17c5.82.4,12.31-2.44,15.8,5.64Z"/>
      <path class="cls-1" d="m145.22.34v5.37h-7.79V.34h7.79Z"/>
    </g>
  </g>
</svg>