<?xml version="1.0" encoding="UTF-8"?>
<svg id="Capa_2" data-name="Capa 2" xmlns="http://www.w3.org/2000/svg" viewBox="0 0 231.83 24.46">
  <defs>
    <style>
      .cls-1 {
        fill: #1d1d1b;
      }
    </style>
  </defs>
  <g id="Capa_1-2" data-name="Capa 1">
    <g>
      <path class="cls-1" d="m0,23.99v-12.76c11.89,0,23.61-.17,35.33.1,3.63.08,5.34,2.66,5.3,6.5-.05,4.14-2.59,5.75-5.96,5.94-6.13.34-12.28.19-18.42.21-5.27.02-10.55,0-16.25,0Zm10.2-7.43v1.04h18.48c0-.35-.02-.69-.03-1.04H10.2Z"/>
      <path class="cls-1" d="m101.33,11.43c-1.32,6.29,1.92,7.29,6.96,6.83,3.95-.36,7.99-.35,11.94,0,4.92.43,7.84-.8,6.68-6.77h9.6c2.95,9.16.63,12.44-9.1,12.49-8.47.05-16.93.02-25.4,0-10.73-.02-12.06-1.56-10.64-12.55h9.96Z"/>
      <path class="cls-1" d="m55.93,16.7c-.18,2.75-.3,4.7-.45,6.96h-9.57c-.14-.93-.36-1.71-.37-2.5-.04-3.13-.02-6.26-.02-9.71h39.96c.3.38.59.76.89,1.15-1.97,1.52-3.94,3.05-6.4,4.95,1.37,1.49,3.21,3.47,5.52,5.97-5.56.59-10.54,1.91-14.18-3.26-4.01-5.7-9.79-3.07-15.38-3.55Z"/>
      <path class="cls-1" d="m185.9,11.33h9.12q1.67,6.86,9.2,6.86c8.95,0,17.89,0,27.2,0,.13,1.9.24,3.47.4,5.8-4.58,0-8.83,0-13.08,0-7.14,0-14.28,0-21.43,0-11.56,0-12.17-.65-11.43-12.66Z"/>
      <path class="cls-1" d="m136.9,7.22h-45.5c-1.5-4.73,1.08-6.79,4.76-6.88,11.94-.28,23.89-.27,35.84-.02,3.71.08,6.29,2.08,4.91,6.9Z"/>
      <path class="cls-1" d="m231.34,7.3c-1.5.08-2.81.21-4.11.21-13.61.01-27.22,0-40.87,0-1.96-4.95.59-7.1,4.57-7.19,11.8-.28,23.61-.25,35.4-.03,3.75.07,6.41,1.96,5.01,7Z"/>
      <path class="cls-1" d="m154.24,10.38c6,.88,10.79,1.59,15.94,2.34,1.74-4.26,6.35-.53,10.18-1.67v12.14c-12.43,3.19-17.69.8-26.12-12.82Z"/>
      <path class="cls-1" d="m40.37,6.69H.15V.14c6.7,0,13.47,0,20.24,0,4.67,0,9.34-.15,13.99.1,3.86.2,6.98,1.54,5.99,6.45Z"/>
      <path class="cls-1" d="m85.46,6.69h-39.59V.14c5.64,0,11.38,0,17.11,0,5.64,0,11.28-.14,16.91.08,5.1.2,6.22,1.78,5.57,6.47Z"/>
      <path class="cls-1" d="m152.31,23.8h-9.7v-12.45h9.7v12.45Z"/>
      <path class="cls-1" d="m162.14,7.22h-19.63V.21c7.23.5,15.29-3.03,19.63,7.01Z"/>
      <path class="cls-1" d="m180.49.42v6.68h-9.68V.42h9.68Z"/>
    </g>
  </g>
</svg>