<?xml version="1.0" encoding="UTF-8"?>
<svg id="Capa_2" data-name="Capa 2" xmlns="http://www.w3.org/2000/svg" viewBox="0 0 264.61 65.4">
  <g id="Capa_1-2" data-name="Capa 1">
    <g>
      <path d="m58.07,21.24c1.48-3.72,3.02-7.6,4.6-11.59,1.69-.47,3.28-1.6,5.26-1.16-1.41,2.81-2.43,5.73-3.56,8.62-1.16,2.96-2.14,5.99-3.13,8.99-.98,2.99-1.49,6.14-2.26,9.45-1.44,1.19-3.12,2.43-5.58,2.21,1.01-2.54,1.13-5.17,1.91-7.67.77-2.47,1.49-4.96,2.27-7.55-.29.03-.73-.06-.95.12-.9.7-2.05.58-3.02,1.01-1.17.52-2.46.18-3.64.43-2.17.45-4.35.25-6.52.36-.83.04-1.64.33-2.62.55-1.4,3.5-2.42,7.26-3.32,11-1.64,1.08-3.38,1.77-5.2,2.22-.68-1.49.29-2.66.61-3.89.62-2.39,1.47-4.72,2.26-7.07.22-.65.53-1.27.85-2.01h-3.33c-.24.12-.5.25-.83.42-.06-.29-.19-.53-.12-.63.5-.73.77-1.67,1.82-1.91.21-.05.36-.34.61-.59h1.98c1.08-.46,1.49-1.25,1.74-2.37.26-1.12,1.02-2.11,1.45-3.2.82-2.08,1.54-4.2,2.67-6.14.13-.22.02-.59.02-.95,1.91-.78,3.63-1.78,5.86-1.39-2.28,4.45-4.29,8.87-5.99,13.71,1.14-.25,2.12.28,3.04-.43.2-.15.62-.02.94-.02h4c1.4,0,2.8.07,4.19-.02,1.28-.08,2.55-.32,4-.51Z"/>
      <path d="m36.3.74c0,.62,0,.94,0,1.26-1.07,1.47-2.27,2.8-4.03,3.66-1.75-1.17-3.87-1.82-5.96-2.13-2.4-.35-4.86-.17-7.22.86-2.58,1.13-4.68,2.79-6.52,4.96-1.5,1.78-2.49,3.78-3.46,5.83-.84,1.77-1.26,3.68-1.84,5.53-.87,2.78-.78,5.62-.72,8.46.03,1.21.44,2.33,1.3,3.27.92,1,2.13,1.38,3.38,1.5,1.32.13,2.67.1,4,0,.82-.06,1.63-.32,2.41-.6,4.14-1.46,6.25-2.78,9.33-5.1.46-.34.99-.57,1.61-.92-.15.76-.26,1.32-.37,1.92-1.26,1.64-3.13,2.54-4.9,3.62-1.47.9-3.02,1.62-4.54,2.42-1.55.81-7.58,3.19-8.75,3.23-1.3.05-2.52.5-3.85.47-1.72-.03-3.08-.58-4.24-1.79-.35-.37-.72-.72-1.1-1.1,0-.16.04-.37-.04-.53-1.3-2.6-.56-5.38-.75-8.08.7-.78.21-1.78.51-2.65.29-.84.37-1.75.65-2.59.31-.94.79-1.84,1.12-2.78.38-1.07.97-2.02,1.53-2.99.53-.92.97-1.9,1.55-2.79.57-.86,1.2-1.71,1.92-2.44,1.76-1.79,3.43-3.67,5.49-5.14,1.84-1.32,3.78-2.48,5.82-3.43,2.05-.95,4.17-1.62,6.43-2,1.17-.19,2.38-.04,3.46-.37,1.18-.36,2.33-.38,3.48-.29,1.42.11,2.83.45,4.3.7Z"/>
      <path d="m193.07,15.22c-.37.82-.7,1.57-1.03,2.32-1.34,2.95-2.41,6-3.46,9.06-.68,1.98-.98,4.04-1.54,6.04-.26.91-.31,1.8-.34,2.62-1,2.16-2.81,2.54-4.99,2.55.44-1.44.72-2.83,1.29-4.09,1.11-2.46,2.1-4.98,3.17-7.46,1.21-2.8,2.45-5.61,3.46-8.48.58-1.65,1.29-3.35,1.29-5.2,0-.7.3-1.39.5-2.22,1.09-.72,2.29-1.51,3.5-2.32h1.16c.17.22.45.44.52.71.66,2.58,1.69,5.02,2.71,7.46.91,2.17,1.9,4.32,3.06,6.36,1.55,2.72,2.92,5.53,4.33,8.32.08.16.26.27.52.53,2.62-7.24,5.22-14.42,7.88-21.77,1.42-.56,2.84-1.78,4.98-1.58-5.01,9-9.17,18.15-11.52,28.29-.84.51-1.91,1.16-3,1.82h-1.14c-.17-.17-.52-.37-.5-.53.11-1.04-1.03-1.68-.84-2.72-1.78-3.65-3.43-7.37-5.39-10.92-.86-1.55-1.64-3.15-2.53-4.69-.7-1.21-1.11-2.59-1.66-3.89-.03-.08-.2-.1-.44-.22Z"/>
      <path d="m156.3,10.34c1.31-.93,2.76-1.85,4.31-2.34,1.16.17.58,1.37,1.26,1.74.04,1.48.9,2.68,1.39,4,.46,1.26.92,2.54,1.63,3.71.54.89.67,2.03,1.2,2.93,1.98,3.36,3.72,6.84,5.36,10.37.1.22.35.36.65.66,2.76-7.2,5.25-14.43,7.86-21.76,1.51-.68,3.04-1.85,5.15-1.6-2.68,4.38-4.93,8.94-6.82,13.66-1.89,4.71-3.75,9.44-4.68,14.46q-2.83,1.95-4.48,1.98c-.16-.45-.3-.96-.51-1.44-.98-2.27-1.91-4.55-2.98-6.78-1.04-2.18-2.25-4.28-3.35-6.44-.59-1.16-1.4-2.27-1.81-3.44-.59-1.69-1.63-3.13-2.22-5-1.99,3.33-3.21,6.79-4.36,10.24-1.17,3.51-2.3,7.07-2.38,10.91-1.48.86-2.95,1.77-4.98,1.52.6-1.67,1.14-3.27,1.74-4.84.35-.93.92-1.8,1.17-2.75.25-.98,1.04-1.77.98-2.84,1.03-1.47,1.46-3.21,2.15-4.83.97-2.27,1.94-4.54,2.69-6.9.25-.79.35-1.64.51-2.46.17-.89.34-1.77.53-2.77Z"/>
      <path d="m101.19,38.27c0-.45-.09-.75.01-.94.93-1.66,1.28-3.55,2.09-5.24.92-1.93,1.42-4,2.03-6.02.22-.72.11-1.64-.2-2.54-1.72-4.88-3.27-7.28-5.05-9.93-.67-1-1.43-1.95-2.17-2.9-.08-.1-.33-.08-.51-.11v-.92c1.64-.52,3.21-1.49,5.09-1.25,3.24,4.1,5.51,8.69,6.96,13.73.53.16.42-.36.62-.63.51-.69,1.15-1.25,1.64-1.99.74-1.13,1.76-2.08,2.66-3.11.81-.93,1.63-1.86,2.43-2.81.8-.95,1.97-1.57,2.43-2.81.7-.06.84-.82,1.42-1.1.54-.26.91-.86,1.29-1.24h3.72c-.02.8-.57,1.16-1.08,1.44-1.08.61-1.95,1.46-2.91,2.22-1.92,1.54-3.6,3.31-5.35,5.02-1.42,1.38-2.69,2.88-3.79,4.53-.54.82-1.5,1.27-1.9,2.27-.27.68-.89,1.85-1.02,2.44-.09.4-.26.78-.37,1.18-.57,2-1.26,3.96-1.55,6.04-.11.8-.43,1.6-.76,2.35-.17.38-.5.79-.86.96-1.5.73-3.1,1.09-4.84,1.34Z"/>
      <path d="m240.99,21.7c-.33.26-.7.5-1,.8-1.14,1.15-2.55,1.53-4.13,1.58-.9.03-1.8.29-2.71.35-.95.06-2-.24-2.84.07-1.16.43-2.32.16-3.44.38-1.15,1.33-1.36,3.04-2,4.56-.25.59-.33,1.26-.58,1.86-.5,1.21-.76,2.43-.47,3.83,2.39,0,4.82.22,7.19-.08,1.61-.21,3.21-.18,4.81-.33.95-.08,1.87-.39,2.81-.57.46-.09.93-.14,1.6-.23-.51,1.65-1.86,2.02-2.93,2.64-2.11.3-4.16.85-6.29,1.03-2.08.17-4.16.42-6.24.55-2.21.14-4.43.03-6.67.03-.42-1.75.32-3.29.75-4.82.61-2.15,1.39-4.27,2.28-6.3.75-1.72,1.36-3.51,2.16-5.22.85-1.81,1.65-3.64,2.54-5.44.15-.31.19-.68.29-1.08,1.5-1.08,3.22-1.66,5.26-2.03-.1.5-.11.91-.27,1.25-.83,1.76-1.71,3.49-2.55,5.24-.35.73-.66,1.48-1.05,2.36,1.58,0,3.1.05,4.6-.01,1.41-.06,2.82-.24,4.23-.37,1.47-.13,2.98.36,4.39-.47l.25.4Z"/>
      <path d="m89.35,34.18c-.67.67-1.35,1.35-2.05,2.05-.78.16-1.74.13-2.38.56-.74.51-1.69-.23-2.24.61-.02.03-.12,0-.18,0-1.54.13-3.07.25-4.61.38s-3.07.3-4.61.37c-1.52.06-3.05.01-4.58.01h-1.28c-.75-.51-.69-1.15-.46-1.85.85-2.57,1.61-5.18,2.57-7.71.6-1.59,1.23-3.18,1.91-4.74,1.08-2.48,2-5.03,3.39-7.37.08-.14.01-.37.01-.59,1.37-2.01,3.58-2.08,5.9-2.65-1.46,3.07-2.78,5.86-4.21,8.87,2.09,0,3.97.28,5.72-.08,1.95-.4,3.85-.17,5.77-.3.32-.02.64.04.95-.02.24-.04.47-.19.9-.38-.34.85-.74,1.23-1.4,1.57-1.25.64-2.52.96-3.92,1.17-1.74.27-3.49.1-5.18.39-1.22.21-2.43.26-3.76.33-1.29,3.3-2.61,6.59-3.13,10.31,2.92-.2,5.69.04,8.51-.3,2.72-.33,5.51-.26,8.35-.67Z"/>
      <path d="m135.26,13.33c-1.37,3.02-2.65,5.84-4.01,8.84,2.29-.25,4.41.17,6.61-.33,2.07-.47,4.29.15,6.52-.3-.34,1.14-1.29,1.7-2.19,2.09-.81.35-1.78.3-2.68.43-.96.13-1.93.3-2.89.37-.95.06-1.99-.23-2.84.07-1.16.41-2.32.19-3.42.36-1.43,3.1-2.38,6.32-3.17,9.68.18.41.56.61,1.14.6,1.97-.03,3.97.2,5.9-.08,1.8-.26,3.58-.3,5.38-.32.91-.79,2.18,0,3.14-.74.23-.18.72-.03,1.19-.03-.56,1.33-1.36,2.01-2.74,2.34-1.87.45-3.7,1.03-5.64,1.11-.84.03-1.67.29-2.51.35-.89.06-1.83-.17-2.66.05-2.8.75-5.62.09-8.35.39-.25-.25-.43-.43-.67-.67.55-1.9,1.01-3.86,1.69-5.75,1.17-3.26,2.42-6.49,3.88-9.64.86-1.87,1.81-3.71,2.46-5.65.59-1.78,2.07-2.17,3.47-2.73.69-.27,1.48-.29,2.4-.45Z"/>
      <path d="m208.75,48.05H43.25c-.01-.06-.02-.13-.03-.19.3-.04.61-.12.91-.12,8.39,0,16.79,0,25.18,0,5.27-.8,10.58-.27,15.87-.36,5.4-.09,10.81-.02,16.22-.02h64.48c5.34,0,10.68,0,16.03,0,1.74,0,3.42.54,5.19.41,1.77-.13,3.56-.03,5.34-.03h10.68c1.78,0,3.56,0,5.34,0,.11,0,.22.09.32.13,0,.06-.02.13-.03.19Z"/>
      <path d="m130.2,10.32v-.57c.68-.45,1.42-.57,2.24-.6,1.22-.04,2.43-.28,3.65-.34,1.33-.06,2.67-.01,4-.01s2.6.23,3.8-.05c2.18-.52,4.35-.21,6.52-.33.24-.01.48,0,.86,0-.9.74-1.48,1.57-2.49,1.91-.56,0-1.13.06-1.69-.02-.5-.07-.98-.29-1.51-.46-.08.35-.12.53-.16.7-.1.05-.2.14-.31.15-3.31.13-6.63.25-9.94.4-.4.02-.78.3-1.18.35-.5.06-1.01.02-1.52.02-.44,0-.89-.03-1.33,0-.44.04-.97.33-1.28.17-.52-.27-.68.52-1.11.21-.09-.06-.23-.05-.35-.08q.53-1.13,1.88-1.55s-.04.03-.11.1c.02.23.03.45.06.76.27-.02.47-.03.73-.05-.23-.36-.41-.63-.77-.71Z"/>
      <path d="m75.27,11.84c-.48-.48-.77-.77-1.04-1.04.74-.21,1.01-1.3,2-1.32.27,0,.54-.27.82-.31,1.28-.15,2.56-.32,3.85-.38,1.33-.06,2.67-.01,4.01-.01,1.65,0,3.31-.02,4.96,0,1.24.02,2.39-.58,3.66-.42.74.09,1.39.22,2.03.8-.23.26-.46.53-.72.84-.53-.16-1.03-.3-1.73-.51.21.33.31.5.45.71-.91.16-1.78.39-2.68.47-.88.08-1.78-.03-2.67.03-1.35.09-2.69.3-4.04.36-1.4.06-2.89-.29-4.17.1-1.24.38-2.58-.07-3.73.65-.27.17-.75.03-1,.03Z"/>
      <path d="m226.39,10.32v-.88c.46.19.75.3,1.03.42.07-.19.16-.41.27-.69.95,0,1.93,0,2.93.02q.47.38,1.1.02c-.43,0-.78,0-1.1-.02-.02-.55.38-.4.65-.4,2.6,0,5.2-.11,7.79.03,2.01.11,3.93-.58,5.92-.42.37.03.75,0,1.06,0,.19.19.32.32.49.49-.12.28-.25.57-.37.86-1,.27-2.03.54-3.06.81-.23.06-.47.1-.71.12-.32.02-.64.03-.95,0-2.94-.26-5.84.41-8.77.4-.33,0-.65.24-1.03.38-.17-.12-.36-.26-.55-.4-1.35.68-2.81.29-4.21.36-.16,0-.33-.24-.49-.36h.66c.29-.87-.24-.76-.66-.76Z"/>
      <path d="m138.59,57.96v6.28c-.48-.24-.82-.41-1.2-.59.15-.17.24-.26.31-.33-.4-1.73-.37-3.45-.01-5.22h-7.05v5.96c-.3.04-.47.06-.79.11v-6.11h-2.81c-.29-.26-.48-.42-.8-.7h15.69l.17.16c-.24.05-.48.1-.72.16.08.1.15.2.23.29h-3.01Z"/>
      <path d="m257.33,7.98c.73.05,1.71-.06,2.58.21,2.54.78,3.72,1.94,4.49,4.48.52,1.72,0,3.33-1.04,4.77-.99,1.36-2.54,1.8-3.97,2.37-.63.25-1.4-.04-2.12-.3-1.09-.4-2.08-.86-2.93-1.66-2.1-1.98-2.12-5.76-.01-7.83.84-.83,1.81-1.41,3.01-2.04Zm-3.78,7.61c2.12,4.95,8.56,4.54,10.25-.24.55-4.68-2.38-7.2-6.3-6.59-3.55,1.25-4.33,3.68-3.95,6.83Z"/>
      <path d="m183.46,63.9c.64.29,1.12.51,1.83.83-.39.09-.7.16-1.01.22.08.15.16.29.24.44-.65-.4-1.31-.8-2.08-1.27-1.65.89-3.22.28-4.85-1-.17-.33-.46-.9-.81-1.58q-.03-2.17,1.94-4.15c.71-.17,1.39-.46,2.08-.48.7-.02,1.41.22,2.32.39.62.68,1.36,1.49,1.93,2.12.32,1.96-.2,3.36-1.61,4.47Zm-.45-.86c.31-.31.56-.51.75-.76.88-1.18.89-2.18-.09-3.23-.53-.56-1.21-.98-1.62-1.31-1.55-.36-2.62.25-3.61.75-.33.64-.62,1.22-.86,1.69.15.67.29,1.25.45,1.96.33.33.77.79,1.22,1.23.84-.16,1.57.82,2.44.22.13-.13.27-.27.48-.48-.38-.21-.76-.38-1.09-.61-.11-.08-.09-.32-.17-.63.37-.02.66-.03,1.1-.05.29.36.64.78.99,1.21Z"/>
      <path d="m217.54,64.1h-.71v-6.02c-1.13,2.25-1.72,4.33-2.76,6.15-1.06-.32-1.19-1.08-1.42-1.74-.51-1.46-1.24-2.8-2.16-4.09.48,1.7.17,3.41.26,5.11-.25.16-.49.32-.71.47v-6.67h1.1c.81,1.77,1.63,3.56,2.56,5.61,1.21-1.89,1.9-3.71,2.51-5.61h1.33v6.8Z"/>
      <path d="m17.97,58.46v1.8c-.58.31-1.2.65-1.88,1.01.61.88,1.24,1.79,1.94,2.79h-.98c-.73-.98-1.49-1.99-2.19-2.93h-2.48c-.19.19-.32.32-.46.46.94.89-.82,1.59.21,2.48-.55.03-.73.03-.97.04v-6.81h5.9c.2.26.5.65.9,1.16Zm-1.23-.37h-4.96c.2.47.35.84.5,1.2-.14.16-.26.3-.42.47.18.15.37.31.63.51h4.19c.79-.71.73-1.41.06-2.19Z"/>
      <path d="m229.46,58.46c.07.25.17.49.19.74.02.22-.16.53-.06.66.38.52.35,1.08.06,1.55-.47.76-.13,1.38.24,2.12-.33.23-.65.46-1.13.79v-7.02h1.3c.81.81,1.78,1.71,2.67,2.69.83.92,1.34,2.17,2.67,2.66.3-3.11.25-4.26-.28-5.35.4-.02.74-.04,1.14-.06v6.85c-.27.01-.56.03-.88.04-1.99-1.78-3.36-4.17-5.92-5.68Z"/>
      <path d="m142.41,59.44c1.35-2.93,5.57-3.48,7.93-.55q.41,1.88.09,3.46c-.78,1.07-1.84,1.7-3.12,2.05-1.51.42-3.86-.59-4.56-2.04-.15-.32-.3-.66-.33-1-.05-.63-.01-1.27-.01-1.93Zm7.25-.08c-1.89-2.73-5.51-1.96-6.54.62.15.73.34,1.72.53,2.67.75.38,1.38.71,2.26,1.16.64-.12,1.53-.28,2.38-.43.48-.47.93-.91,1.37-1.33v-2.69Z"/>
      <path d="m48,58.62c.18.46.32.84.47,1.23,1.54.2,2.99.39,4.5.59.29.22.68.51,1.2.9v1.89c-2.29,1.86-5.19,1.69-7.16-.47.13-.13.27-.27.54-.54.39.39.79.79,1.2,1.18,1.46.65,2.87.38,4.24-.17.3-.12.43-.66.69-1.11-.47-.34-.83-.6-1.33-.97-1.14-.14-2.53-.32-4.12-.52-.15-.21-.41-.57-.82-1.13v-1.39c.21-.14.58-.39,1.25-.85.32-.07,1.07-.36,1.83-.37.77,0,1.53.26,2.53.45.18.19.52.54.87.91-.07.2-.13.36-.25.66-1.74-1.46-3.53-1.93-5.65-.31Z"/>
      <path d="m69.96,63.1c-.24-.47-.48-.94-.79-1.54-.44-1.37.35-2.55,1.32-3.83,1.58-.75,1.91-.64,5.03-.44.66.74,1.35,1.53,1.85,2.1.56,2.23-.46,3.49-2.02,4.72-.8.12-1.85.49-2.82.34-.87-.14-1.86-.43-2.58-1.35Zm4.43.66c.64-.53,1.34-1.11,1.77-1.46.28-.78.44-1.22.55-1.53-.17-.56-.3-1.01-.49-1.66-.57-.43-1.3-.98-1.81-1.36-1.56-.36-2.62.26-3.45.68-.43.58-.72.96-1.05,1.39-.34,1.17.43,2.11.86,3.06.59.29,1.12.56,1.77.88h1.85Z"/>
      <path d="m27.9,59.72c0,.29,0,.8,0,1.31.01,1.1-.25,1.92-1.41,2.47-1.24.59-1.89,1.07-2.63,1-1.15-.1-2.22-.46-3.11-1.23-.29-.25-.54-.54-.73-.72-.16-.68-.3-1.26-.52-2.22,0,.35-.03.25,0,.23.52-.43.35-1.02.38-1.55,1.09-1.39,2.53-2.21,4.26-2.09,1.59.11,2.99.82,3.76,2.8Zm-7.25-.33v2.61c.46.47.9.93,1.33,1.36.91.16,1.8.32,2.43.44.83-.43,1.41-.72,1.64-.84.86-1.16,1.34-2.13.98-3.21-.33-1.62-1.64-1.85-2.89-2.09-1.55-.29-2.56.64-3.48,1.73Z"/>
      <path d="m80.6,58.48v5.62h-.72v-6.78c.34-.02.76-.05,1.29-.08,1.6,1.77,3.23,3.58,5.05,5.6.17-1.97.02-3.71.11-5.48.19-.04.36-.08.69-.16.12,2.31.02,4.56.07,6.87h-1.04c-.05-.16-.07-.43-.22-.59-1.47-1.62-2.95-3.23-4.45-4.83-.11-.12-.31-.17-.47-.23-.05-.02-.11.02-.31.06Z"/>
      <path d="m56.55,59.69v-1.51c.28-.24.61-.53,1.05-.91.87-.11,1.9-.4,2.91-.33.72.05,1.42.53,2.09.89.23.12.34.46.64.89-.44,0-.7.08-.86-.01-.51-.32-.98-.7-1.46-1.05h-2.21c-.48.28-.89.53-1.14.68-.46.46-.22,1.44.27,1.56.82.2,1.67.44,2.49.4,1.31-.07,2.27.42,3.07,1.39v1.5c-2.16,1.82-5.16,1.86-7.2-.43.13-.13.27-.27.49-.49.92.99,2.05,1.52,3.44,1.5.81,0,1.52-.33,2.2-.69.24-.13.29-.62.43-.98-.42-.32-.77-.6-1.3-1.01-.48,0-1.34.23-1.96-.06-.68-.33-1.31-.25-2.03-.33-.27-.29-.56-.62-.91-1.01Z"/>
      <path d="m151.96,62.14c0-.81.01-1.38,0-1.95-.03-1.24.56-2.02,1.67-2.56,1.88-.91,2.65-.91,4.43-.22,1.64.63,1.74,2.14,2.26,3.44-.6,1.1-.62,2.6-2.18,3.04-.8.23-1.54.78-2.4.61-.8-.16-1.65-.36-2.33-.78-.59-.36-.97-1.04-1.44-1.57Zm.82-2.67c-.12,1.29-.24,2.44.62,3.17.69.59,1.54,1.2,2.57,1.1,2.57-.25,3.63-1.44,3.19-4.55-.65-.5-1.38-1.05-1.99-1.52h-2.6c-.59.59-1.26,1.26-1.8,1.79Z"/>
      <path d="m90.43,62.69c-.14.46-.28.9-.46,1.46-.3-.01-.64-.03-1.19-.05,1.35-2.1,2.34-4.16,3.27-6.25.2-.46.68-.74,1.36-.55,1.6,1.92,2.38,4.37,3.64,6.5-.39.59-.69.34-.93.03-.4-.53-.75-1.09-1.03-1.49-1.54.56-2.99.11-4.66.35Zm.87-1.29h3.51c-.58-1.23-.99-2.4-1.82-3.37-.59,1.17-1.12,2.25-1.69,3.37Z"/>
      <path d="m120.52,62.64c-.78.41-.61,1.73-1.81,1.39,1.22-2.32,2.39-4.56,3.53-6.76h1.06c1.16,2.13,2.37,4.34,3.55,6.5-.42.61-.72.36-.96.05-.4-.53-.75-1.09-1.03-1.49-1.54.55-2.99.11-4.34.31Zm.51-1.15c1.21-.11,2.34.13,3.62-.2-.68-1.19-1.28-2.22-1.88-3.27-.58,1.17-1.12,2.25-1.73,3.47Z"/>
      <path d="m206.79,57.33c.33.33.59.59.88.88v1.97c-.28.23-.62.5-1.13.91h-4.58v3.21c-.49-.27-.78-.43-1.12-.61.95-1.08-.17-2.05-.05-3.1.12-1.05.03-2.13.03-3.26h5.98Zm-.43,2.96c.76-.51.6-1.17.48-1.77-.2-.2-.33-.33-.45-.45h-4.36v2.22h4.33Z"/>
      <path d="m220.35,57.3h5.92c.06.07.12.13.18.2-.28.09-.57.17-.85.26.08.1.17.21.25.31h-4.75v2.24h4.5v.71h-4.45v2.31h5.02c.24.24.42.42.72.72-2.23.17-4.35.04-6.53.1v-6.85Z"/>
      <path d="m39.03,64.14v-6.83h6.31c.2.43-.41.38-.32.74h-5.23v2.23h4.44c.04.3.06.47.11.84-.4-.12-.7-.22-1.05-.32-.06.05-.19.17-.29.26-.55-.11-1.28-.48-1.53-.27-.54.44-1.09.16-1.66.37v2.15c.83.16,1.76.04,2.68.06.94.02,1.89,0,2.88,0,.05.21.08.39.15.69-.34.03-.63.07-.92.07-1.88,0-3.75,0-5.57,0Z"/>
      <path d="m168.82,57.3h5.97c.03.2.06.37.12.68h-5.33v2.31h4.44c.05.09.1.19.15.28-.24.06-.47.13-.92.25.23.16.11.08-.05-.03-.21.09-.58.36-.68.28-.75-.6-1.74.6-2.41-.34-1.02.68-.41,1.69-.63,2.62h5.16c.24.24.42.42.74.74-2.25.13-4.37.03-6.55.07v-6.85Z"/>
      <path d="m2.39,57.31h5.9c.2.26.5.65.9,1.16v1.67c-.32.32-.63.63-.95.95-1.52,0-3.04,0-4.6,0-.14.17-.31.36-.55.63.11.53-.28,1.25.41,1.88-.34.21-.65.4-1.11.69v-6.98Zm6.04,1.25c-1.02-.62-2.92-.72-5.28-.35v2.08h4.75c.16-.16.34-.34.53-.53v-1.2Z"/>
      <path d="m31.15,64.2c-.31-.17-.6-.33-.99-.54.19-.96-.34-1.97.27-2.7-.11-1.16-.21-2.17-.33-3.34.51-.14.9-.34,1.29-.35,1.71-.03,3.42-.01,5.17-.01.05.2.1.37.14.52-.12.09-.21.23-.3.23-1.64.01-3.29,0-5,0v2.25c.65.01,1.39.03,2.12.04.75,0,1.51,0,2.31,0q-.71.87-1.6.41c-.81.51-1.59.54-2.39,0-1.07.95-.17,2.29-.71,3.47Z"/>
      <path d="m193.63,57.31h.64v5.2c-1.45,2.92-5.95,2.44-7.2-.14v-5.04c.26-.03.43-.04.59-.06.07.13.16.24.16.34.01,1.02.06,2.04,0,3.05-.09,1.42.3,2.53,1.98,3.08q2.65.02,3.82-1.82v-4.62Z"/>
      <path d="m119.92,57.33c-.58.27-.8.38-1.01.48.04.06.09.13.13.19h-2.94v6.28c-.49-.24-.78-.39-1.06-.52.52-1.37.23-2.72.25-4.05,0-.56-.29-1.13-.46-1.73h-2.91v-.64h8.01Z"/>
      <path d="m245.54,58.03h-3.5v6.07h-.76v-6.06h-2.8c-.28-.25-.47-.41-.78-.69h7.7c.03.13.06.3.14.68Z"/>
      <path d="m105.35,63.38v.7h-6.33s-.03-.02-.07-.07c-.03-.05-.06-.11-.06-.16,0-2.15,0-4.29,0-6.48.22-.04.4-.08.7-.14v6.16h5.75Z"/>
      <path d="m65.75,57.3h1.02v6.94c-.41-.2-.7-.35-1.02-.51v-6.43Z"/>
      <path d="m198.08,64.1h-.64v-6.8h.64v6.8Z"/>
      <path d="m226.39,11.08h-.63c-.06.19-.12.41-.2.69h-.98c-.03-.08-.06-.15-.05-.16.62-.43.88-1.39,1.86-1.3v.76Z"/>
      <path d="m258.69,13.96c-.56.23-.94.39-1.35.56v2.55c-.22.06-.4.11-.57.16q-.69-3.19-.22-4.38c-.12-.13-.24-.27-.23-.26.09-.52.12-.93.24-1.32.1-.34.3-.64.44-.94.73,0,1.37-.06,1.99.02.52.07,1.02.29,1.7.5.18.18.49.5.81.82v1.58c-.46.31-.96.64-1.48.99.48.96.95,1.88,1.47,2.91-.33.02-.68.04-1.07.06-.57-1.06-1.1-2.05-1.74-3.24Zm1.3-2.78h-2.62v1.6c.25.54.39.83.43.91.99-.18,1.74-.31,2.48-.44.12-.28.24-.55.38-.86-.18-.33-.41-.73-.67-1.21Z"/>
    </g>
  </g>
</svg>