<?xml version="1.0" encoding="UTF-8"?>
<svg id="Capa_2" data-name="Capa 2" xmlns="http://www.w3.org/2000/svg" viewBox="0 0 196.41 148.2">
  <g id="Capa_1-2" data-name="Capa 1">
    <g>
      <path d="m81.11,16.32c-7.79-.69-14.2,2.61-18.84,8.45-4.6,4.95-9.31,23.09,5.26,21.18-.39-.3.75-.62,1.25-1.11-.42-.26-1.29-.27-.87-.61-6.12.08-7.35-7.38-4.2-11.57-1.84,7.84,5.57,9.59,10.58,5.02,1.92.58,1.19-1.54,2.78-1.49.58-1.73-2.22-.66-2.08-2.06,6.85.03,9.08-4.15,15.1-6.93.85.23,1.31-.43,1.62-1.08,1.27-.04,2.39.37,2.87-1.05,1.15-.23,3.4.73,3.28-1.02,2.24-.48,6.15.37,4.5-2.95-1.08.16-3.4-2.17-4.44-3.09-1.64-1.97-3.92-3.21-4.75-5.59.97-.84,2.58,3.48,4.44,3.17.56,1.89,3.23,1.46,3.61,3.57,2.18-.49,1.82,1.66,4.21,1.11.59,1.24,1.72,1.41,2.42.3-1.56-2.39-4.04-3.69-6.05-6.03-2.02-4.76-6.66-6.93-7.28-12.57,1.8,2.54,2.97,3.92,5.28,5.74,1.69,1.19.4,2.36,2.51,2.06.56,2.24,5.22,2.52,4.48,4.69,3.04-.89,12.39,8.25,13.48,3.39-1.15.11-2.4-3.2-2.14-4.22.62.7,1.11,1.24,1.76,1.97,5.69,5.14,12.18,6.31,19.87,7.4.35,1.11,2.81,1.97,4.35,2.04-.36,2.13,2.7.43,3.82,1.46,1.46,6.27,14.34,3.83,10.98,12.92-.28.14-.68.34-1.15.57-1.66-5.55-9.53-2.03-14.16-2.96-9.96,3.64-9.94,2.52-1.61,9.21.61,1.7-6.42-2.36-6.77-3.07-1.86-.06-3.67-1.72-5.53-.9.86.9-1.14.34-1.63.56-1.5.29-2.56,2.74-3.71.38-6.18-1.18-11.7,5.88-17.1,9.2-.16.34.07,1.16-.72,1.25-.72.08-.4.88-.95,1.14-1.44.5-.83,2.31-2.33,2.22-.31,1.06-2.6,7.42-3.02,5.88.58-4.71,3.24-8.73,5.89-12.27,1.9-1.61,9.54-10.7,2.8-5.3-.69-.03-1.43,1.19-1.99,1.59-.93,1.48-2.2,1.89-3.35,3.57-7.14,8.03-18.71,19.77-10.43,30.86-2.41.94-3.5-1.82-5.4-2.76-.33-.55.04-1.62-1.21-1.8,1.1-5.07-2.51-4.24-.53-7.57,1.24-2.93-.17-8.18,2.67-9.47-.36-2.52,5.82-7.53,5.05-8.82.38-.09.73-.18,1.08-.26-.54-.35-.24-.83-.16-1.4.46.7.76-1.03,1.27-.38.31-4.79-7.89,6.58-8.02,7.99-.86-.41-1.96,3.41-2.1,4.33-1.56.86-2.79,3.76-3.64,4.96-6.39,7.74-7.85,20.89,5.14,23.02,8.95.88,15.91-2.46,22.08-6.58,5.33-3.8,14.69-6.46,13.39-15.39-3.5-3.91-7.51-6.28-11.8-2.37-4.31,1.86-7.68,5.52-9.31,10.01-.67-4,2.52-6.65,4.78-10.06,3.12-3.92,8.05-5.59,11.53-8.22,2.48-.59,7.09-.75,8.14-3.58,6.95,0,13.88,0,20.86,0,.59,1.79,3.13.75,4.69,1.09.82,2.04,4.05.49,4.88,2.02,4.89.74,8.48,3.67,12.93,5.24,19.78,12.55,27.83,34.53,26.88,59.55-1.62-8.46-2.3-16.75-5.14-24.71-2.43-3.36-3.18-8.39-6.78-11.47.14-1.78-7.05-7.13-5.77-7.76-7.92-3.93-13.76-10.42-23.36-11.99-2.97-3.18-31.97-4.95-23.65,5.34,9.51.73,17.2,1.8,24.49,7.47-1.11.43,4,3.11,4.3,4.37,1.57,1.16,1.88,3.99,3.21,4.18.9,1.47,1.18,3.95,2.63,4.84.71,6.07,5.56,15.89,2.92,22.03.22-5.42-1.09-9.73-2.85-14.69-2.41,1.89-.62,6.16-1.14,8.86-1.06,1.41-1.22,2.8-1.44,4.39-1.16,4.12-3.24,8.79-6.11,13.01,4.37-12.5,7.87-26.4-.07-38.18-1.38-.86-1.84-2.68-3.22-3.03-.52-.57-.73-1.48-1.77-1.37-1.61-1.6-4.09-1.51-5.3-3.2-8.14.46-.2,1.79,1.9,4.02,12.33,5.28,10.52,22.62,7.66,35.05-3.42,5.65-6.21,14.04-12.62,17.91-.3,1.89-2.79,2.38-3.97,3.74-1.3,1.03-1.97,2.11-3.9,2.39-2.38,1.95-5.23,3.91-8.82,4.32-3.74,2.73-13.51,2.37-16.83-1.05-2.01-.48-3.81-3.1-4.54-4.64.52-2.33-2.4-5.5-.16-7.07-.51-4.16,3.45-7.2,2.07-8.27-3.16,1.44-2.7,4.12-6.37,3.7.98,1.04-.64,1.06-1.33,1.1-.46,1.06-1.16,1.54-2.36,1.32-1.41,1.56-3.75,2.01-6.01,2.26.26,1.48-.9.96-1.97,1.1-1.76-.11-1.37,1.72-2.96,1.38-1.89,3.84,14.48-3.6,16.04-4.59.42,3.57-7.98,4.46-11.04,6.84-1.64,1.22-3.87.38-5.02,2.12-1.71.24-3.77-.49-5.39,1.09-7.88,1.12-15.74-.93-23.15-2.14-.54-1.95-2.48-.29-3.21-2.13-1.87.31-2.72-1.54-4.56-1.61.22-1.76-2.16-.05-1.95-2.01-1.43.43-1.68-1.32-2.98-1.13-3.59-4.38-10.04-8.08-10.67-14.16,1.35,2.11,2.84,3.56,4.51,5.4.63-.08.93.22.81.87.79.5,1.85.19,2.54,1.08,1.5,1.32,3.67,2.02,5.54,2.8.79-.1.99.45,1.16,1.06,1.26-.07,2.53-.16,3.16,1.12,7.35.68,15.82,4.72,23.35,1.46,2.14-.21,10.2-2.04,9.92-3.59,5.56-1.74,8.71-5.42,14.17-7.57.87-.93,2.8-1.88,4.16-1.9.41-1.72,2.32-.5,2.88-2.15,1.34.26,2.46-.27,3.14-1.49,1.36-.02,2.21.35,2.75-1.08,3.84-.47,6.79-2.45,10.91-2.14,5.23,2.56,4.51,8.57,0,11.68,2.2,6.26,10.44-.56,13.5-2.88.84-1.54,2.09-2.13,2.7-4.02.5-.24,1.27-.44.86-1.49,1.85.39.71-1.64,1.89-2.41,8.46-12.93-1.82-26.65-15.73-16.94-2.84.21-4.43,3.28-7.03,4.09-.15,0-.41.11-.42.2-.16.88-1.72.28-1.46,1.52-5.8,2.59-9.52,6.01-16.15,6.25-8.76,2.87-19.33.07-26.78-3.69-4.66-3.17-7.32-8.19-9.99-11.65-.27-3.36-1.5-6.64-2.5-9.65.72-2.78.36-5.84.19-8.68.1-4.82,2.2-9.23,3.42-12.87,1.42-2.28.17-2.59-1.48-.72-.87,2.54-2.32,4.87-3.56,7.88-1.17,5.75-1.82,10.83-1.45,17.19,1.6.6,1.31,4.55.95,5.79,1.52-.17,1.64,1.17,1.54,2.4,1.36,1.33,1.73,2.75,2.62,4.51,2.72,4.06,9.3,8.49,13.33,10.47-3.51.06-5.97-3.13-9.27-3.47-.38-1.47-2.18-.7-1.95-2.55-1.84.42-1.45-1.06-2.72-1.06-.21-.69-.66-1.02-1.22-1.37-.65-.51-.08-2.13-1.41-1.12-.01-.6-1.5-3.72-2.15-3.39q-.22-1-1.57-2.34c-10.5-19.15,8.43-42.86-3.9-39.18-3.6,2.79-5.59,6.03-7.41,9.5-2.43,2.63-2.06,6.12-4.3,8.51-2.7,11.25-2.33,18.26,1.06,28.84-.36-.7-.56-1.09-.92-1.78-7.22-8.04-6.93-23.45-3.76-34.65,1.7-7.55,6.97-12.38,6.46-21.17-7.14-8.61-18.62,5.48-23.8,10.17C6.91,69.01,2.46,88.04,4.14,109.51c.31.88.24,1.81-.1,2.74.37,1.03,1.34,2,1.32,3.33.38,2.24-.02,8.08-.71,1.94-7.33-17.46-5.89-43.25,3.56-59.38,4.01-9.32,11.17-17.8,17.06-23.71,2.75-3.07,4.9-4.73,7.66-7.21,4.11,1.28,1.65-.14,5.31-.04,9.8-7.61,28.97-17.03,42.86-10.87Zm57.65,15.52c15.3,1.58-2.62-7.96-5.34-4.19.73.45,1.18.82,2.36.69-.08,2.05,2.42,2.04,2.98,3.5Z"/>
      <path d="m6.13,123.52c.1-.96-1.28-3.3.27-3.22-.2.99.42,2.84-.27,3.22Z"/>
      <path d="m81.11,16.25c.78.39,2.49.04,2.55,1.03-.9.31-2.75.17-2.55-1.03Z"/>
      <path d="m124.17,45.22h-2.13c1.26-.54,2.42-1.9,2.13,0Z"/>
      <path d="m141.96,46.65c.65.31,1.9.24,2.16.75-.78-.18-2.35.56-2.16-.75Z"/>
      <path d="m44.76,103.21c-.32-.51-1.24-1.66-.05-1.77.31.56.09,1.17.05,1.77Z"/>
      <path d="m93.49,0q.59.62.52,1.44c-.86.16-.42-.84-.52-1.44Z"/>
      <path d="m156.51,126.35c.05-.7-.32-1.49.78-1.26-.29.39-.36,1.59-.78,1.26Z"/>
      <path d="m81.57,109.72c.24.24.41.41.72.72-.58.04-1.02.07-1.87.13.6-.44.88-.65,1.15-.84Z"/>
      <path d="m119.84,47.26c.57-.2.64-.6,1.19.1-.46-.03-1.05.37-1.19-.1Z"/>
      <path d="m7.49,124.72c-.11.39.26,1.33-.22,1.34.08-.42-.39-1.42.22-1.34Z"/>
      <path d="m122.79,46.33c-.85-.08-1.21.2-1.52-.18.78-.36.52-.36,1.52.18Z"/>
      <path d="m92.64,10.94c-.08.3.2.99-.19.98.03-.37-.39-1.08.19-.98Z"/>
      <path d="m34.06,117.72c.08-.3-.2-.98.18-.98-.02.37.39,1.06-.18.98Z"/>
      <path d="m155.72,127.29c.08.79-.12.54-1.07.58.56-.3.79-.43,1.07-.58Z"/>
      <path d="m119.43,48.2c-.06.24.17.79-.18.72.06-.24-.17-.79.18-.72Z"/>
      <path d="m45.87,104.01c-.06.24.17.79-.18.72.06-.24-.17-.79.18-.72Z"/>
      <path d="m73.86,33.47c.14.03.41-.09.36.12-.14-.03-.41.09-.36-.12Z"/>
      <path d="m91.5,9.79c-.03.14.09.41-.12.36.03-.14-.09-.41.12-.36Z"/>
    </g>
  </g>
</svg>