<?xml version="1.0" encoding="UTF-8"?>
<svg id="Capa_2" data-name="Capa 2" xmlns="http://www.w3.org/2000/svg" viewBox="0 0 240.12 74.06">
  <g id="Capa_1-2" data-name="Capa 1">
    <g>
      <path d="m93.82,72.97h-12.19c-4.77-8.77-9.43-17.33-14.09-25.89-.14.12-.28.2-.37.32-.09.12-.18.28-.18.42,0,7.64,0,15.28,0,22.93-3.43,1.37-6.36-1.55-9.43-.61-.62-.62-1.09-1.09-1.56-1.56,0-20.65,0-41.31,0-62.11,2.79-1.13,5.63-2.29,8.56-3.49,5.49,11.95,9.34,24.5,14.43,36.55.08.19.44.26,1.13.63-.54-2.63.75-5.06-.84-7.35-.23-.33-.35-1.12-.16-1.3,1.64-1.52.8-3.45.83-5.16.11-7.64.05-15.29.05-23.25,4.35-2.01,9.26-1.38,13.83-3.09v72.96Z"/>
      <path d="m171.22,46.01c-2.14,4.7-4.29,9.39-6.59,14.44-2.45-5.41-4.72-10.41-7.41-16.35-.11,2.23-.58,3.66-.13,4.68.62,1.4.16,2.47-.08,3.72-.4,2.01-.81,4.04-.98,6.08-.17,1.98-.11,4-.02,5.99.12,2.76-.11,5.45-1.33,8.28h-12.82c.39-2.4.91-4.7,1.1-7.02.19-2.32-.65-4.97.22-6.91,1.04-2.31.53-4.46.82-6.66.32-2.36.6-4.73,1.01-7.08.38-2.19-1.05-4.64.95-6.61.17-.17.07-.65.03-.97-.73-5.26,1.08-10.35,1.06-15.58,0-2.03.75-4.04.91-6.08.17-2.15-.55-4.55.17-6.44,1.16-3.03.58-6.07,1.02-9.49,2.02.37,3.97.74,5.93,1.06,1.85.3,3.71.55,5.75.85,1.21,6.07,2.37,11.91,3.62,18.19.49-.49.97-.97,1.29-1.29.87-5.53,1.71-10.88,2.59-16.44,3.1-1.59,6.15,1.13,9.66.76,0,1.36-.06,2.5.01,3.63.31,4.69.12,9.51,1.17,14.03.76,3.27.69,6.42.78,9.62.07,2.42,1.45,4.54,1.12,7.09-.28,2.17-.63,4.56.9,6.58.08.11,0,.33.01.49.33,5.53.65,11.05,1.01,16.57.14,2.18.39,4.36.6,6.61-3.22.69-6.71,1.44-10.61,2.27.68-4.94-1.36-9.57-1.04-14.48.2-3.11.04-6.24.04-9.36-.25-.07-.51-.13-.76-.2Z"/>
      <path d="m115.36.11h8.18c2.02,4.69,2.14,9.78,3.43,14.6,1.61,6.05,2.2,12.31,3.94,18.34.79,2.73.42,5.78,1.15,8.54,1.25,4.69,1.82,9.55,3.28,14.13.83,2.6.42,5.27,1.48,7.86.91,2.24,1.74,4.85,1.21,7.52-.09.44.56,1.02.87,1.54-.47.47-.94.94-1.41,1.41-1.58-1.92-3.71-.74-5.58-.95-1.8-.2-3.65-.04-5.44-.04-1.42-1.97-1.59-4.14-1.51-6.44.09-2.71-1.68-8.73-3.32-11.56h-3.63c-1.17,0-2.33,0-3.5,0-2.36,1.75-1.81,4.62-2.43,6.96-.91,3.47-2.02,6.95-2.21,10.61-.02.37-.66.71-1.01,1.06-3.83-1.42-7.89-.06-11.96-.88,2.7-7.13,3.53-14.59,6.09-21.58-.49-4.24,2.45-7.92,2-12.16,2.05-3.62,1.43-8.09,3.34-11.58,1.09-2-.21-4.09,1.46-5.98,1.07-1.22.78-3.6,1.22-5.43,1.26-5.28,1.85-10.75,4.36-15.99Zm3.13,32.89c-2.36,5.22-3.12,9.53-3.54,14.29,2.62-.67,5.15.88,6.8-1.46-1.52-3.76-1.07-7.99-3.27-12.83Z"/>
      <path d="m48.82,67.71c-3.85-2.83-8.5-1.87-11.83-5.02,0-5.87-.08-11.84.05-17.81.04-2-.31-3.84-1.27-5.49-2.98-5.11-6.12-10.12-9.14-15.21-1.42-2.39-2.7-4.85-4.21-7.58,2.98-1.62,5.56-3.02,8.55-4.65,1.63,2.88,3.33,5.86,5.02,8.84,1.38,2.44,2.74,4.89,4.54,8.09.96-7.09,1.81-13.31,2.66-19.52,2.84-.75,5.65-1.49,8.95-2.36-.66,3.07.92,6.03-1.12,8.72-.16.21,0,.65-.02.98-.33,6.53-.18,13.12-1.11,19.56-1.47,10.16-.43,20.35-1.06,31.44Z"/>
      <path d="m234.09,15.14c5.45,3.43,6.77,8.02,5.67,13.71h-10.65v-5.23c-.9-.73-1.91-1.55-3.09-2.51h-4.58c-1,1.34-2.44,5.13-2.45,6.53-.01,5.66.1,11.33-.06,16.98-.06,2.05.57,3.72,1.52,5.43h4.86c2.7-1.34,2.66-4.18,4.05-6.72,2.62-2.05,6.06-1.02,9.5-1.3v8.5c-1.03,2.73-4.5,2.75-6.57,4.67-2.33,2.17-5.74,1.26-8.43,2.51-2.95,1.37-5.51-1.65-8.24-.56-2.66-2.19-5.17-4.25-7.62-6.27,0-9.2.05-18.17-.03-27.15-.02-2.68,1.14-4.78,3.14-6.16,2.82-1.94,5.78-3.92,9.52-3.49,1.22.14,2.11-.73,3.1-.92,2.88-.56,5.68.2,8.34,1.44.7.32,1.51.4,2.04.53Z"/>
      <path d="m206.52,8.75c.96.55.47,2.28.39,3.89-1.29,1.29-2.59,2.59-3.91,3.91v40.38c1.73,1.12,3.68,2.39,5.92,3.84.01.23.05.87.1,1.95-1.32.43-2.7,1.08-4.14,1.31-3.58.56-7.17.81-10.68,1.94-1.79.57-3.92.1-6.06.1v-2.67c.79-.79,1.74-1.74,2.76-2.76V14.11c-2.14-1.1-4.33-2.23-6.92-3.56,0-.95.08-2.24-.03-3.53-.08-.97-.39-1.93-.56-2.74,7.39,1.43,14.79,2.85,23.12,4.46Z"/>
      <path d="m0,52.69v-29.3c6.24-2.4,12.51-4.93,19.79-2,1.89,1.99,4.39,3.97,5.42,7.29.69,2.23,1.66,4.46,1.7,6.74.06,3.69.11,7.34-.74,11.1-1,4.41-3.4,7.48-6.5,10.29-.75.68-1.93,1.12-2.96,1.21-6.3.54-12.04-.81-16.71-5.34Zm14.67-3.81c.49-2.21,1.27-4.04,1.24-5.86-.07-4.17.48-8.32-.76-12.54-.71-2.41-1.31-4.32-3.73-5.26-1.06.65-2.25,1.39-3.43,2.11v5.09c0,4.8-.1,9.6.06,14.39.05,1.46.81,2.9,1.2,4.23h3.24c.85-.85,1.68-1.66,2.18-2.16Z"/>
    </g>
  </g>
</svg>