<?xml version="1.0" encoding="UTF-8"?>
<svg id="Capa_2" data-name="Capa 2" xmlns="http://www.w3.org/2000/svg" viewBox="0 0 556.98 212.19">
  <g id="Capa_1-2" data-name="Capa 1">
    <g>
      <path d="m113.45,191.59c-15.53-6.78-30.87-12.2-44.9-19.98-11.9-6.61-23-12.67-37.23-13.94-15.66-1.4-26.84-11.05-30.55-27.41-1.83-8.09-.41-16,4.17-22.49,5.6-7.94,12.51-14.96,18.95-22.3,1.17-1.33,2.81-2.26,4.44-3.54-8.92-12.12-6.43-24.29-.51-36.38,5.5-11.22,13.92-19.89,24.4-26.51C67.35,9.5,83.82,3.24,101.46.56c21.3-3.23,43.48,7.13,51.05,39.4,2.67-1.55,5.39-2.49,7.18-4.33,2.65-2.72,4.52-6.17,6.93-9.14,9.19-11.35,25.97-13.39,37.04-3.91,3.22,2.75,4.74,7.47,7.05,11.29-.4.38-.8.75-1.21,1.13,2.11.12,4.22.2,6.33.38,4.27.37,7.67,1.98,9.33,6.32.36.94,1.24,2,2.14,2.37,8.72,3.59,17.82,3.58,26.96,2.38,1.23-.16,2.52-1.37,3.41-2.41,3.47-4.03,6.91-8.11,10.15-12.34,2.98-3.89,6.45-5.41,11.57-5.17,13.19.61,20.18,6.54,21.47,20.54,7.6-.66,15.31-.82,22.84-2.12,7.32-1.26,14-.56,21.02,1.84,5.27,1.8,11.21,2.58,16.77,2.28,6.32-.34,11.95.53,17.98,2.48,7.82,2.52,16.19,3.43,24.38,4.66,1.55.23,3.36-1.21,5.04-1.92,9.32-3.94,19.24-5.73,27.72.38,5.92,4.27,11.84,7.91,18.5,10.72,2.18.92,3.87,3.08,5.67,4.79,4.03,3.83,6.62,3.68,10.08-.64,13.74-17.13,29.34-32.34,47.55-44.67,14.95-10.12,35.48-1.21,38.24,16.42,1.46,9.32-2.1,17.25-8.82,23.35-7.75,7.04-16.13,13.37-24.26,20-1.21.98-2.5,1.86-3.42,3.43,2.58-.51,5.21-1.59,7.74-1.4,2.91.22,7.03.7,8.29,2.61,1.6,2.44,2.2,7.17.84,9.56-2.51,4.41-6.76,7.82-10.83,12.23,0,0,.51,1.19,1.14,2.29,6.53,11.41,6.48,23.01-1.39,33.32-5.36,7.02-12.12,13.31-19.24,18.59-13.62,10.09-29.41,16.15-45.32,21.75-1.55.55-3.1,1.09-4.66,1.65,2.77,6.29,1.89,7.79-4.9,7.56-4.88-.16-9.74-1.39-14.6-1.36-3.51.02-7.03,1.29-10.53,2.08-68.72,15.45-138.19,18.31-208.18,12.45-27.76-2.33-55.19-6.62-82.36-12.77-5.38-1.22-11.26-.41-16.91-.27-4.1.1-6.53-1.06-5.8-4.73Zm363.77-73.9c-.5-9.63,4.32-16.2,9.34-22.65.43-.56,1.44-.67,2.19-.99,5.33-2.24,11.22-3.66,15.87-6.87,12.04-8.31,23.63-17.3,35.18-26.3,2.82-2.2,5.21-5.22,7.07-8.3,3.21-5.34,2.9-10.65-1.23-15.73-7.32-9.01-15.24-10.38-24.81-3.48-21.41,15.45-39.84,33.82-54.18,56.13-.98,1.52-2.02,3.36-3.51,4.13-8.78,4.58-17.7,8.88-26.58,13.28-.4-.3-.79-.6-1.19-.9,1.63-2.91,2.81-6.21,4.98-8.64,2.97-3.32,6.68-5.98,10.06-8.93,2.87-2.5,6.53-4.76,5.59-9.29-1.01-4.87-5.13-6.7-9.39-7.99-1.56-.47-3.33-.25-4.91-.68-1.24-.33-2.83-.87-3.43-1.83-4.94-7.83-12.01-11.6-20.73-7.91-9.97,4.22-20.31,9.23-28.11,16.47-8.82,8.18-17.12,16.64-27.8,22.42-2.01,1.09-3.83,2.54-5.73,3.82-.34-.35-.69-.7-1.03-1.05.59-1.44.91-3.09,1.82-4.29,3.83-5.02,7.67-10.05,11.84-14.78,3.74-4.25,7.87-8.14,11.89-12.13,2.51-2.49,2.32-4.75.07-7.39-5.21-6.11-13.31-8.42-20.77-4.71-4.84,2.41-9.36,5.77-13.42,9.38-7.09,6.3-13.68,13.17-20.56,19.71-1.8,1.72-3.9,3.12-5.86,4.67-.2-1.39.09-2.18.61-2.76,7.76-8.69,15.36-17.53,23.43-25.93,3.35-3.48,2.54-5.51-.72-7.92-7.26-5.37-19.25-4.62-25.04,2.33-3.8,4.56-6.22,10.24-9.81,15-3.75,4.98-7.87,9.77-12.38,14.07-3.94,3.75-8.61,6.77-13.05,9.97-1.69,1.22-3.65,2.07-5.49,3.09l-1.11-1.24c.78-1.93,1.18-4.14,2.4-5.72,4.46-5.77,9-11.5,13.88-16.9,3.93-4.35,4.11-5.27-.63-8.93-2.37-1.83-4.93-3.44-7.21-5.37-5.12-4.33-4.96-7.69.32-11.67,1.99-1.5,4.23-2.83,5.76-4.72.96-1.19,1.54-3.53,1.05-4.91-1.55-4.33-13.66-8.13-16.77-4.92-6.67,6.88-14.2,13.54-15.29,23.94-.66,6.3-2.96,11.71-7.62,15.81-11.1,9.79-22.28,19.52-33.78,28.84-2.47,2-6.38,2.45-9.73,3.01-1.25.21-3.92-1.21-4.01-2.1-.45-4.19-.95-8.65.13-12.58.4-1.46,4.99-2.15,7.77-2.53,6.89-.94,13.97-.88,20.7-2.4,6.87-1.55,11.05-6.55,12.01-13.79,1.01-7.59-1.89-13.49-8.3-17.39-9.16-5.59-18.81-6.64-28.51-1.42-10.69,5.76-17.83,14.76-22.74,25.72-1.14,2.55-2.21,5.37-4.1,7.29-5.59,5.7-11.44,11.17-17.49,16.39-1.77,1.52-4.53,1.89-6.84,2.78-.2-2.35-.4-4.7-.57-7.05-.02-.31.19-.63.29-.95,5.03-15.79,13.47-29.71,23.89-42.41,1.88-2.29,5.48-3.61,8.54-4.42,7.24-1.89,14.64-3.13,21.94-4.81,1.97-.45,3.8-1.56,5.69-2.36l-.24-1.78h-23.13c1.59-2.99,3.51-4.55,5.21-6.32,3.41-3.54,3.04-6.23-1.08-8.94-8.84-5.82-19.36-4.18-25.88,4.11-2.06,2.62-4.09,5.27-5.89,8.07-2.96,4.62-7.03,6.79-12.52,6.8-2.46,0-5.02.42-7.34,1.2-4.19,1.41-4.67,4.77-1.07,7.36,2.1,1.51,4.56,2.53,7.23,3.98-1.35,2.28-2.49,4.27-3.68,6.22-6.56,10.71-12.28,21.78-14.59,34.29-2.33,12.64,2.77,20.97,15.05,24.87,8.19,2.6,14.37.55,19.01-6.67,2.51-3.92,4.39-8.24,6.92-12.14,1.6-2.47,3.89-4.5,6.52-7.46,1.42,8.05,4.23,13.75,9.74,17.88,9.19,6.89,21.15,6.83,29.87-1.08,12.58-11.41,24.64-23.4,37.03-35.03,2.54-2.38,5.56-4.25,8.36-6.36.47.41.95.82,1.42,1.23-1.78,4.01-3.74,7.96-5.31,12.06-1.84,4.78-4.04,9.58-4.82,14.57-.98,6.25,3.25,11.28,10.38,14.15,8.18,3.3,9.28,3.05,14.92-3.53,2.52-2.93,5-5.9,7.77-9.17,3.71,8.25,6.55,11.2,12.46,14.33,3,1.59,4.63,1.28,6.97-1.56,6.54-7.95,13.47-15.59,20.62-23,2.53-2.62,6.12-4.22,10.41-7.07-1.2,5.41-2.16,9.25-2.89,13.12-1.11,5.88.26,11.3,3.7,16.11,4.84,6.76,12.65,7.49,18.42,1.5,2.98-3.09,5.18-6.93,7.99-10.21,2.17-2.52,4.75-4.67,8.01-7.82,0,3.01-.02,4.31,0,5.62.15,7.45,6.36,14.83,14.49,17.22,6.83,2.01,9.84.4,15.53-7.29,3.17-4.29,6.94-8.12,10.44-12.16.38.21.76.42,1.14.64-.18,1.58-.36,3.16-.53,4.74-.69,6.5,2.85,13.23,8.43,16.38,3.96,2.24,7.54,2.21,10.91-1.1,4.52-4.43,9.05-8.86,13.67-13.18,1.83-1.71,3.93-3.12,5.76-4.56,1.53,5.05,2.09,9.93,4.35,13.8,5.78,9.88,16.13,17.9,28.67,5.48,10.2-10.11,21.57-18.84,34.92-24.66,2-.87,3.57-2.71,5.34-4.11-.3-.39-.59-.79-.89-1.18-18.91,2.71-33.52,15.61-51.65,22.47ZM47.07,81.37c-3.1,1.7-5.04,2.87-7.06,3.87-11.67,5.75-20.96,14.14-27.59,25.31-8.39,14.15-3.79,28.74,11.11,35.82,7.71,3.66,15.91,4.9,24.35,4.26,18.37-1.39,35.11-7.96,50.44-17.66,8.5-5.38,16.32-12.09,23.59-19.09,7.31-7.04,7.3-18.28,1.19-25.47-3.26-3.84-5.52-4.18-9.2-.7-15.86,14.99-34.83,25-54.32,34.18-8.31,3.91-15.76,3.01-19.17-2.02-3.63-5.33-2.06-11.64,4.65-18.68,9.44-9.9,21.1-16.13,33.89-20.45,5.99-2.03,12.08-3.77,18.07-5.8,4.25-1.44,6.79-4.17,5.74-9.07-1.14-5.33-3.55-7.08-8.88-5.84-8.26,1.92-16.42,4.26-24.7,6.07-1.63.35-3.6-.9-5.42-1.42.75-1.69,1.1-3.77,2.32-5.01,9.86-10.09,22.65-15.08,35.63-19.28,10.65-3.45,21.3-2.45,31.61,2.53,2.25,1.09,6.98,1.16,7.97-.19,1.62-2.22,2.28-6.42,1.32-9.04-6.65-18.07-22.17-27.35-41.06-24.28-17.28,2.81-33.44,8.96-47.96,18.93-8.97,6.17-16.19,14.02-20.07,24.29-1.67,4.41-2.62,9.33-2.7,14.04-.1,6.36,3.71,10.37,9.81,12.23,1.81.55,3.54,1.36,6.45,2.49Zm234.57,85.44c-.71-6.03-1-12.03-2.21-17.84-1.27-6.11-4.92-8.97-9.74-8.93-4.77.04-7.83,2.52-9.4,8.68-3.04,11.96-2.81,24.03.17,35.97,1.15,4.59,3.61,8.26,9.17,8.28,4.81.01,8.14-2.43,9.52-8.47,1.32-5.78,1.7-11.77,2.49-17.69Zm-29.1-2.6c-.81-4.8-1.5-11.4-3.15-17.76-1.06-4.07-4.31-6.57-9.01-6.43-4.47.13-6.96,2.71-8.5,6.53-.61,1.53-1.37,3.15-1.41,4.75-.25,9.09-.61,18.2-.28,27.28.13,3.5,1.41,7.24,3.15,10.32,3.2,5.68,10.88,5.77,14.51.34,1.43-2.14,2.46-4.78,2.87-7.33.84-5.23,1.13-10.54,1.83-17.7Zm89.34-24.04c.51,2.4,1.3,4.46,1.32,6.51.12,12.15.11,24.31.02,36.46-.03,3.6-.44,7.45-5.38,7.34-4.6-.1-4.95-3.71-4.97-7.19-.05-10.99-.11-21.98.02-32.96.04-3.33.69-6.65,1.06-9.98h-7.72c.41,2.73,1.05,5.11,1.07,7.5.11,12.15.01,24.31.07,36.46.03,6.09,2.84,8.55,9.59,8.66,7.04.11,10.07-2.36,10.27-8.55.12-3.83.04-7.66.04-11.49,0-10.85,0-21.69,0-32.76h-5.4Zm44.31,52.54h8.42c-.58-2.64-1.43-5.07-1.59-7.53-.26-3.98.04-7.99-.1-11.98-.13-3.49.52-5.54,4.84-5.57,5.26-.04,8.92-3.25,9.65-8.44.87-6.17,2.18-12.75-3.67-17.59-.84-.7-2.11-1.19-3.2-1.21-4.92-.13-9.84-.06-14.26-.06.4,2.62,1.05,5,1.07,7.39.11,12.15.12,24.3,0,36.45-.03,2.83-.75,5.65-1.16,8.55Zm-221.92.05c-.86-3.14-1.83-5.93-2.36-8.8-2.42-13.24-4.66-26.51-7.11-39.75-.26-1.39-1.5-2.6-2.28-3.9-.85,1.2-2.2,2.3-2.46,3.62-1.39,7.01-2.47,14.07-3.71,21.11-1.63,9.23-3.3,18.46-4.97,27.75h3.94c.84-4.17,1.16-8.2,2.69-11.71.4-.91,6.22-1.01,6.67-.08,1.68,3.42,2.14,7.43,3.19,11.75h6.4Zm202.92.08c-.64-2.39-1.65-4.64-1.79-6.95-.28-4.48,0-8.98-.1-13.48-.08-3.3,1.12-4.65,4.64-4.73,5.25-.13,8.74-3.11,9.8-8.32,1.28-6.31,1.89-12.61-3.46-17.65-.58-.54-1.44-1.04-2.2-1.09-5.2-.33-10.4-.53-15.97-.79,2.67,7.22,2.36,47.46-.08,53.01h9.17ZM99.1,50.28c8.99,3.16,11.16,10.15,12.3,18.15,8.77-2.41,17.28-4.75,26.27-7.23-1.84-3.42-2.63-7.44-4.97-8.78-10.26-5.89-21.27-6.97-33.6-2.14Zm92.84,104.88c.26-.04.52-.08.78-.12,0-3.65-.09-7.31.03-10.96.09-2.65-.8-4.1-3.64-4.08-6.32.04-12.64-.15-18.95.13-1.28.06-3.44,1.72-3.56,2.82-.43,3.98-.17,8.03-.17,12.06,1.75-2.94,2.44-6.06,3.81-8.85.81-1.63,2.71-2.72,4.12-4.05.72,1.61,2.05,3.2,2.07,4.82.17,13.13.15,26.27.03,39.41-.02,2.14-.83,4.27-1.29,6.42h9.01c-.66-1.87-1.75-3.53-1.76-5.2-.15-13.97-.17-27.93-.01-41.9.01-1.2,1.59-2.39,2.44-3.59,1.2.93,2.95,1.61,3.49,2.82,1.47,3.3,2.43,6.83,3.6,10.28Zm125.59-1.01v-12.48c-2.82-.47-5.19-.74-7.49-1.28-6.24-1.45-9.88,1.13-9.87,7.44,0,2.78.2,5.78,1.24,8.29,2.16,5.19,5.06,10.07,7.45,15.18,1.96,4.19,4.01,8.41,5.24,12.84.48,1.73-1.19,4.06-1.88,6.11-2.12-.93-4.84-1.35-6.23-2.93-1.98-2.26-3-5.37-4.49-8.23v12.7c1.92,0,3.6-.33,5.1.05,9.68,2.49,14.84-1.84,12.28-11.65-1.73-6.59-5.69-12.59-8.6-18.89-1.87-4.06-4.01-8.05-5.29-12.3-.54-1.82.81-4.2,1.3-6.33,2.09.96,4.73,1.42,6.13,2.99,2.13,2.39,3.4,5.55,5.09,8.48Zm-102.2,38.63c-.53-2.18-1.43-4.2-1.45-6.22-.13-13.32-.15-26.65.05-39.97.02-1.53,1.6-3.04,2.46-4.56,1.31,1.26,3.06,2.3,3.82,3.83,1.31,2.66,2,5.62,2.95,8.46.75-.74.84-1.23.83-1.72-.33-14.69,2.31-12.65-12.66-12.58-15.36.07-13.04-2.74-13.17,13.54,0,.21.3.43.67.94,1.02-2.98,1.64-5.78,2.92-8.24.86-1.65,2.64-2.83,4.01-4.22.83,1.72,2.36,3.42,2.39,5.15.21,12.49.18,24.98.05,37.47-.03,2.67-.78,5.34-1.22,8.12h8.35Zm-85.63,0c-.67-2.19-1.63-3.89-1.64-5.6-.12-13.83-.13-27.66.04-41.49.02-1.22,1.56-2.43,2.4-3.65,1.24.89,3.02,1.51,3.61,2.71,1.35,2.75,2.11,5.79,3.11,8.71.93-3.55,1.25-7,.76-10.34-.17-1.19-2.26-2.91-3.55-2.98-6.15-.32-12.33-.31-18.48-.01-1.25.06-3.31,1.81-3.44,2.96-.43,3.89-.17,7.85-.17,11.78,1.61-2.67,2.47-5.36,3.38-8.03.78-2.31,1.18-5.57,4.56-4.5,1.15.36,2.01,3.4,2.04,5.23.17,12.66.15,25.33.04,37.99-.02,2.36-.77,4.71-1.21,7.22h8.56Zm321.21-52.47c1.89,7.19-2.13,12.77-3.86,18.99-2.01-6.36-5.54-12.2-4.13-18.94h-7.49c5.11,17.35,11.2,34.17,6.77,52.39h8.58c-4.85-18.45,1.11-35.26,6.73-52.45h-6.59Zm-36.04,52.66c4.17,0,9.49.19,14.78-.14,1.22-.08,3.18-1.86,3.33-3.05.45-3.53.16-7.15.16-10.74-2.08,2.66-2.82,5.82-4.56,8.26-1.17,1.64-3.76,2.27-5.72,3.35-.7-1.63-1.98-3.24-2.01-4.88-.17-12.48-.16-24.96-.04-37.43.02-2.66.7-5.32,1.08-7.99h-7.02c.57,17.58.56,34.77,0,52.62Z"/>
      <path d="m396.2,104.88c.43-1.2.63-2.56,1.34-3.57,5.31-7.59,10.57-15.23,16.21-22.58,1.53-1.99,4.18-3.28,6.54-4.43,2.82-1.38,6.32-4.18,8.85-.56,2.28,3.26.37,7.05-2.46,9.28-9.73,7.68-19.71,15.05-29.6,22.53-.29-.22-.58-.44-.87-.67Z"/>
      <path d="m498.48,82.34c11.79-13.25,24.15-25.92,39.91-36.78-.86,8.45-27.34,32.35-39.91,36.78Z"/>
      <path d="m209.87,82.37c3.75-6.98,8.48-12.19,15.02-15.57,1.16-.6,2.77-.32,4.18-.44-.07,1.52.34,3.27-.28,4.53-4.27,8.75-10.19,12.39-18.92,11.48Z"/>
      <path d="m264.13,166.39c.61-6.47.98-12.78,1.95-19,.28-1.78,2.32-3.29,3.56-4.92,1.29,1.53,3.38,2.89,3.76,4.62,2.85,13,2.53,26.09-.14,39.08-.33,1.58-2.31,2.83-3.53,4.23-1.2-1.44-3.21-2.75-3.45-4.34-1.01-6.55-1.48-13.17-2.14-19.67Z"/>
      <path d="m234.88,166.05c.65-6.18,1.08-12.49,2.11-18.71.29-1.79,2.3-3.29,3.52-4.92,1.3,1.54,3.39,2.91,3.76,4.64,2.8,13.02,2.55,26.12-.12,39.13-.33,1.58-2.34,2.82-3.57,4.22-1.19-1.45-3.18-2.78-3.44-4.39-1.04-6.56-1.55-13.2-2.27-19.97Z"/>
      <path d="m402.45,153.73c-.49,2.67-.46,5.7-1.69,8.07-.85,1.64-3.45,2.39-5.26,3.53-.85-1.52-2.32-3-2.43-4.58-.33-4.6-.33-9.26-.01-13.87.11-1.62,1.5-3.15,2.3-4.72,1.94,1.2,4.64,1.97,5.64,3.71,1.22,2.14,1.02,5.09,1.45,7.86Z"/>
      <path d="m152.09,159.79c1.01,5.39,2.02,10.79,3.25,17.35-2.52,0-4.69.36-6.58-.21-.58-.17-.7-2.94-.49-4.45.61-4.27,1.51-8.49,2.29-12.74.51.02,1.01.03,1.52.05Z"/>
      <path d="m374.75,153.36c-.51,2.94-.44,5.98-1.65,8.37-.84,1.66-3.44,2.43-5.25,3.59-.85-1.55-2.31-3.05-2.43-4.65-.33-4.64-.34-9.33,0-13.96.12-1.58,1.84-4.42,2.49-4.32,1.87.27,4.38,1.33,5.13,2.84,1.21,2.4,1.2,5.41,1.7,8.13Z"/>
    </g>
  </g>
</svg>