<?xml version="1.0" encoding="UTF-8"?>
<svg id="Capa_2" data-name="Capa 2" xmlns="http://www.w3.org/2000/svg" viewBox="0 0 282.23 261.59">
  <g id="Capa_1-2" data-name="Capa 1">
    <g>
      <path d="m279.48,173.68c-2.58-7.23-6.65-12.55-11.57-16.45v-.03c-2.04-1.59-4.21-2.97-6.49-4.1,0,2.44-.18,4.93-.54,7.49,2.15,1.35,4.13,2.94,5.93,4.85,2.61,2.8,4.78,6.25,6.29,10.5,8.7,24.42-9.54,45.17-18.16,53.24l-6.59-31.31-1.39-6.74c-1.93.03-4.37-.03-7.01-.39l1.46,6.98,9.17,43.65,4.26-3.16c1.53-1.14,37.45-28.49,24.65-64.54Z"/>
      <path d="m249.17,112.47c-5.17-4.26-11.04-7.55-17.24-9.9-3.76-1.43-7.66-2.54-11.58-3.24,2.85,2.65,5.22,5.6,7.12,8.77,3.24,1.08,6.41,2.5,9.41,4.17,2.81,1.56,5.49,3.38,7.99,5.43,11.13,9.17,16.67,21.3,16.54,35.4,0,2.44-.18,4.93-.54,7.49-1.34,9.53-5.02,19.74-11.1,30.41-.71.06-1.68.11-2.82.14-1.93.03-4.37-.03-7.01-.39-5.37-.73-11.6-2.59-16.07-7.14-1.85-1.86-3.31-4.1-4.35-6.64-.85-2.05-1.45-4.28-1.76-6.74-1.96.03-4.34-.11-6.88-.61.25,2.52.7,4.88,1.37,7.08,1.4,4.59,3.68,8.5,6.86,11.71,6.49,6.54,15.36,8.74,22.3,9.32.25.05.48.06.73.08,2.4.17,4.5.15,6.21.08,2.31-.12,3.8-.32,4.03-.36l1.58-.23.81-1.39c6.17-10.46,10.17-20.71,12.04-30.46.54-2.77.91-5.53,1.1-8.21v-.03c1.28-17.83-5.01-33.41-18.74-44.73Z"/>
      <path d="m169.38,248.51c-3.55-.25-28.42-2.57-73.92-6.9C39.13,236.26-2.74,187.81.14,131.31l1.29-25.42c.24-4.42,2.19-8.47,5.49-11.4,3.3-2.94,7.55-4.4,11.96-4.12l50.99,3.2,61.63,72.36c9.54.3,57.67,3.67,78.87,39.52,8.77,14.84,10.83,25.23,6.3,31.76-4.65,6.68-14.37,6.08-17.38,5.7-3.83,1.18-20.91,6.26-29.91,5.61ZM66.58,100.14l-48.12-3.02c-2.59-.16-5.09.7-7.03,2.43-1.94,1.73-3.09,4.11-3.23,6.7l-1.29,25.41c-2.69,52.87,36.49,98.21,89.19,103.22,44.81,4.26,70.32,6.64,73.77,6.88,7.19.52,22.74-3.83,28.12-5.54l.8-.26.82.15c2.38.41,9.08.72,11.51-2.79,1.58-2.29,2.84-8.52-6.57-24.44-21.14-35.76-74.1-36.23-74.63-36.23h-1.56s-61.77-72.52-61.77-72.52Z"/>
      <path d="m236.89,112.27c-1.26-3.41-2.9-6.65-4.96-9.7-2.59-3.91-5.82-7.49-9.71-10.66-21.02-17.32-53.77-17.54-72.99-.55l-2.12,1.89,1.5,2.44c1.09,1.78,2.11,3.47,3.1,5.11,6.92,11.54,12.43,20.74,31.12,34.8-.49,15.13,3.36,26.36,11.43,33.45,5.66,4.98,12.39,6.97,17.99,7.65.73.08,1.44.16,2.11.21,1.92.14,3.68.12,5.16.06,2.51-.1,4.15-.41,4.38-.45l1.5-.29.78-1.31c13.68-23.24,17.18-45.22,10.71-62.64Zm-15.73,57.79c-.83.08-2,.17-3.39.15-1.96.03-4.34-.11-6.88-.61-4.01-.77-8.43-2.37-12.17-5.64-6.76-5.94-9.79-15.95-9.05-29.84l.1-1.81-1.48-1.1c-18.74-13.87-23.79-22.26-30.76-33.9-.53-.86-1.07-1.75-1.63-2.67,16.85-12.82,44.55-11.91,62.04,2.49.83.68,1.66,1.42,2.43,2.19,2.85,2.65,5.22,5.6,7.12,8.77,9.59,15.94,7.55,37.71-6.32,61.96Z"/>
      <path d="m248.11,198.38s-2.43-.04-6.46-.55l12,54.33-41.4-11.12c1.67-.88,3.21-2.12,4.41-3.84,4.54-6.52,2.48-16.91-6.29-31.75h0c-20.57-34.78-67.74-38.97-78.01-39.47L31.9,53.93c-5.6-6.25-6.15-15.16-1.22-19.87l26.13-25.02c4.42-3.96,12.01-2.73,16.94,2.75l73.8,81.13,4.49-3.36L78.77,7.26c-7.41-8.24-19.28-9.7-26.56-3.18l-26.21,25.09c-7.68,7.33-7.3,20.19.85,29.28l102.4,114.19,1.45.04c5.47.16,53.84,2.41,73.84,36.2,9.41,15.92,8.15,22.14,6.57,24.43-2.43,3.51-9.13,3.19-11.51,2.78l-.84-.15-.81.26s-1.01.33-2.61.79l-11.69,3.36,79.02,21.22-14.12-63.94-.44.73Z"/>
    </g>
  </g>
</svg>