<?xml version="1.0" encoding="UTF-8"?>
<svg id="Capa_2" data-name="Capa 2" xmlns="http://www.w3.org/2000/svg" viewBox="0 0 286.23 246.5">
  <defs>
    <style>
      .cls-1 {
        fill: #fff;
      }
    </style>
  </defs>
  <g id="Capa_1-2" data-name="Capa 1">
    <g>
      <path class="cls-1" d="m282.23,157.6c-3.09-7.02-7.54-12.03-12.73-15.57v-.03c-2.15-1.44-4.42-2.66-6.77-3.62.17,2.44.17,4.93,0,7.51,2.24,1.19,4.34,2.63,6.26,4.41,2.81,2.6,5.22,5.89,7.03,10.02,10.44,23.72-6.25,45.75-14.25,54.42l-8.84-30.75-1.88-6.63c-1.93.17-4.36.29-7.02.12l1.96,6.85,12.3,42.87,4.02-3.46c1.44-1.25,35.29-31.13,19.91-66.15Z"/>
      <path class="cls-1" d="m247.56,98.75c-5.47-3.88-11.56-6.73-17.91-8.62-3.85-1.16-7.82-1.98-11.78-2.4,3.03,2.43,5.61,5.21,7.74,8.23,3.31.85,6.57,2.03,9.69,3.47,2.92,1.36,5.72,2.97,8.36,4.84,11.76,8.34,18.17,20.04,19.06,34.11.17,2.44.17,4.93,0,7.51-.64,9.6-3.58,20.06-8.86,31.13-.71.11-1.67.23-2.8.34-1.93.17-4.36.29-7.02.12-5.41-.33-11.76-1.75-16.55-5.96-1.98-1.73-3.6-3.85-4.82-6.31-.99-1.98-1.76-4.16-2.24-6.6-1.95.17-4.33.2-6.91-.11.43,2.49,1.05,4.81,1.88,6.97,1.73,4.47,4.28,8.21,7.69,11.18,6.94,6.05,15.95,7.6,22.92,7.68.26.03.48.03.74.03,2.41,0,4.5-.17,6.2-.37,2.29-.29,3.77-.6,3.99-.66l1.56-.34.71-1.45c5.4-10.88,8.65-21.39,9.8-31.25.34-2.8.5-5.58.5-8.27v-.03c-.02-17.87-7.42-32.96-21.93-43.26Z"/>
      <path class="cls-1" d="m177.84,240.22c-3.56,0-28.53-.51-74.23-1.52C47.04,237.44,1.78,192.15.55,135.59L0,110.13c-.08-4.43,1.57-8.6,4.65-11.77,3.08-3.17,7.21-4.94,11.63-4.98l51.09-.5,66.71,67.7c9.54-.39,57.78-.52,81.52,33.7,9.83,14.17,12.63,24.38,8.58,31.22-4.15,7-13.89,7.1-16.92,6.95-3.74,1.46-20.4,7.76-29.43,7.76ZM64.56,99.68l-48.22.47c-2.6.03-5.03,1.07-6.84,2.93-1.81,1.86-2.78,4.32-2.73,6.92l.55,25.44c1.14,52.93,43.5,95.31,96.44,96.49,45,1,70.62,1.52,74.07,1.52,7.21,0,22.4-5.46,27.65-7.57l.78-.31.83.09c2.41.24,9.11.06,11.28-3.61,1.41-2.4,2.21-8.7-8.33-23.9-23.68-34.13-76.53-30.77-77.06-30.72l-1.56.11-66.86-67.85Z"/>
      <path class="cls-1" d="m235.3,99.44c-1.5-3.31-3.38-6.43-5.64-9.31-2.86-3.71-6.35-7.05-10.46-9.93-22.22-15.76-54.9-13.6-72.84,4.74l-1.98,2.04,1.67,2.32c1.22,1.7,2.35,3.31,3.46,4.87,7.74,11.01,13.9,19.78,33.56,32.46.61,15.12,5.26,26.05,13.82,32.53,6.01,4.55,12.86,6.05,18.5,6.33.74.03,1.44.06,2.12.05,1.93,0,3.68-.14,5.15-.32,2.49-.29,4.11-.71,4.33-.77l1.47-.4.68-1.36c11.96-24.17,13.86-46.35,6.14-63.25Zm-11.5,58.78c-.82.14-1.98.31-3.37.4-1.95.17-4.33.2-6.91-.11-4.05-.48-8.58-1.75-12.55-4.75-7.17-5.43-10.92-15.2-11.19-29.11l-.03-1.81-1.56-.99c-19.7-12.47-25.34-20.48-33.14-31.58-.6-.82-1.19-1.67-1.82-2.55,15.88-14.01,43.57-15.11,62.05-2.01.88.62,1.76,1.3,2.58,2.01,3.03,2.43,5.61,5.21,7.74,8.23,10.72,15.2,10.26,37.06-1.81,62.25Z"/>
      <path class="cls-1" d="m252.73,184.51s-2.42.14-6.48-.08l15.91,53.32-42.1-8.09c1.6-1,3.05-2.35,4.12-4.15,4.06-6.84,1.25-17.05-8.57-31.22h0c-23.04-33.19-70.38-33.96-80.66-33.71L26.63,56.1c-6.04-5.82-7.23-14.67-2.65-19.73l24.25-26.84c4.12-4.27,11.78-3.59,17.1,1.52l79.48,75.57,4.23-3.67L70,6.16c-7.98-7.68-19.94-8.28-26.72-1.25l-24.32,26.92c-7.13,7.86-5.82,20.66,2.97,29.14l110.4,106.48,1.45-.07c5.46-.24,53.88-1.5,76.27,30.76,10.54,15.2,9.73,21.49,8.32,23.89-2.17,3.68-8.88,3.85-11.27,3.61l-.85-.09-.79.32s-.98.4-2.55.98l-11.42,4.2,80.35,15.44-18.72-62.74-.38.76Z"/>
    </g>
  </g>
</svg>