<?xml version="1.0" encoding="UTF-8"?>
<svg id="Capa_2" data-name="Capa 2" xmlns="http://www.w3.org/2000/svg" viewBox="0 0 604.85 320.53">
  <g id="Capa_1-2" data-name="Capa 1">
    <g>
      <path d="m192.63,48.15c-3.93-3.96-8.41-5.95-11.52-10.56-2.7-2.76-3.98-9.6,1.75-8.77,2.53.13,22.26,8.94,19.94,2.57-2.04-8.74,6.85-3.8,11.17-4.47,17.83-1.68,37.74-14.6,55.09-7.55,16.81,10.09-2.4,24.78,5.91,31.01,14.07,9.88,4.6,1.93,12.54-2.68,3.65-1.95.91-16.05,1.71-20.56-1.49-5.64-8.98-6.77-7.91-15.32.03-11.65,16.11-16.77,22.04-5.59,5.93,11.11-5.2,15.61-4.1,25.79,1.01,4.34-2.08,13.52,1.94,15.89,7.41,4.52-1.95,12.29,11.85,2.63,8.46-5.51-11.23-23.72,7.75-31.95,18.07-5.18,35.71,6.91,53.68,8.38,4.45.45,13.3-4.25,10.8,4.55-2.29,6.19,17.71-2.72,20.33-2.86,8.52.84.94,10.98-2.76,13.56-2.84,2.29-4.92,3.01-7.41,6.17,6.85.58,16.68-3.96,22.5-7.7,1.49-1.11,2.91-1.28,4.36.03,4.71,4.91-3.66,12.41-7.06,15.98-10.3,9.52-23.89,10.78-37.21,13.07,4.19,3.62,10.56-1.94,13.71,2.77,1.98,3.99-3.36,6.66-5.97,8.65-7.53,4.57-15.75,4.73-24.35,4.74,1.88,2.7,2.11,6.25,5.53,6.5,12.94,1.38,25.95,1.83,38.9,2.97,25.1,2.54,50.18,5.34,75.11,9.27,33.46,4.86,66.57,11.69,99.54,19.11,5.44.13,6.13-11.3,18.73-5.63,8.3,4.29,7.22,17.63-1.86,20.23-2.12.44-4.46,1.26-4.22,3.91.01,37.1,0,74.22,0,111.33,1.14,9.86-8.05,2.94-13.38,2.69-23.94-5.55-48.07-10.16-72.26-14.46-6.35-1.96-3.86,5.84-4.27,9.62.13,2.36.58,2.79,2.84,3.1,19.65,2.8,39.49,5.03,58.79,9.42-8.3,6.95-16.04,13.8-24.22,20.8-2.15,1.85-2.36,2.57-.59,4.78,8.04,10.49,17.18,20.05,24.66,30.94-39.65-5.77-79.25-12.78-119.32-15.59-38.48-4.54-26.61,4.91-28.47-33.25,0-4.22-.66-4.76-4.78-5.08-12.97-.9-25.9-2.39-38.88-3.05-23.63-1.09-47.26-2.11-70.92-2.17-2.03-.03-3.65.35-4.91,2.32-1.39,2.19-5.19,2.16-6.63-.08-1.28-1.98-2.91-2.29-4.93-2.25-26.67.33-53.31.92-79.88,3.29-9.44.65-18.87,1.35-28.31,1.95-6.24.4-6.39.49-6.4,6.75-1.73,35.39,8.51,27.45-21.97,30.72-42.1,3.9-84.2,9.56-125.77,16.32,11.39-9.8,22.33-18.95,33.69-28.61,2.03-1.72,2.05-2.6-.21-4.22-11.34-8.13-21.92-15.45-33.59-23.67,20.51-4.54,41.64-6.57,62.48-9.63,4.8-.64,2.42-6.99,2.97-10.33.01-1.66-.91-2.31-2.44-2.28-28.87,4.78-57.3,11.43-85.91,17.39-1.19-42.81-.07-85.66-.45-128.5,0-3.51.19-3.64,3.65-4.44,7.1-1.65,14.17-3.46,21.28-5.09,48.86-11.04,98.4-19.16,148.25-24.17,15.29-1.59,30.59-2.93,45.93-3.86,5.51.22,4.56-3.47,8.01-6.99-7.89-.21-15.22.14-22.34-3.6-3.23-2.25-10.39-4.69-8.46-9.71,2.95-5.16,9.25.97,12.88-2.98-16.49-2.43-34.1-5.69-43.3-21.41-3.11-3.3-.95-10.65,4.11-7.62,3.97,2.64,18.45,9.58,22.51,7.51Zm122.53,165.64c-1.03,12.06-.11,24.38-.41,36.51-.01,1.98.23,3.91,2.71,3.68,57.52.62,114.8,6.56,171.6,15.48,3.73.56,4.13.32,4.13-3.46.02-11.08.02-22.15.04-33.23,0-2.7-.28-3.13-2.99-3.58-57.94-9.24-116.36-15.27-175.09-15.4Zm-188.58-51.47c-.24.06-.47.13-.71.19-8.43-13.13-16.56-26.45-24.85-39.66-3.75-4.91,3.94-3.63,5.16-7.57-10.75,4.65-30.42,1.06-36.89,9.02,2.55,1.78,6.09-4.06,6.21,1.32-1.18,11.7,2.77,31.84-2.35,41.41-.88,1.12-1.03,2.15-.06,3.16,5.2,7.2,1.19,28.38,2.48,38.4.77,6.51-5.28,4.52-5.03,8.57,10.01-6.35,27.95-.31,34.16-9.57-2.97.27-6.59,3.76-6.58-.9.51-15.12-1.13-30.31.69-45.29,10.2,14.72,18.03,28.64,27.74,43.73h-7.09l-.23.81c11.52,5.98,24.29-5.48,36.44-1.7.12.04.34-.21.56-.37.26-1.99-1.29-1.81-2.49-2.02-3.51-.61-3.72-.82-3.73-4.33-.02-10.1.02-20.21-.02-30.31-1.08-5.7,4.81-10.13,2.44-12.27-5.27-7.61-1.08-26.95-2.54-37.12-.82-8.58,6.64-5.26,6.42-9.81-4.45,1.27-8.59,3.12-13.43,2.72-4.27.2-22.19-.42-20.95,5.9,2.58-1.31,5.42-2.68,5.12,1.44-.3,14.72.58,29.6-.49,44.25Zm-27.28,87.32c0,5.59,0,11.18,0,16.77,0,3.38.45,3.73,3.76,3.19,31.27-5.11,62.76-9.08,94.33-11.83,24.1-2,48.27-3.08,72.44-3.6,3.3-.1,3.68-.32,3.69-3.39.05-11.4.04-22.8,0-34.2,0-2.6-.45-3.03-3.03-2.97-28.39.13-56.67,2.54-84.95,4.88-27.84,2.29-55.5,6.25-83.06,10.7-3.09.49-3.18.64-3.19,3.67-.01,5.59,0,11.18,0,16.77Zm167.95-59.35c-.17-.23-.34-.46-.5-.69-2.74.93-5.94,4.93-7.48.53-8.85-16.57-17.63-33.17-26.55-49.7-4.15-3.74,21.12-29.3,24.43-35.57,3.61-5.67,5.87-.12,10.2-.79-12.01-13.57-30.38,7.65-44.36-1.01-.36-.22-1.06.08-1.81.17,2.44,3.44,4.69,3.43,1.47,7.26-5.75,8.3-11.47,16.62-17.2,24.93-.7,1.01-1.23,2.22-2.72,2.27-.82-9.44-.02-19.24-.32-28.8,0-3.77,4.51-2.5,5.94-6-4.9.8-8.83,2.87-13.88,2.07-5.87,0-18.82-1.39-21.52,4.73,1.87-.24,3.28-.43,4.94-.64.59,11.39.11,22.53.24,33.9-.01,3.47-.19,6.88-2.87,9.6-1,1.02-.7,2.16.33,3.11,5.25,6.46,1.31,30.23,2.56,39.99.22,3.15-3.34,3.75-5.26,5.51.73.66,1.31.91,1.66.73,4.48-2.38,9.33-2.13,14.17-2.24,6.63-.96,18.18,1.76,21.63-5.25-3.32.72-8.4,4.47-7.98-.95-.05-5.38-.11-10.76.05-16.13.34-4.25,8.93-15.19,12.37-17.88,5.28,9.02,8.65,19.24,13.27,28.68,1.86,4.54-6.2,4.35-6.74,8.34,4.63-1.32,8.04-4.88,13.28-3.67,10.37.54,25.1,7.54,32.63-2.5Zm311.2-31.35c-.07-7.97,2.47-16.28,1.05-24.21-20.1-2.04-39.57-9.47-59.73-11.5,5.9,13.97,1.77,29.26,2.9,43.96.91,5.55-4.44,8.69-2.49,11.43,5.36,12.98,1.42,28.06,2.54,41.83.4,4.12-1.55,7.1-2.6,10.96,19.8,4.08,39.56,7.78,59.03,12.9,1.11-8.17,2.24-17.26,1.51-25.51-11.59-.66-22.41-4.48-33.78-6.55-2.22-.49-2.97-1.27-2.99-3.5-.34-26.2-2.8-17.28,26.87-12.33,1.34-6.7,1.66-13.74,1.67-20.59-.25-3.85-6.4-2.18-9.07-3.44-4.18-1.78-20.43-1.95-19.49-7.41.71-3.2-2.38-15.66,3.34-13.27,10.68,2.18,20.31,4.58,31.25,7.23Zm-201.88-35.56c.1-6.72,1.34-13.52,1.21-20.85-17.22.79-33.98-1.97-50.97-1.33,2.66,11.91,1.25,23.54,1.56,35.55,1.02,4.81-3.75,8.94-2.14,11.59,4.47,9.27,1.14,20.52,2.17,30.54.51,4.8-.77,9.26-1.83,13.73,15.97,1.78,32.25,1.83,48.31,3.04,2.25.13,2.52.04,2.68-2.07.19-6.5,1.66-13.02.63-19.49-9.59.76-19.04-.87-28.63-1.16-2.32-.16-2.86-.77-2.9-3.01-.47-21.35-1.95-13.57,23.1-13.7,2.69-26.77,3.69-17.51-20.15-20.4-5.18.31-2.4-7.56-3.06-10.87.05-3.13.45-3.54,3.62-3.38,9,.51,17.3.91,26.4,1.81Zm65.11-13.86c-16.48-1.98-32.15-3.4-48.52-5.06-2.25-.22-2.52.29-1.89,2.57,2.54,10.52.93,21.63,1.35,32.38-.03,3.39.06,6.89-1.99,9.98-.42.63-.35,2.03.07,2.71,2,3.22,1.93,6.79,1.97,10.31-.44,11.44,1.57,23.28-1.93,34.24,16.87,1.75,33.59,3.49,50.3,5.22,1.21-3.3,2.1-18.36,1.26-21.2-9.3-.67-18.56-1.75-27.83-2.79-3.19-.37-3.47-.73-3.5-3.8-.03-3.55-.04-7.09,0-10.64.03-3.29.29-3.62,3.51-3.33,5.56.5,11.11,1.15,16.66,1.76,2.86.31,3.1.27,3.35-2.38.23-5.46,1.47-11.07.46-16.48-7.48-.76-14.41-1.31-21.52-2.13-4.4-1-1.83-7.3-2.48-10.59.04-3.71.45-4.19,4.14-3.77,8.54.79,16.87,2.54,25.45,2.95.42-6.9,1.79-13.5,1.12-19.96ZM59.91,232.68l-.42-.68c-3.77.31-10.39,6.75-9.4-1.14,1.47-13.44-4.01-40.6,4.59-49.97-8.71-6.19-3.1-36.88-4.68-48.53-.23-6.21,9.45-3.66,9.68-9.54-14.24,7.99-31.98,3.03-45.76,12.25-.84.56-1.71.99-.84,2.57,2.62-1.19,5.24-2.39,8.4-3.83.73,14.4.04,28.43.29,42.81.01,3.65-.55,7.07-2.92,9.97-1.1,1.35-1,2.44.26,3.62,5.71,7.37,1.25,36.09,2.67,47.37,0,3.96-5.23,4.11-7.69,6.31-2,.74-1.38,3.49.79,1.92,13.6-8.51,32.81-1.97,45.01-13.13Zm449.03-40.57c-8.59-1.43-16.75-2.76-24.89-4.15-2.08-.35-2.43-1.13-1.64-3.19,7.89-20.64,15.76-41.29,23.63-61.93,2.49-5.5-6.5-4.02-9.62-5.15-13.04-2.08-26.07-4.15-39.46-6.29-.41,6.89-2.38,13.53-1.14,20.5,6.7-.15,12.89,1.5,19.47,2.27,3.14.48,3.42,1.07,2.29,4.02-7.91,20.74-15.66,41.54-23.58,62.28-1.25,2.7.43,3.24,2.81,3.47,6.91,1.01,13.83,1.95,20.72,3.05,10.02,1.6,20.03,3.32,30.34,5.03.06-6.72,1.63-13.34,1.06-19.92Zm-228.69-85.22c-.76,11.62.02,23.4-.32,35.07-.13,6.92,8.66,6.78,13.7,7.24,6.58.19,8.46-1.76,8.48-8.36-.21-10.31.54-20.91-.38-31.14-7.82.59-14.19-.28-21.48-2.82Zm124.73-72.77c-.13-.31-.26-.62-.38-.93-34.54,14.77-75.22-9.52-75.74,3.15,1.85,2.24,6.1,2.13,8.83,2.94,11.37,2.36,22.88,3.26,34.43,4.09-14.17,3.71-29.28-1.06-43.64-2.3.43,2.59-.75,5.87,2.45,6.18,3.63.37,7.24,1,10.87,1.27,21.13,1.12,48.87,4.83,63.19-14.41Zm-188.67,9.97c0-.27,0-.53-.01-.8,13.76-1.3,27.61-1.94,41-5.61.8-.18,2.02-.99,2.03-1.54-1.33-12.02-39.54,11.51-76.35-2.89,9.18,15.35,29.63,16.62,45.72,16.27,9.1-.47,18.18-1.48,27.27-2.25,4.49.13,3.93-2.77,3.44-6.46-14.37,2.75-28.65,4.69-43.11,3.29Zm71.38,31.86h-.01c1.23,6.52-3.76,27.86,5.12,28.2,1.59.04,3.17-1.55,3.63-3.58,1.19-15.37.38-30.94.76-46.37-2.47-7.62-1.57-15.54-1.86-23.45-.18-3.84.57-7.13,3.14-10.1,4.7-4.77,3.53-15.06-3.39-16.76-9.86-2.34-13.25,12.14-5.71,16.81.45.42,1.31.34,1.71.03.91-1.22-.81-2.17-1.43-3.09-7.04-6.28,3.94-17.54,8.38-8.05,1.28,3.82.68,7.29-1.92,10.24-5.79,7.7-1.86,18.51-2.93,27.53.02,1.84-.49,2.94-2.46,3.5-2.8.8-3,1.26-3.01,4.14-.03,6.98,0,13.97,0,20.95Zm52.04-15.19c0,.26,0,.52-.01.78,25.04,5.32,63.71,10.04,79.05-15.63-1.09-.63-1.52-.2-2.44.18-13.89,7.75-29.96,7.86-45.42,8.21-6.74.85-15.49-3.6-20.14,3.12,13.84,2.94,27.56,1.43,41.43,1.4-13.24,4.49-27.96,2.52-41.68,1.03-3.5-.2-7.56-.77-10.8.9Zm-101.59-3.04c-2.7-2.88-5.03-4.47-8.52-4.1-9.96,1.06-19.93,1.12-29.91.08-10.81-.61-20.35-4.34-30.28-8.28,13.52,25.95,55,21.63,79.15,16.09l.04-.74c-3.16-1.68-7.02-1.33-10.43-1-14.3,1.6-28.65,3.75-42.67-1.18,14.97.68,27.69,1.23,42.62-.88Zm141.73-27.03c-18.62,2.28-76.29-30.14-60.92,12.25,2.31,6.27-2.04,10.16-7.23,12.86-5.27,2.98-8.35,10.06-4.83,15.4.24-.06.48-.11.72-.17-2.5-15.44,17.24-11.18,16.83-25.06-2-15.31-2.11-21.11,15.65-17.84,9.03,1.06,33.47,9.76,39.78,2.55Zm-170.92.03c5.74,6.57,24.76.18,32.58-1.14,7.92-2.1,25.47-6.41,23.16,7.37-.55,3.05-.79,6.17-.91,9.27.63,14.79,17.57,7.59,17.39,25.12,8.51-16.75-17.46-14.66-11.65-29.12,15.16-41.1-42.64-9.15-60.57-11.5Zm178.15,44.86c-.17-.29-.34-.58-.51-.87-14.37.44-28.69-2.28-41.81-8.27-1.89-.89-2.3-.64-3.8,1.69,7.31,4.43,15.67,6.16,23.54,9.29-8.14,1.11-16.55-2.97-23.7-6.56-3.28-1.99-6.24-.88-9.51-.36,15.67,9.87,39.54,17.52,55.79,5.07Zm-185.55-1.02c-.15.36-.3.71-.45,1.07,17.03,12.88,39.22,3.79,56.2-4.43-1.89-2.1-6.19-2.09-8.96-.76-7.71,4.06-16.33,7.61-25.12,7.39,7.96-3.46,16.5-5.12,23.9-9.67-1.28-2.46-1.47-2.57-3.66-1.6-13.22,5.7-27.49,8.85-41.9,8Zm92.96,160.08c-9.02-4.17-4.23-21.98-5.31-30.42.45-3.4.12-10.19,4.69-10.28,2.25-.09,3.68.75,4.3,3.07,1.32,8.33,3.2,30.48-2.28,36.66,6.98,3.92,4.47-18.57,4.94-22.34-.48-5.09,1.21-11.91-.95-16.4-6.75-3.18.97-11.82-8.68-12.74-2.93-.73-3.46-.36-3.49,2.61.11,14.68-.79,29.48-.09,44.11,2.85,10.12,6.4,20.07,6.41,30.68.21-4.72,1.53-9.58,1.1-14.1-1.51-3.54-1.2-7.1-.63-10.85Zm64.54-142.94c.06-.27.13-.53.19-.8-7.92-4.16-16.19-7.61-23.12-13.49-.65-.51-1.53-.96-2.31-.98-7.75,1.31,8.59,9.72,10.62,11.67-8.29,1.25-13.64-11.86-21.7-9.76,9.13,8.91,23.15,18.6,36.33,13.35Zm-130.62-.44c13.56,6.04,28.09-3.59,36.96-13.01-8.49-1.14-12.48,9.61-20.9,10.15,3.43-4.63,9.57-6,12.71-10.79-1.74-1.97-3.85-1.29-5.52.21-7.14,5.93-15.08,9.08-23.24,13.45Zm52.82,74.86c-7.12,10.76,18.03,14.73,20.5,5.35.69-1.59.07-2.5-1.63-2.58-6.41.24-13.2,1.24-18.87-2.77Zm256.4,101.76c-.3-.3-.59-.6-.89-.9-11.9,10.31-22.41,22.29-33.79,33.21-.77.77-1.51,1.5-.85,3.18,12.43-11.05,24.42-23.12,35.53-35.5Zm-8.32-1.63c-.32-.25-.64-.49-.96-.74-11.83,10.83-22.73,22.67-34.23,33.86-.63.64-1.66,1.24-.41,2.71,12.27-11.33,24.85-23.13,35.59-35.83ZM238.88,52.79c5.83,6.61,16.35,6.45,23.87,2.94-.94-3.36-7.06.54-11.11-1.33,3-1.42,6.72.31,8.24-3.43-6.54-1.29-13.84,1.54-21,1.82Zm89.2-2.14c1.97,3.8,4.87,2.75,8.06,3.37-3.65,2.43-9.61-1.64-10.63,1.47,6.52,4.33,18.8,3.23,24.02-2.71-5.8-1.23-11.81-.48-17.64-2.32-1.01-.24-2.16.09-3.81.19Zm-235.77,217.04c-13.31,13.06-27.82,25.97-39.67,40.17.21.18.41.37.62.55,13.45-11.38,25.12-24.99,37.88-37.21.82-.84,2.11-1.62,1.17-3.51Zm220.59-188.32c2.78,8.71,12.5,17.29,22.21,15.13-5.28-4.14-10-7.39-13.92-12.83-.72-.81-1.21-2.1-2.89-1.52.19,3.08,3.12,4.68,4.09,7.72-4.47-1.52-4.7-7.02-9.48-8.5Zm-47.07,8.63c1.02-3.25,4.02-4.81,3.69-8.11-5.29,4.8-9.6,10.3-15.73,14.26,6.21,4.03,20.31-7.39,21.14-14.5-4.85,1.21-4.19,6.49-9.1,8.35Zm255.05,177.65c-.19-.27-.38-.53-.58-.8-12.45,10.26-25.18,23.12-35.91,35.57,13.43-8.55,24.17-23.78,36.49-34.77ZM275.61,63.51c-2.05,1.8-2.82,4.18-5.5,4.78.38-2.79,4.1-3.51,3.59-6.87-2.82.09-3.45,2.65-4.98,4.01-1.68,1.5-3.35,3.04-4.79,4.75-1.37,1.63-4.16,1.82-4.63,4.45,4.44,1.12,10.95-1.55,14.73-6.22.94-1.16,3.04-2.22,1.58-4.9Zm62.57,1.82c-4.56-2.98-10.01-3.95-14.23-7.71-.52-.41-1.41-.35-2.26-.53-.17,3.08,3.09,3.09,3.68,5.31-2.75.37-4.07-3.72-7.11-2.24,3.15,5.58,12.75,8.16,19.92,5.18Zm-25.49-1.29c-.25.18-.49.35-.74.53,2.49,6.48,10.2,11.54,17.38,10.06-4.9-4.69-9.44-9.05-14.04-13.46-2.72,2.31,2.33,4.99,3.36,7.08-.21.18-.42.37-.63.55-1.78-1.59-3.55-3.17-5.33-4.76Zm-46.68-7.16c-5.61,3.42-9.94,5.65-16.22,8.41,7.56,2.71,15.99,1.44,20.27-5.21-3.14-1.42-4.37,2.92-7.29,2.08q3.49-3.34,3.24-5.29Zm327.35,78.56c10.05.24,10.19-15.03.21-15.19-9.78-.11-9.89,15.2-.21,15.19Zm-292.23,17.62c-6.35-.41-13.15,1.55-19.24-2.47-3.81.1-.23,4.3,1.52,4.87,4.83,1.52,16.39,4.67,17.72-2.4Zm-.08,8.06c-6.45-.3-12.93,1.39-18.94-2.43-3.91-.7-.9,3.91.97,4.52,4.31,1.89,17.27,4.79,17.97-2.08Zm-208.74,116.55c-9.86,8.67-19.93,18.58-28.42,28.63,2.66,1.74,16.1-15,19.59-17.53,1.57-2.44,10.75-8.71,8.84-11.09Zm215.7-170.51c-.27-.06-.53-.12-.8-.17-1.32,8.46-.29,17.18-.6,25.74.28,4.29-.74,8.11.88,12.29,1.11-3.02,1.31-34.18.52-37.86Zm-218.84,155.51c-1.32-.94-2.15-.02-2.97.79-6.7,7.21-14.65,13.47-20.5,21.35.17.18.34.35.51.53,4.49-1.26,21.34-20.66,22.96-22.68Zm7.61,22.22c-.26-.34-.53-.69-.79-1.03-7.46,5.1-13.11,12.62-19.78,18.73-.58.59-.89,1.45-1.62,2.68,1.23-.09,1.93.08,2.2-.19,6.74-6.66,13.62-13.18,19.99-20.19Zm-36.64-4.09c.24.14.47.28.71.42,2.76-1.28,15.96-14.58,16.89-17.02-1.02-.9-1.75-.24-2.46.48-4.88,5.47-11.23,9.93-15.14,16.13Zm450.19,22.4c.18.28.37.56.55.84,6.29-3.84,10.7-10.39,16.18-15.34.36-.37.46-.99.81-1.76-.77,0-1.33-.17-1.54.03-5.27,5.43-11.65,10.03-15.99,16.24Zm-424.13.72c7.06-3.77,11.37-10.78,17.4-15.97.75-.76,1.95-1.5.5-3.25-5.88,5.81-11.65,11.5-17.4,17.23-.24.24-.21.76-.5,1.99Zm404.79-18.18c-.23-.31-.46-.61-.69-.92-5.81,3.45-10.04,9.17-15.04,14.44,2.24,1.72,13.67-11.16,15.74-13.52Zm41.25,6.48c-.25-.2-.5-.4-.75-.6-4.47,4.24-9.85,8.12-12.81,13.54.8,0,1.36.17,1.57-.03,3.77-4.38,9.54-7.75,11.99-12.91Zm-418.9-5.68c-4.98,1.82-7.43,6.44-11.16,9.82-1.51,1.75-4.01,2.75-4.26,5.62,6.01-2.37,14.4-13.37,15.42-15.44Zm-4.91,13.29c.18.29.36.58.55.87,5.07-1.82,8.17-7.52,12.37-10.92.7-.7.74-1.46-.48-2.33-4.36,3.91-8.55,8-12.43,12.38Zm403.76-35.96c-3.98.68-5.85,4.08-8.43,6.52-1.38,1.31-3.67,2.32-3.25,5.64,4.71-3.71,8.29-7.79,11.67-12.15Zm34.16,5.45c-.18-.29-.37-.58-.55-.87-4.47,1.44-9.3,8.21-12.5,11.94,5.4-2.54,9.16-6.88,13.05-11.07Zm-79.36,28.66c.33.32.66.63.99.95,4.22-3.46,8.04-7.33,11.92-11.88-2.15-1.71-11.24,8.8-12.92,10.93Zm-400.31-32.35c-3.32-.17-6.39,4.81-8.69,6.87-1.07,1.37-3.32,2.01-3.13,4.42,2.35-.54,10.35-8.14,11.82-11.3Zm210.74-197.22c-1.02,2.16-8.07,7.3-5.95,9.31,5.29-1.42,7.21-3.8,5.95-9.31Zm259.13,227.69c-3.27,3.53-8.84,6.28-8.89,10.8,3.07-2.5,10.05-7.06,8.89-10.8Zm-225.68-227.6c-.74,6.13,1.11,8.78,6.3,8.9-.73-3.63-4.2-5.83-6.3-8.9Zm-180.43,221.86c-.16-.36-.32-.72-.48-1.07-3.7.41-9.08,7.72-9.64,9.87,4.06-2.15,6.67-5.96,10.12-8.8Zm327.64,6.18c2.07,3.3,7.88-5.84,10.05-7.18-3.13-1.99-7.32,5.49-10.05,7.18Zm-319.08-6.7c-3.31,1.56-6.96,5.21-7.98,7.9,3.5-.84,6.92-4.74,7.98-7.9Zm164.08-115c4.17-.04,7.04-3.94,4.23-8.2-.47,3.61-1.73,5.57-4.23,8.2Zm238.88,126.74c-3.14.73-4.44,2.67-5.71,4.49-.14,3.84,5.54-2.06,5.71-4.49Zm-85.66-11.16c-2.32-.03-5.64,2.99-6.21,5.65,2.53-.31,5.19-2.74,6.21-5.65Zm-407.12-17.65c3.34-1.07,5.34-3.27,5.4-5.68-2.38,1.21-4.42,2.46-5.4,5.68Zm97.39,18.79c-2.37.78-3.59,2.49-4.88,4.62,3.05.01,4.98-1.9,4.88-4.62Zm294.53,4.11c3.28-1,3.58-1.37,3.24-3.91-1.67.73-3.32,1.29-3.24,3.91Z"/>
      <path d="m360.81,234.93c3.79-25.82,33.7-5.35,18.9,11.05-7.84,6.89-19.11-1.02-18.9-11.05Zm19.57,1.88c-.81-14.81-17.19-15.22-15.52-.08,1.63,11.21,13.89,11.93,15.52.08Z"/>
      <path d="m388.32,224.59c24.14-3.91,22.92,32.55,0,23.42v-23.42Zm14.25,13.34c1.29-8.14-10.79-13.7-10.96-7.48.71,3.55-2.41,17.36,3.08,16.22,4.54.02,7.69-3.47,7.89-8.74Z"/>
      <path d="m423.8,227.6c3.29-.14,3.49.05,3.48,2.71-.03,6.55-.04,13.09-.04,19.64,0,2.3-.54,2.65-2.6,1.95-6.9-.7-12.66,1.63-13.9-7.87.1-5.64-.94-12.34.36-17.68.76-.35,1.89.11,2.73.21,1.09,6.85-3.22,19.25,4.02,22.45,10.77,1.77,3.95-15.55,5.94-21.41Z"/>
      <path d="m360.21,246.29c-7.18,1.66-6.8-8.22-11.7-11.1-2.03,2.78,1.7,11.52-2.12,11.13-1.24-.33-2.23-1.51-1.84-2.94-.01-6.44-.03-12.89-.04-19.33,0-2.33.17-2.54,2.6-2.47,1.5.04,3.02.1,4.49.36,5.23.94,7.2,6.4,3.85,10.56-5.02,4.35,2.44,9.16,4.77,13.78Zm-11.25-12.39c9.95-4.12,1.7-13.25-.82-7.89-.25,2.48-.86,5.06.82,7.89Z"/>
      <path d="m479.12,238.57c-1.25-.18-2.15-.79-3.22-1.31-4.35-1.75-6.74,2.54-3.69,5.26,2.75,2.47,5.89,4.69,8.15,7.64,3.62,4.88-1.62,10.83-7.04,9.56-3.08-.94-5.86-.61-5.9-5.17,2.25.72,4.21,2.01,6.45,2.31,2.59.14,5.43-2.98,3.12-5.31-2.95-3.1-6.88-5.62-9.08-9.33-4.91-10.4,13.89-10.23,11.2-3.66Z"/>
      <path d="m447,234.24c-16.7-9.6-15.38,21.27-.19,17.1,3.78.64-.21,3.86-2.17,3.51-11.39.1-16.57-12.63-10.95-22.14,1.91-4.71,7.77-3.59,11.75-2.73,1.96.47,2.25,1.44,1.56,4.26Z"/>
      <path d="m333.26,234.88c9.11-6.62-1.87-15.42-2.7-7.8-.02,5.47.15,10.93.16,16.4.4,2.83-3.35,3.55-3.44.42.02-6.75.05-13.5.03-20.25,0-4.25,6.38-1.56,8.96-1.45,6.81,2.03,4.84,13.62-3.01,12.69Z"/>
      <path d="m458.84,255.86c-2.74.74-3.21.45-3.19-2.2.03-5.27.07-10.54.1-15.8.6-4.72-2.14-3.48-5.69-4.11-.21-1.68.26-2.88,1.94-2.69,3.8,1.05,10.75.02,13.04,3.27-1,.73-1.74,1.81-3.06,1-2.47-.55-3.09-.14-3.11,2.51-.06,5.99-.02,11.99-.02,18.02Z"/>
      <path d="m129.04,187.55c-4.67-2.46-31.56-44.71-34.35-53.97,4.72,2.66,32.37,46.09,34.35,53.97Z"/>
      <path d="m139.26,127.06c2.16,19.61,1.54,39.82-.35,59.49-.27,0-.55.01-.82.02-1.01-19.7-.49-39.72.12-59.46.35-.02.7-.04,1.05-.05Z"/>
      <path d="m85.95,137.74c2.5,5.32,2.31,50.82-.06,58.93-1.08-1.14-.78-2.47-.79-3.6.36-18.47-1.56-36.97.86-55.32Z"/>
      <path d="m188.37,249.71h-4.11c-1.1-26.57,5.15-20.58-13.55-19.99-2.4-.16-2.96.53-2.94,3.14.02,5.68.14,11.36.35,17.04.3,2.83-2.61,2.21-4.49,2.23-.02-6.47.06-12.44,0-18.83.33-4.37-4.94-1.71-7.42-1.59-1.83-5.36,9.85-3.81,13.16-4.87,4.79.23,25.5-3.84,27.18-.95.25,3-3.85,1.92-5.76,2.04-4.67-1.28-1.55,17.68-2.4,21.78Z"/>
      <path d="m215.03,222.99c25.52,3.28,11.57,32.51-8.45,24.94-14.83-6.83-6.04-24.79,8.45-24.94Zm-11.12,13.01c-.29,13.47,20.45,13.06,20.23-.16-.07-13.18-20.33-12.39-20.23.16Z"/>
      <path d="m247.38,247.85c-29.1-4.19-8.86-37.41,11.51-22.28,9.23,8.68-.04,22.74-11.51,22.28Zm-9.6-13.48c-.83,12.77,20.1,13.8,20.15.8.36-13.75-20.72-13.65-20.15-.8Z"/>
      <path d="m155.88,252.53c-1.68,1.55-3.48,1.12-5.13,1.16-1.86-3.21-1.77-9.27-6.56-8.39-8.43.44-8.19,3.19-10.21,10.58-1.08.22-2.48.52-4.18.87,2-7.69,6.17-14.74,8.97-22.23.5-1.84.56-3.83,2.92-3.95,5.58-1.62,9.64,17.84,14.2,21.96Zm-17.54-8.94c2.72-.8,7.04.39,6.63-2.96-.91-2.25-1.17-4.52-3.88-5.33-.94,2.85-1.72,5.21-2.75,8.29Z"/>
      <path d="m115.99,258.46v-20.7c-2.77-1.3-4.94.55-7.31.99-2.72-6.11,14.08-4.71,17.73-6.23,2.35-.76,2.66,3.05.37,3.14-2.85.3-6.91-.92-6.42,3.37-.07,5.27-.09,10.53.03,15.8.08,3.58-.12,3.88-4.4,3.63Z"/>
      <path d="m190.46,120.1c1.87,7.16,1.37,60.7-.85,65.82-2.15-21.72-1.2-44.09.16-65.88.23.02.46.04.69.07Z"/>
      <path d="m234.41,114.31c-1.03,4.77-23.25,33.01-28.77,36.85.95-4.45,21.99-31.53,28.77-36.85Z"/>
      <path d="m534.33,143.27c2.62,8.23,2.04,69.46-.15,74.11-1.44-.81-1.11-2.24-1.15-3.4-.59-23.51-1.11-47.35,1.3-70.72Z"/>
      <path d="m337.05,118.22c2.23,5.71,2.28,51.89-.28,59.86-2.04-19.82-1.52-40.02.28-59.86Z"/>
      <path d="m401.13,182.77c-2.08-19.42-1.42-39.61.22-59.19,1.59,1.24,1.25,2.62,1.27,3.74.09,18.46,1.2,37.09-.75,55.45-.24,0-.49,0-.73,0Z"/>
      <path d="m34.98,226.58c-1.42-27.87-1.79-56.2.59-84.05.29-.01.59-.02.88-.04.75,27.84,1.88,56.19-.5,83.99-.32.03-.65.06-.97.09Z"/>
      <path d="m490.31,134.29c-.01,6.22-16.89,51.52-20.94,56.63.09-6.11,16.35-50.32,20.94-56.63Z"/>
      <path d="m598.89,127.86c-.36,7.55-10.42,7.46-10.77.06.43-7.58,10.4-8.1,10.77-.06Zm-2.76-2.97c-5.79-.51-6.85.85-4.5,5.92,1.47-2.76,2.9-.34,4.5,0v-5.92Z"/>
    </g>
  </g>
</svg>