<?xml version="1.0" encoding="UTF-8"?>
<svg id="Capa_2" data-name="Capa 2" xmlns="http://www.w3.org/2000/svg" viewBox="0 0 263.7 61.55">
  <g id="Capa_1-2" data-name="Capa 1">
    <g>
      <path d="m183.04,34.75c.02-.29.05-.59.05-.88,0-10.68,0-21.36-.01-32.04,0-1.52,0-1.56,1.55-1.36,6.03.77,11.32,3.32,16.19,6.84,4.15,3.01,7.7,6.63,10.76,10.74.14.18.28.36.62.79.05-.65.1-1.03.1-1.41,0-5.13.03-10.26-.02-15.38,0-.92.26-1.18,1.17-1.17,16.35.02,32.69.02,49.04,0,.86,0,1.22.17,1.21,1.14-.06,3.62-.02,7.25-.03,10.87,0,.3-.04.6-.07,1.03-.46,0-.87,0-1.29,0-5.17,0-10.33.03-15.5-.02-1.04-.01-1.28.31-1.28,1.31.03,14.23.02,28.45.02,42.68,0,.53-.05,1.05-.08,1.72-1.56-.29-2.98-.56-4.41-.83-2.54-.48-5.07-.97-7.61-1.41-.92-.16-1.14-.64-1.14-1.52.02-13.49,0-26.99.05-40.48,0-1.21-.34-1.52-1.49-1.46-2.04.09-4.09.07-6.13,0-.98-.03-1.22.33-1.22,1.27.03,12.99.02,25.99.02,38.98q0,1.56-1.54,1.34c-3.4-.47-6.79-.93-10.19-1.39q-1.71-.23-1.77-1.99c-.34-9.12-2.71-17.61-7.91-25.21-1.53-2.23-3.54-3.94-5.71-5.49-.14-.1-.34-.11-.72-.22v31.03c-2.06-.17-3.93-.32-5.8-.47-4.96-.4-9.91-.82-14.87-1.16-.97-.07-1.37-.39-1.48-1.32-.38-3.19-.14-2.68-3.24-2.7-3.78-.03-7.56.02-11.33-.03-.95-.01-1.37.29-1.24,1.26.03.27-.02.54.01.81.09.82-.26,1.06-1.07,1.02-3.47-.14-6.93-.26-10.4-.31-1.06-.01-1.29-.44-1.28-1.4.02-9.06.01-18.12.01-27.18,0-6.32,0-12.65,0-18.97,0-1.43.03-1.48,1.41-1.32,5.64.66,10.67,2.89,15.3,6.07,8.39,5.75,14.26,13.6,18.64,22.65.89,1.83,1.65,3.72,2.47,5.58.07,0,.14,0,.21-.01Zm-25.16-15.85c-.08.46-.13.63-.13.81,0,5.62.01,11.24-.02,16.87,0,.84.42.92,1.08.91,3.5-.02,7.01-.01,10.51-.02.29,0,.57-.07,1.03-.13-2.86-7.04-6.54-13.33-12.48-18.44Z"/>
      <path d="m82.69.14c.03.63.06,1.09.07,1.54,0,15.73,0,31.47.02,47.2,0,1.15-.25,1.58-1.51,1.62-3.35.11-6.7.36-10.04.64-.96.08-1.26-.24-1.24-1.13.03-.92-.01-1.85,0-2.78.01-.64-.25-.89-.89-.89-4.55.01-9.1.01-13.65,0-.61,0-.89.19-.97.83-.19,1.57-.41,3.13-.73,4.68-.07.36-.53.87-.87.92-7.29.98-14.59,1.9-21.89,2.82-1.52.19-1.55.17-1.79-1.39-.82-5.28-2.92-10.02-6.06-14.32-1.08-1.47-1.07-1.42-2.78-.8-2.06.75-4.13,1.5-6.25,2.04-1.08.27-1.31.74-1.3,1.74.04,4.78-.01,9.56.04,14.34.01,1.08-.18,1.63-1.38,1.86-3.81.74-7.58,1.62-11.48,2.48V.99h54.61c-.43,2.12-.69,4.13-1.26,6.06-2.99,10.16-9.51,17.71-17.83,23.91-1.28.95-1.3.95-.35,2.16,2.6,3.34,4.57,7.02,6.01,10.99.15.42.34.84.64,1.56.41-1.65.72-3,1.08-4.34,3.35-12.54,9.43-23.46,19.32-32.03,4.93-4.27,10.54-7.33,17-8.65,1.08-.22,2.19-.32,3.47-.51ZM12.42,27.39c7.24-.25,19.8-8.2,21.28-13.41-.31-.03-.6-.09-.89-.09-6.43,0-12.87,0-19.3-.03-.87,0-1.12.27-1.11,1.12.04,3.5.02,7.01.02,10.52,0,.61,0,1.21,0,1.89Zm57.52-8.28c-.12-.05-.23-.09-.35-.14-5.7,4.94-9.4,11.21-12.25,18.39.69,0,1.1,0,1.51,0,3.23,0,6.47-.04,9.7.02,1.1.02,1.48-.31,1.47-1.44-.05-5.28-.02-10.55-.03-15.83,0-.34-.04-.67-.06-1.01Z"/>
      <path d="m87.44,55.87V.03h1.3c16.69,0,33.38.01,50.07-.03,1.2,0,1.47.33,1.46,1.49-.04,15.34-.03,30.68-.03,46.03,0,1.62,0,1.63-1.63,1.62-3.35-.01-6.71-.07-10.06-.04-.97,0-1.25-.31-1.25-1.26.03-10.14.02-20.28.02-30.41,0-.51-.06-1.02-.1-1.53-.1,0-.19-.02-.29-.03-.38,1.18-.73,2.36-1.13,3.52-3.71,10.84-9.5,20.33-18.33,27.77-4.77,4.02-10.16,6.93-16.31,8.26-1.05.23-2.13.35-3.2.5-.14.02-.29-.03-.54-.06Zm12.73-20.98c.14.04.28.09.41.13,7.43-5.22,11.31-12.61,13.11-21.5-.52-.04-.89-.09-1.25-.1-3.66,0-7.32.03-10.98-.02-1.01-.01-1.32.28-1.31,1.31.05,6.36.02,12.72.02,19.07v1.11Z"/>
      <path d="m254.26,18.1c2.55.01,4.75,2.28,4.73,4.86-.03,2.61-2.21,4.8-4.79,4.8-2.57,0-4.78-2.22-4.78-4.81,0-2.66,2.2-4.87,4.84-4.86Zm3.33,4.86c.02-1.81-1.54-3.42-3.34-3.44-1.81-.02-3.39,1.51-3.44,3.33-.05,1.84,1.57,3.51,3.4,3.5,1.8,0,3.36-1.58,3.38-3.4Z"/>
      <path d="m256.02,25.18c-.85.22-1.64.27-1.77-1.36-.23.55-.25.77-.37.86-.29.23-.64.54-.95.53-.23,0-.6-.47-.62-.76-.08-1-.05-2-.03-3,0-.24.19-.69.27-.69,1.12.04,2.36-.12,3.33.31.93.41.63,1.43.18,2.32-.23.46-.04,1.13-.04,1.79Z"/>
    </g>
  </g>
</svg>