<?xml version="1.0" encoding="UTF-8"?>
<svg id="Capa_2" data-name="Capa 2" xmlns="http://www.w3.org/2000/svg" viewBox="0 0 218.81 215.17">
  <defs>
    <style>
      .cls-1 {
        fill: #fff;
      }
    </style>
  </defs>
  <g id="Capa_1-2" data-name="Capa 1">
    <g>
      <path d="m6.22,133.36c-9.92-12.95-8.59-33.28,8.51-44.83-7.3-13.18-8.31-26.63.03-39.61,7.97-12.4,19.39-19.36,34.87-19.06.41-1,.86-2.02,1.24-3.06,1.92-5.4,4.66-10.27,8.89-14.24,6.84-6.42,14.24-6.52,21.23-.22.23.21.56.32,1.01.58,2.57-2.43,5.02-5.13,7.86-7.33,6.39-4.95,13.55-7.15,21.48-4.37,2.77.97,5.24,2.8,7.94,4.28,18.4-9.85,33.48-4.56,38.95,14.19,4.81-2.91,9.86-3.54,14.97-1.09,5.03,2.41,7.51,6.82,8.58,11.88,11.48,1.71,14.95,10.02,13.41,19.58.82.29,1.68.7,2.59.9,6.49,1.43,9.79,5.76,11.1,12,.26,1.24.44,2.68,1.18,3.62,4.02,5.16,4.76,10.81,3.05,16.97-.35,1.27-.57,2.58-.8,3.61,1.78,2.38,3.78,4.45,5.05,6.91,2.09,4.04,1.66,8.33.41,12.63-.97,3.33-1.86,6.72-2.35,10.15-.3,2.06-.13,4.34.45,6.35,2.8,9.68-.21,16.13-9.56,19.93-.3.12-.61.23-1.4.54.37,5.5-.12,11.05-4.07,15.67-2.72,3.17-6.24,4.88-10.61,6.22-3.59,14.25-12.21,25.28-25,32.96-12.74,7.65-26.42,10.57-41.45,7.03-2.42,4.67-5.68,8.64-11.24,9.48-5.56.84-10.04-1.52-13.81-5.7-2.57.48-5.14,1.11-7.75,1.42-10.57,1.23-20.18-1.14-28.31-8.24-4.98-4.35-7.68-9.93-8.1-16.91h-6.27c-5.07,4.42-11.16,6.38-17.92,2.78-7.64-4.07-8.78-11.09-7.54-19.21-7.7-2.16-13.4-6.6-16.36-14.05-2.83-7.12-2.22-14.32-.27-21.72Zm39.6-45.33l.14.12c1.47-5.42,2.73-10.9,4.46-16.23,1.8-5.55,3.01-11.53,9.06-15.11-3.09-1.49-4.9-.17-6.12,1.52-2.03,2.81-4.09,5.72-5.41,8.9-3.24,7.81-6.02,15.81-9.08,23.7-2.94,7.58-5.83,15.18-9.06,22.64-1.17,2.68-3.16,5.05-5.01,7.38-1.26,1.58-3.06,2.84-5.25,2.06-2.25-.79-3.25-2.83-3.62-5.03-.91-5.42.57-10.26,4.16-14.36,1.85-2.12,4.2-3.17,7.17-2.2.7.23,1.61-.18,2.82-.36-1.91-3.57-4.68-3.16-7.18-2.6-1.54.34-3.03,1.38-4.3,2.42-6.1,4.97-8.29,13.51-5.44,20.8,2.4,6.15,7.82,7.94,13.21,4.07,2.12-1.52,3.78-3.71,5.59-5.66.83-.89,1.53-1.92,2.49-3.13,1.94,5.2,5.69,7.4,10.44,8,4.47.56,8.6-.61,12.14-3.47,5.4-4.37,7.8-10.15,8.01-17.01.19-6.47-2.29-11.52-7.81-14.98,13.29-13.45,13.97-15.86,9.88-35.41,2.68,1.66,5.14,3.18,7.73,4.78-2.51,10.08-3.82,20.26-2.95,30.65.33,3.88,1.22,7.58,3.5,10.77,3.57,5.01,9.87,5.63,14.31,1.39,1.54-1.48,2.73-3.34,4-5.08.7-.97,1.22-2.06,1.92-3.26,4.25,6.06,8.37,7.54,13.82,5.25,2.85-1.2,5.05-3.2,6.65-5.83,1.27-2.09,2.47-4.21,3.73-6.37,6.78,7.01,9.86,6.45,15.62-2.74,3.24,2.58,6.73,4.29,10.94,2.46,4.56-1.98,7.43-5.53,8.99-10.13.24-.69-.56-1.74-1.14-3.37-1.4,2.25-2.15,3.72-3.14,5-1.01,1.3-2.12,2.61-3.44,3.56-3.56,2.57-7.68,1.27-8.51-2.97-1.32-6.74-.53-13.27,3.72-19.01,1.83-2.48,4.24-3.62,7.37-3.14.84.13,1.72.02,2.93.02-2.33-3.35-4.5-4.16-7.77-3.35-3.63.9-6.17,3.23-8.05,6.29-3.23,5.23-4.77,10.94-4.32,17.11.34,4.59-1.77,7.74-5.29,10.25-2.51-1.97-3-4.22-2.79-6.61.46-5.46,1.08-10.91,1.54-16.37.2-2.35,1.45-4.93-1.52-7.37-1.48,1.91-2.91,3.75-4.36,5.62-6.57-2.96-12.04-.66-16.79,3.87-4.33,4.13-7.06,9.32-7.83,15.26-.71,5.49-3.44,9.95-6.35,14.35-1.69,2.56-3.96,4.83-7.42,3.93-3.24-.85-3.75-3.84-4.38-6.65-1.46-6.51-.32-12.95.61-19.35.63-4.35.93-8.86,3.1-12.86,6.28.35,11.24-2.28,15.66-5.99,6.92-5.82,11.58-13.24,14.46-21.76,1.34-3.97,1.83-8.12,1.28-12.31-.87-6.62-6.48-9.9-12.38-6.82-3.01,1.57-5.82,3.93-8.02,6.53-7.65,9.04-11.79,19.94-15.51,31-.4,1.19-.93,2.34-1.46,3.64-5.2-2.36-8.47-5.98-9.96-11.01-2.61-8.82.54-16.19,6.62-22.7-2.41-1.58-3.56,0-4.58,1.13-5.36,5.89-7.63,12.74-6.04,20.68.36,1.81.79,3.6,1.36,6.2-1.92-1.47-3.06-2.43-4.3-3.26-2.95-1.97-6.16-3.03-9.75-3.43-11.88-1.3-24.17,9.43-26.97,19.73-2.11,7.78-.36,14.82,3.91,21.36.97,1.49,2.42,2.77,3.9,3.78,1.06.72,2.55.86,3.17-.86-.09-.24-.11-.42-.2-.54-.2-.26-.43-.5-.66-.72-5.93-5.65-7.83-12.75-6.25-20.48,1.87-9.13,8.1-14.66,16.86-17.26,2.15-.64,4.63-.83,6.85-.5,11.12,1.65,16.03,13.01,14.81,22.59-1.07,8.37-6.73,13.41-14.02,16.87-1.47.7-2.95,1.36-4.43,2.04Zm-1.99,54.93c0-2.36.19-4.52-.04-6.64-.67-6.33-5.13-9.47-10.24-9.33-11.84.32-20.03,11.39-16.31,22.59,1.03,3.09,2.87,5.64,6.04,6.93,2.45,1,3.36.61,5.04-2.32-3.05-.62-5.45-1.96-6.82-4.97-3.77-8.31,2.49-18.15,11.62-18.06,2.82.03,4.47.97,5.05,3.8.53,2.55.69,5.3.37,7.88-1.01,8.08-2.35,16.11-3.51,24.17-.35,2.46-.77,4.95-.73,7.42.02,1.62.68,3.44,2.82,3.52,2.08.08,2.83-1.36,3.06-3.21.54-4.29,1.15-8.57,1.64-12.87.57-4.97,1.42-9.84,3.96-14.26.89-1.54,1.46-3.43,4.42-3.43.24,1.32.78,2.7.68,4.04-.44,5.79-1.04,11.58-1.63,17.36-.25,2.43-.97,4.88.32,7.18,4.11.27,4.81.06,5.08-2.32.79-6.77,1.67-13.55,1.96-20.35.14-3.25,1.29-5.76,3.1-8.18,1.18-1.58,2.63-2.53,4.92-1.4.62,2.02.39,4.07-.34,6.18-1.03,2.98-2.14,5.96-2.78,9.03-.53,2.56-.93,5.32-.52,7.86.76,4.75,6.37,6.48,9.98,3.31,1.1-.97,2.01-2.15,3.14-3.38,7.62,6.43,11.59-.08,15.97-4.52,6.05,4.21,9.82,3.54,13.5-2.29.88-1.4,1.64-2.91,2.19-4.46,1.11-3.13,1.91-6.36,3.06-9.47,1.72-4.67,3.51-9.32,5.52-13.86.74-1.67,1.57-3.78,4.17-3.67,1.24,2.35.53,4.61-.15,6.83-.98,3.17-2.1,6.3-3.12,9.46-2.78,8.58-5.05,17.28-4.31,26.4.38,4.73,1.29,9.42,2.01,14.42-.79.58-1.79,1.31-2.63,1.92-2.67-3.08-4.81-6.09-7.48-8.52-7.71-7.04-19.75-8.59-28.36-3.84-4.85,2.68-7.72,6.71-7.83,12.44-.11,5.72,3.06,9.28,7.75,11.8,5.01,2.69,10.34,3.46,15.95,2.52,6.29-1.06,11.97-3.61,17.16-7.19,3.21,3.51-.65,8.31,2.62,11.97,2.75-2.12,2.73-4.8,2.57-7.4-.16-2.61-.62-5.21-.95-7.83,1.3-1.04,2.42-1.95,3.54-2.85,5.53,6.88,11.01,9.67,19.5,9.63,13.51-.06,24.94-5.17,34.19-14.94,4.26-4.51,7.49-9.72,8.9-15.92,2.39-10.57-2.54-17.24-13.36-17.93-.33-.02-.67-.02-1-.03-8.6-.3-16.06,2.84-22.38,8.3-5.91,5.1-11.31,10.79-16.87,16.29-2.36,2.33-4.55,4.83-7.27,7.73-2.96-13.19-1.25-25.14,4.4-37.72.24,1.97.31,2.91.48,3.83.64,3.51,2.3,6.37,5.93,7.3,3.85.99,6.83-.77,9.05-3.83,1.26-1.74,2.3-3.64,3.44-5.46,5.48,4.58,6.54,4.63,12.53.47,6.79,1.94,9.61-3.01,12.52-7.64,5.43,4.46,7.77,4.3,13.73-.48,1.99,0,3.66.18,5.27-.06,1.4-.21,2.71-1.04,4.11-1.32,1.57-.31,3.23-.15,4.8-.49.92-.2,1.78-.87,2.56-1.47.99-.77,1.88-1.69,2.76-2.49.51.37.86.51,1.02.76,1.07,1.6,2.39,2.4,4.16,1.1,1.53-1.12.79-2.46.49-3.99-.61-3.05-1.05-6.22-.94-9.31.19-5.15,1.01-10.24,2.99-15.08.83-2.02.8-3.91-2.07-4.9-1.01.96-2.05,1.95-3.07,2.92-5.45-1.96-8.96,1.13-11.93,4.92-4.4,5.61-5.94,12.14-5.52,19.21.1,1.69.99,3.55-.49,5.35-2.75-.69-3.2-2.94-3.31-4.99-.39-7.33.32-14.58,2.04-21.57,12.79-5.4,22.27-20.09,18.81-28.96-2.14-.98-4.32-.59-6.15.6-2.48,1.62-4.97,3.37-7.01,5.49-4.46,4.64-7.09,10.39-9.02,16.47-3.46,10.92-4.71,22.02-2.94,34.27-.3.21-1.11.81-1.96,1.34-2.36,1.44-4.26.65-4.78-2.03-.19-.97-.09-1.99-.14-2.99-.31-5.57,1.2-10.86,2.47-16.19.43-1.83.43-3.75.63-5.64-1.76.23-2.73.77-3.36,1.57-.81,1.02-1.34,2.26-1.98,3.39-4.15-1.84-6.22-1.74-9.29.75-1.27,1.03-2.44,2.3-3.34,3.67-4.14,6.29-6.49,13.05-5.14,20.73.33,1.9.39,3.75-2.2,4.12-3.77-4.58-3.44-22.21.53-31.65,3.31-1.17,6.77-1.98,9.82-3.58,3.18-1.66,6.27-3.77,8.86-6.25,2.8-2.68,2.92-7.3,1-10.12-1.93-2.85-5.4-3.89-9.36-2.9-4.67,1.17-7.96,4.19-10.27,8.17-1.9,3.28-3.3,6.84-5.17,10.79-5.46.44-11.24,1-17.04,1.36-7.97.49-15.98.53-23.92,1.32-7.28.72-14.38,2.55-21.05,5.73-3.8,1.81-7.21,4.11-9.97,7.34-2.25,2.64-3.3,5.77-3.67,9.12-.18,1.63.66,3.02,2.32,3.4,1.69.39,3.08-.38,3.27-2.19.77-7.18,5.98-10.38,11.68-13.07,6.68-3.16,13.83-4.83,21.13-5.45,11.1-.94,22.25-1.44,33.37-2.12.79-.05,1.58,0,2.93,0-.47,2.83-.87,5.27-1.3,7.85-5.06-2.44-7.26-2.14-10.49,1.68-1.88,2.22-3.35,4.79-4.99,7.19-2.87-7.65-7.16-8.15-13.14.16-.56-1.94-.01-4.32-2.59-5.13-2.57-.05-3.59,1.9-4.19,4.02-.4,1.41-.22,2.97-.43,4.44-.97,6.73-1.87,13.47-3.08,20.16-.35,1.94-.74,4.39-3.81,4.91-.39-.85-1.09-1.69-1.1-2.53-.02-2.48.16-4.98.4-7.46.47-4.96,1.08-9.9,1.52-14.86.16-1.83.06-3.73-2.81-4.41-1.15,1.82-2.36,3.73-3.57,5.63-4.4-3.4-7.59-3.36-11.58.08-3.01,2.59-4.73,5.99-5.92,9.67-1.6,4.95-2.27,10.04-2.08,15.25.12,3.42-1.37,5.86-4.77,7.35-1.1-3.34-.34-6.19.64-9.05,1.41-4.11,2.48-8.27,2.23-12.68-.16-2.83-1.59-4.71-4.11-5.71-2.39-.95-4.64-.42-6.42,1.42-1.48,1.53-2.78,3.25-4.16,4.88-4.63-3.9-5.33-3.91-11.46.08ZM194.51,62.48c-.54.31-.93.4-1.1.65-1.38,2.07-2.52,4.28-5.6,4.28-2.57,0-4.94-.35-7.12-1.77-2.9-1.89-5.84-3.73-8.82-5.63,2.73-2.2,5.57-3.96,7.68-6.37,1.79-2.04,2.93-4.75,3.91-7.33.3-.78-.67-2.73-1.52-3.11-1.56-.7-2.34.83-2.64,2.17-1.57,7.04-7.6,9.49-13.1,12.8,0-3.41.46-6.61,1.01-9.78.8-4.58,1.77-9.13,2.47-13.72.55-3.6-.32-4.61-3.64-5.22-2.22,2.76-4.04,5.82-6.58,8.05-6.81,6-14.98,8.34-24.02,7.72-7.38-.5-12.75-5.66-13.44-12.94-.62-6.61,4.36-14.09,10.61-15.78,3.52-.95,6.58-.07,8.96,2.77.81.96,1.54,1.99,2.33,3.01,2.58-1.15,2.02-2.67,1.19-4.22-1.9-3.54-7.37-6.17-11.52-5.56-9.32,1.39-16.75,11.5-15.31,20.83,1.43,9.25,7.68,15.06,17.29,15.64,9.13.56,17.44-1.84,24.58-7.78.78-.65,1.64-1.2,3.2-2.32-.71,4.51-1.23,8.1-1.84,11.68-1.38,8.18-2.84,16.35-4.16,24.55-.34,2.08-.6,4.3,1.38,5.93,1.93-.04,2.76-1,3.04-2.73.66-4.1,1.36-8.19,2.14-12.26.26-1.37.82-2.68,1.47-4.72,2.4,1.48,4.26,2.48,5.95,3.72,2.14,1.57,4.07,3.44,6.22,5,3.78,2.74,7.93,4.15,12.67,3.05,3.54-.82,6.04-3.31,6.56-6.7.27-1.73.2-3.4-2.26-3.92Zm-1.65,85.22c-.01-3.41-2.53-5.83-6.02-5.79-3.45.04-6,2.59-5.93,5.92.06,3.27,2.87,6.18,6.07,5.92,3.61-.29,6.13-2.75,5.89-6.06Z"/>
      <path class="cls-1" d="m43.83,142.96c6.12-3.99,6.83-3.98,11.46-.08,1.38-1.64,2.68-3.35,4.16-4.88,1.78-1.84,4.03-2.37,6.42-1.42,2.52,1,3.96,2.88,4.11,5.71.24,4.41-.83,8.57-2.23,12.68-.98,2.86-1.74,5.71-.64,9.05,3.4-1.49,4.9-3.92,4.77-7.35-.19-5.21.48-10.3,2.08-15.25,1.19-3.68,2.91-7.08,5.92-9.67,3.99-3.44,7.18-3.47,11.58-.08,1.21-1.91,2.41-3.81,3.57-5.63,2.87.68,2.97,2.58,2.81,4.41-.44,4.96-1.05,9.9-1.52,14.86-.23,2.48-.42,4.97-.4,7.46,0,.84.71,1.68,1.1,2.53,3.07-.53,3.46-2.97,3.81-4.91,1.21-6.69,2.1-13.43,3.08-20.16.21-1.47.03-3.04.43-4.44.6-2.12,1.62-4.06,4.19-4.02,2.58.81,2.03,3.19,2.59,5.13,5.98-8.31,10.28-7.81,13.14-.16,1.64-2.4,3.11-4.97,4.99-7.19,3.23-3.82,5.42-4.11,10.49-1.68.43-2.58.83-5.02,1.3-7.85-1.35,0-2.14-.04-2.93,0-11.13.68-22.27,1.18-33.37,2.12-7.3.62-14.44,2.3-21.13,5.45-5.7,2.69-10.9,5.89-11.68,13.07-.2,1.81-1.59,2.58-3.27,2.19-1.66-.38-2.51-1.76-2.32-3.4.38-3.35,1.42-6.48,3.67-9.12,2.76-3.23,6.17-5.52,9.97-7.34,6.68-3.19,13.77-5.01,21.05-5.73,7.94-.79,15.95-.83,23.92-1.32,5.8-.36,11.58-.92,17.04-1.36,1.87-3.95,3.27-7.51,5.17-10.79,2.31-3.98,5.59-7.01,10.27-8.17,3.97-.99,7.43.06,9.36,2.9,1.92,2.82,1.8,7.44-1,10.12-2.59,2.48-5.67,4.59-8.86,6.25-3.05,1.59-6.51,2.41-9.82,3.58-3.98,9.43-4.3,27.07-.53,31.65,2.59-.37,2.53-2.22,2.2-4.12-1.34-7.68,1-14.44,5.14-20.73.9-1.37,2.07-2.64,3.34-3.67,3.07-2.49,5.13-2.6,9.29-.75.64-1.13,1.17-2.37,1.98-3.39.63-.8,1.6-1.33,3.36-1.57-.2,1.88-.2,3.81-.63,5.64-1.27,5.34-2.77,10.62-2.47,16.19.06,1-.04,2.02.14,2.99.51,2.68,2.42,3.47,4.78,2.03.86-.52,1.66-1.13,1.96-1.34-1.77-12.26-.52-23.36,2.94-34.27,1.93-6.09,4.56-11.83,9.02-16.47,2.04-2.12,4.53-3.88,7.01-5.49,1.83-1.19,4.01-1.57,6.15-.6,3.46,8.87-6.01,23.56-18.81,28.96-1.72,6.99-2.43,14.24-2.04,21.57.11,2.05.56,4.3,3.31,4.99,1.48-1.8.59-3.66.49-5.35-.42-7.08,1.12-13.61,5.52-19.21,2.97-3.79,6.49-6.87,11.93-4.92,1.02-.97,2.06-1.96,3.07-2.92,2.87.99,2.9,2.88,2.07,4.9-1.98,4.84-2.8,9.93-2.99,15.08-.11,3.1.33,6.26.94,9.31.3,1.52,1.04,2.86-.49,3.99-1.77,1.3-3.08.51-4.16-1.1-.17-.25-.51-.39-1.02-.76-.88.81-1.76,1.72-2.76,2.49-.78.6-1.64,1.28-2.56,1.47-1.56.33-3.23.18-4.8.49-1.4.28-2.71,1.11-4.11,1.32-1.61.24-3.27.06-5.27.06-5.96,4.78-8.3,4.93-13.73.48-2.91,4.63-5.72,9.58-12.52,7.64-5.99,4.15-7.05,4.11-12.53-.47-1.14,1.82-2.18,3.72-3.44,5.46-2.22,3.06-5.2,4.81-9.05,3.83-3.64-.93-5.29-3.78-5.93-7.3-.17-.92-.24-1.86-.48-3.83-5.65,12.58-7.36,24.53-4.4,37.72,2.72-2.91,4.91-5.4,7.27-7.73,5.56-5.5,10.97-11.18,16.87-16.29,6.32-5.46,13.78-8.6,22.38-8.3.33.01.67,0,1,.03,10.82.69,15.76,7.36,13.36,17.93-1.4,6.2-4.64,11.41-8.9,15.92-9.24,9.78-20.67,14.88-34.19,14.94-8.49.04-13.97-2.75-19.5-9.63-1.12.9-2.25,1.81-3.54,2.85.33,2.62.78,5.21.95,7.83.16,2.61.18,5.29-2.57,7.4-3.27-3.66.59-8.46-2.62-11.97-5.19,3.58-10.87,6.13-17.16,7.19-5.6.94-10.94.17-15.95-2.52-4.69-2.52-7.86-6.08-7.75-11.8.11-5.73,2.97-9.76,7.83-12.44,8.6-4.75,20.64-3.19,28.36,3.84,2.67,2.43,4.8,5.44,7.48,8.52.83-.61,1.84-1.34,2.63-1.92-.71-5-1.62-9.69-2.01-14.42-.74-9.12,1.53-17.82,4.31-26.4,1.02-3.16,2.14-6.29,3.12-9.46.68-2.21,1.4-4.47.15-6.83-2.61-.12-3.43,1.99-4.17,3.67-2.01,4.54-3.8,9.19-5.52,13.86-1.15,3.11-1.95,6.34-3.06,9.47-.55,1.55-1.31,3.07-2.19,4.46-3.68,5.83-7.45,6.5-13.5,2.29-4.38,4.44-8.36,10.95-15.97,4.52-1.13,1.23-2.04,2.41-3.14,3.38-3.61,3.18-9.21,1.45-9.98-3.31-.41-2.53-.01-5.3.52-7.86.64-3.07,1.75-6.05,2.78-9.03.73-2.11.95-4.15.34-6.18-2.29-1.13-3.74-.18-4.92,1.4-1.81,2.42-2.95,4.92-3.1,8.18-.3,6.8-1.18,13.58-1.96,20.35-.28,2.38-.97,2.6-5.08,2.32-1.29-2.3-.56-4.75-.32-7.18.58-5.78,1.19-11.56,1.63-17.36.1-1.34-.44-2.72-.68-4.04-2.96,0-3.54,1.89-4.42,3.43-2.54,4.41-3.39,9.29-3.96,14.26-.49,4.3-1.11,8.58-1.64,12.87-.23,1.85-.98,3.29-3.06,3.21-2.14-.08-2.8-1.9-2.82-3.52-.03-2.47.38-4.96.73-7.42,1.16-8.06,2.5-16.1,3.51-24.17.32-2.58.16-5.33-.37-7.88-.58-2.83-2.24-3.77-5.05-3.8-9.13-.09-15.39,9.75-11.62,18.06,1.36,3.01,3.77,4.35,6.82,4.97-1.68,2.92-2.6,3.31-5.04,2.32-3.17-1.29-5.01-3.84-6.04-6.93-3.72-11.2,4.46-22.27,16.31-22.59,5.11-.14,9.56,3,10.24,9.33.23,2.12.04,4.28.04,6.64Zm74.45,38.79c3.26,6.37,8.07,9.12,14.05,9.3,16.6.49,29.47-6.73,39.04-20.01,2.24-3.11,3.57-6.73,3.63-10.7.07-5.02-1.67-7.69-6.48-9.36-1.54-.53-3.22-.82-4.85-.91-8.31-.5-15.44,2.73-21.34,8.12-8.22,7.5-15.92,15.56-24.05,23.58Zm-11.46,5.56c-2.09-4.97-3.42-6.88-6.57-9.53-6.76-5.7-18.82-6.5-25.6-1.69-5.98,4.24-5.77,12.26.44,16.15,3.01,1.89,6.34,2.85,9.88,2.89,8.12.09,15.17-2.86,21.85-7.82Zm-19.59-54.14c-2.21-.13-3.46,1.21-4.35,2.85-3.55,6.53-5.28,13.53-5.08,20.98.05,2,.76,3.5,2.96,4.15,2.06-.94,3.12-2.74,4.38-4.52,3.74-5.3,3.87-11.52,4.77-17.53.35-2.39-.35-4.62-2.67-5.92Zm48.59-13.74c-1.46,1.57-2.65,2.49-3.37,3.69-3.09,5.19-5.02,10.81-5.28,16.87-.1,2.25-.15,4.82,2.33,6.11,1.67.86,3.63-.64,5.54-3.99.41-.72.73-1.48,1.05-2.24,2.33-5.36,2.16-11.01,1.75-16.64-.08-1.11-1.11-2.15-2.02-3.81Zm19.22,18.39c2.39.94,3.92.04,5.08-1.5.78-1.04,1.61-2.22,1.87-3.45,1.09-5.31,2.05-10.66,2.86-16.02.14-.94-.65-2.02-1.01-3.01-4.11,1.21-5.43,2.37-7.42,7.53-2.07,5.36-4.07,10.84-1.38,16.45Zm43.39-34.67c-2,1.85-3.66,2.93-4.71,4.45-3.18,4.57-4.64,9.78-4.85,15.33-.04.98-.02,2.01.23,2.95.82,3.03,3.66,3.87,5.51,1.36,1.51-2.05,2.63-4.62,3.18-7.12.96-4.33,1.42-8.77,1.91-13.19.1-.92-.62-1.94-1.27-3.78Zm-50.12-.33c5.19-.84,9.64-2.5,12.64-4.71.67-.49,1.34-1,1.88-1.62,1.41-1.63,1.62-4.25.57-6.05-.92-1.58-2.95-2.22-5.31-1.24-1.48.62-2.94,1.61-4.04,2.78-2.86,3.02-4.56,6.71-5.74,10.83Zm34.59-3.76c5.65-2.39,8.85-5.56,12.21-12.21,1.41-2.8,3.35-5.56,2.25-9.61-8.32,5.26-11.78,13.02-14.46,21.82Z"/>
      <path class="cls-1" d="m45.82,88.03c1.48-.68,2.96-1.35,4.43-2.04,7.29-3.46,12.95-8.5,14.02-16.87,1.22-9.59-3.69-20.94-14.81-22.59-2.22-.33-4.7-.15-6.85.5-8.76,2.61-14.99,8.13-16.86,17.26-1.58,7.72.32,14.82,6.25,20.48.24.23.46.46.66.72.09.12.12.3.2.54-.62,1.72-2.11,1.58-3.17.86-1.48-1.01-2.93-2.29-3.9-3.78-4.27-6.54-6.02-13.58-3.91-21.36,2.8-10.3,15.09-21.03,26.97-19.73,3.59.39,6.8,1.45,9.75,3.43,1.23.83,2.38,1.79,4.3,3.26-.57-2.59-1-4.39-1.36-6.2-1.59-7.94.69-14.79,6.04-20.68,1.03-1.13,2.17-2.71,4.58-1.13-6.08,6.51-9.23,13.88-6.62,22.7,1.49,5.03,4.76,8.65,9.96,11.01.52-1.3,1.06-2.45,1.46-3.64,3.72-11.06,7.86-21.96,15.51-31,2.2-2.6,5.02-4.96,8.02-6.53,5.9-3.08,11.51.2,12.38,6.82.55,4.19.06,8.34-1.28,12.31-2.88,8.52-7.54,15.94-14.46,21.76-4.42,3.71-9.38,6.35-15.66,5.99-2.16,4-2.47,8.51-3.1,12.86-.93,6.4-2.07,12.84-.61,19.35.63,2.8,1.14,5.8,4.38,6.65,3.46.9,5.73-1.37,7.42-3.93,2.92-4.4,5.64-8.86,6.35-14.35.77-5.93,3.5-11.12,7.83-15.26,4.75-4.54,10.22-6.83,16.79-3.87,1.45-1.87,2.88-3.7,4.36-5.62,2.97,2.44,1.72,5.01,1.52,7.37-.46,5.46-1.08,10.91-1.54,16.37-.2,2.4.28,4.64,2.79,6.61,3.52-2.51,5.62-5.66,5.29-10.25-.45-6.18,1.09-11.88,4.32-17.11,1.89-3.06,4.42-5.39,8.05-6.29,3.28-.81,5.44,0,7.77,3.35-1.21,0-2.09.11-2.93-.02-3.13-.48-5.54.67-7.37,3.14-4.25,5.74-5.04,12.27-3.72,19.01.83,4.24,4.95,5.54,8.51,2.97,1.32-.95,2.43-2.27,3.44-3.56.99-1.28,1.75-2.74,3.14-5,.59,1.64,1.38,2.68,1.14,3.37-1.56,4.6-4.43,8.15-8.99,10.13-4.21,1.83-7.7.12-10.94-2.46-5.75,9.19-8.83,9.75-15.62,2.74-1.26,2.16-2.46,4.28-3.73,6.37-1.6,2.63-3.8,4.64-6.65,5.83-5.46,2.29-9.58.82-13.82-5.25-.7,1.2-1.22,2.29-1.92,3.26-1.27,1.75-2.46,3.61-4,5.08-4.44,4.25-10.74,3.62-14.31-1.39-2.27-3.19-3.17-6.88-3.5-10.77-.87-10.39.44-20.57,2.95-30.65-2.58-1.6-5.04-3.12-7.73-4.78,4.09,19.55,3.42,21.96-9.88,35.41,5.52,3.46,8,8.51,7.81,14.98-.2,6.87-2.6,12.65-8.01,17.01-3.54,2.86-7.66,4.03-12.14,3.47-4.75-.59-8.5-2.79-10.44-8-.96,1.22-1.65,2.24-2.49,3.13-1.81,1.94-3.46,4.14-5.59,5.66-5.4,3.86-10.81,2.07-13.21-4.07-2.84-7.29-.66-15.83,5.44-20.8,1.27-1.03,2.75-2.07,4.3-2.42,2.5-.56,5.28-.97,7.18,2.6-1.22.17-2.12.58-2.82.36-2.97-.97-5.32.09-7.17,2.2-3.58,4.1-5.07,8.94-4.16,14.36.37,2.2,1.37,4.23,3.62,5.03,2.19.77,3.98-.48,5.25-2.06,1.85-2.32,3.84-4.69,5.01-7.38,3.24-7.45,6.13-15.06,9.06-22.64,3.06-7.89,5.84-15.89,9.08-23.7,1.32-3.17,3.37-6.09,5.41-8.9,1.22-1.69,3.03-3.01,6.12-1.52-6.05,3.58-7.26,9.57-9.06,15.11-1.73,5.33-2.99,10.82-4.46,16.23-.16.05-.43.05-.46.14-2.5,6.81-5.26,13.53-7.38,20.45-2.06,6.71,4.36,12.76,11.1,10.86,3.68-1.04,6.55-3.14,8.51-6.44,2.9-4.87,3.01-10.17,1.78-15.43-1.08-4.6-4.63-6.67-9.25-6.09-3.24.41-3.38.3-4.43-3.61Zm36.25-32.23c4.65.38,7.66-.59,11.58-3.9,7.05-5.95,12.05-13.28,14.31-22.28.64-2.54.98-5.24.93-7.85-.09-4.66-3.51-6.43-7.51-3.85-1.9,1.23-3.61,2.97-4.95,4.81-7.21,9.94-11.01,21.36-14.35,33.06Zm18.77,31.53c0,.17,0,.33,0,.5-.03,3,.64,5.81,3.7,6.95,3.17,1.18,4.89-1.38,6.42-3.48,4.05-5.56,6.55-11.85,7.78-18.58.46-2.49,1.15-5.72-1.73-7.2-2.9-1.5-5.45.43-7.53,2.39-5.58,5.25-7.94,11.99-8.63,19.44Z"/>
      <path class="cls-1" d="m194.51,62.48c2.46.52,2.53,2.18,2.26,3.92-.52,3.39-3.02,5.88-6.56,6.7-4.74,1.1-8.89-.3-12.67-3.05-2.15-1.56-4.08-3.43-6.22-5-1.69-1.24-3.55-2.24-5.95-3.72-.65,2.04-1.21,3.35-1.47,4.72-.78,4.07-1.47,8.17-2.14,12.26-.28,1.73-1.11,2.69-3.04,2.73-1.99-1.63-1.72-3.85-1.38-5.93,1.32-8.19,2.78-16.36,4.16-24.55.6-3.58,1.13-7.17,1.84-11.68-1.55,1.12-2.42,1.67-3.2,2.32-7.14,5.94-15.45,8.33-24.58,7.78-9.61-.58-15.86-6.39-17.29-15.64-1.44-9.34,5.99-19.45,15.31-20.83,4.14-.62,9.61,2.01,11.52,5.56.83,1.55,1.39,3.07-1.19,4.22-.79-1.02-1.52-2.05-2.33-3.01-2.39-2.84-5.44-3.72-8.96-2.77-6.25,1.69-11.24,9.17-10.61,15.78.69,7.28,6.07,12.43,13.44,12.94,9.04.62,17.21-1.72,24.02-7.72,2.54-2.24,4.36-5.29,6.58-8.05,3.33.61,4.19,1.62,3.64,5.22-.7,4.59-1.68,9.14-2.47,13.72-.55,3.18-1,6.37-1.01,9.78,5.5-3.3,11.52-5.75,13.1-12.8.3-1.35,1.08-2.87,2.64-2.17.85.38,1.81,2.32,1.52,3.11-.97,2.58-2.12,5.29-3.91,7.33-2.11,2.41-4.96,4.17-7.68,6.37,2.99,1.9,5.92,3.74,8.82,5.63,2.18,1.42,4.55,1.77,7.12,1.77,3.09,0,4.22-2.21,5.6-4.28.17-.25.56-.34,1.1-.65Z"/>
      <path class="cls-1" d="m192.86,147.69c.25,3.31-2.27,5.77-5.89,6.06-3.2.25-6-2.65-6.07-5.92-.06-3.33,2.49-5.88,5.93-5.92,3.49-.04,6.01,2.38,6.02,5.79Z"/>
      <path d="m118.27,181.75c8.13-8.02,15.83-16.08,24.05-23.58,5.9-5.39,13.03-8.61,21.34-8.12,1.63.1,3.31.38,4.85.91,4.8,1.66,6.55,4.34,6.48,9.36-.06,3.97-1.38,7.59-3.63,10.7-9.58,13.29-22.44,20.5-39.04,20.01-5.98-.18-10.79-2.92-14.05-9.3Z"/>
      <path d="m106.82,187.31c-6.68,4.96-13.73,7.91-21.85,7.82-3.54-.04-6.87-1-9.88-2.89-6.21-3.89-6.42-11.91-.44-16.15,6.78-4.81,18.84-4.01,25.6,1.69,3.15,2.65,4.48,4.56,6.57,9.53Z"/>
      <path d="m87.23,133.16c2.32,1.31,3.03,3.53,2.67,5.92-.89,6.01-1.02,12.23-4.77,17.53-1.26,1.78-2.32,3.59-4.38,4.52-2.2-.64-2.91-2.15-2.96-4.15-.2-7.45,1.53-14.44,5.08-20.98.89-1.64,2.14-2.98,4.35-2.85Z"/>
      <path d="m135.82,119.42c.91,1.66,1.94,2.7,2.02,3.81.41,5.63.58,11.28-1.75,16.64-.33.76-.65,1.53-1.05,2.24-1.91,3.35-3.87,4.85-5.54,3.99-2.48-1.28-2.43-3.85-2.33-6.11.26-6.06,2.2-11.68,5.28-16.87.71-1.2,1.91-2.12,3.37-3.69Z"/>
      <path d="m155.04,137.81c-2.69-5.62-.69-11.09,1.38-16.45,1.99-5.16,3.31-6.32,7.42-7.53.36.99,1.15,2.07,1.01,3.01-.81,5.36-1.77,10.71-2.86,16.02-.25,1.23-1.08,2.41-1.87,3.45-1.16,1.54-2.69,2.44-5.08,1.5Z"/>
      <path d="m198.43,103.14c.65,1.85,1.37,2.86,1.27,3.78-.48,4.42-.95,8.86-1.91,13.19-.55,2.5-1.67,5.06-3.18,7.12-1.85,2.51-4.7,1.67-5.51-1.36-.25-.94-.27-1.97-.23-2.95.21-5.55,1.67-10.76,4.85-15.33,1.05-1.51,2.72-2.6,4.71-4.45Z"/>
      <path d="m148.3,102.81c1.18-4.13,2.88-7.81,5.74-10.83,1.1-1.17,2.56-2.17,4.04-2.78,2.36-.98,4.39-.34,5.31,1.24,1.05,1.8.84,4.42-.57,6.05-.54.62-1.21,1.13-1.88,1.62-3.01,2.21-7.45,3.87-12.64,4.71Z"/>
      <path d="m182.9,99.05c2.68-8.8,6.14-16.56,14.46-21.82,1.1,4.04-.84,6.81-2.25,9.61-3.36,6.65-6.55,9.82-12.21,12.21Z"/>
      <path d="m82.07,55.8c3.35-11.7,7.15-23.12,14.35-33.06,1.34-1.84,3.05-3.58,4.95-4.81,4-2.58,7.42-.81,7.51,3.85.05,2.62-.29,5.31-.93,7.85-2.26,9-7.26,16.33-14.31,22.28-3.92,3.31-6.93,4.27-11.58,3.9Z"/>
      <path d="m45.82,88.03c1.05,3.91,1.19,4.02,4.43,3.61,4.62-.58,8.17,1.49,9.25,6.09,1.23,5.26,1.12,10.56-1.78,15.43-1.96,3.3-4.83,5.4-8.51,6.44-6.74,1.9-13.16-4.15-11.1-10.86,2.13-6.92,4.88-13.65,7.38-20.45.03-.09.3-.1.46-.14l-.14-.12Z"/>
      <path d="m100.84,87.33c.69-7.45,3.04-14.19,8.63-19.44,2.08-1.95,4.64-3.88,7.53-2.39,2.88,1.48,2.18,4.71,1.73,7.2-1.23,6.73-3.73,13.02-7.78,18.58-1.53,2.1-3.25,4.66-6.42,3.48-3.06-1.13-3.73-3.95-3.7-6.95,0-.17,0-.33,0-.5Z"/>
    </g>
  </g>
</svg>