<?xml version="1.0" encoding="UTF-8"?>
<svg id="Capa_2" data-name="Capa 2" xmlns="http://www.w3.org/2000/svg" viewBox="0 0 201.82 125.11">
  <g id="Capa_1-2" data-name="Capa 1">
    <g>
      <path d="m101.2,39.14c-2.52,11.13-5.04,22.26-7.63,33.7h-12.35c-.05-.08-.21-.23-.18-.31.05-.14.23-.23.33-.36.17-.22.32-.46.61-.89h-3.75c-1.12,5.84-4.51,10.77-9.38,14.22-4.83,3.42-11.98,4.21-17.23-.21-.21-.18-.6-.13-.94-.2-2.31,2.34-.94,5.59-1.91,8.06-1.15,2.94-.31,5.79-1.06,9.01-4.53-.33-9.22.75-13.68-1.48,1.03-7.48,2.56-14.91,2.68-22.54-1.76,4.01-4.35,6.98-8.56,8.25-2.08.63-4.16,1.42-6.3,1.65-3.88.41-7.75-.04-11.58-.92-6.05-1.39-10.14-6.71-10.27-13.79h10.42c.74,1.72,1.58,3.68,2.43,5.64h8.75c1.01-1.01,2.07-2.07,3.13-3.13-.02-3.07,0-3.09-2.3-3.75-2.83-.8-5.62-1.77-8.47-2.47-3.23-.79-5.81-2.49-7.95-4.97-.54-.63-1.17-1.18-1.9-1.91v-7.88c.4-.97.65-1.7,1-2.38,1.98-3.89,5.91-6.23,10.32-7.5,3.41-.98,6.77-1.1,10.11-.8,7.38.67,12.84,5.59,13.42,13.69h-9.52c-1.1-1.33-2.4-2.89-3.82-4.62h-5.97c-1.3,1.18-2.53,2.29-3.78,3.42.43,1.41,1.06,2.15,2.6,2.51,3.15.75,6.13,2.36,9.29,2.81,3.65.52,5.65,2.98,7.79,5.31.86.94,1.14,2.53,1.38,3.88.22,1.24.05,2.55.81,3.88,1.4-9.95,2.81-19.91,4.21-29.86h10.82c.15,1,.29,1.92.47,3.06,3.05-.79,5.41-2.63,8.31-3.37,5.82-1.49,11.08.13,14.47,5.12,2.13,3.14,3.26,6.43,3.02,10.27-.2,3.14-.04,6.3-.04,9.99,3.6-2.59,6.85-4.93,9.47-6.82,4.76-21.11,9.33-41.42,14.05-62.36-.07.06.42-.38,1.19-1.08.16.99.3,1.83.45,2.79.49.18,1.07.39,1.63.59.41,4.5.62,9.03,1.28,13.49.43,2.86.59,5.78,1.1,8.56.53,2.89.16,5.92,1.01,8.56.84,2.62.16,5.25.95,7.6.81,2.41.69,4.74.9,7.12.18,2.04.68,4.05.96,6.09.28,2.04.05,4.02.82,6.15.88,2.43.65,5.34.99,8.04.42,3.33.75,6.65,1.75,10.84.47-3.2,1.67-5.3,1.54-7.88-.07-1.47.74-2.98,1.27-4.88,2.43.34,4.86,1.03,7.36,1.92,2.52.9,5.31,1.03,7.08,3.42q-2.87,1.67-7.41,1.76c-1.44,8.35-3.37,16.61-4.92,24.94-1.53,8.2-3.22,16.36-4.9,24.86-.16.18-.6.66-1.04,1.15-.28-.28-.52-.52-.88-.88-.4.22-.84.47-1.28.72-.12-.29-.37-.59-.34-.85.68-4.94-.94-9.7-1.23-14.57-.16-2.64-.22-5.51-.93-8.05-.72-2.58-.32-5.19-.98-7.59-.79-2.89-.21-5.92-1.04-8.56-.87-2.77-.06-5.65-.99-8.08-1.06-2.78-.03-5.66-.99-8.08-1.04-2.61-.55-5.11-.87-7.64-.22-1.71-.65-3.39-.98-5.09-.3-1.55.74-3.32-.81-4.68-.19-.16-.23-.61-.18-.91.66-3.95-1.21-7.62-1.77-11.7Zm-39.51,36.38c.79-1.25,1.85-2.33,2.21-3.61,1.07-3.79,2.33-7.54,2.12-11.62-.13-2.54-.58-4.71-2.85-6.32-1.62.45-3.26.91-4.99,1.39l-5.37,5.37c.56,2.48-.5,4.92-.73,7.43-.23,2.54-.55,5.03-1.21,7.29,3.58,4.18,7.14,2.66,10.8.07Z"/>
      <path d="m178.51,70.14c-1.2,1.15-2.39,2.31-3.56,3.44.25,2.33-1.4,4.22-1.12,6.65.25,2.11-.59,4.34-1.01,6.89-4.17-.19-8.36.59-12.76-1.4.36-1.83-1.16-4.09.84-6.11.17-.17.03-.64.06-.96.33-3.86.74-7.71.96-11.58.11-1.92,1.4-3.5,1.13-5.59-.21-1.61.46-3.34.78-5.2h-6.66c-1.94,1.23-4.18,2.66-6.38,4.05-.64,5.4-.91,10.53-1.95,15.5-.67,3.22-.79,6.38-.94,9.6-.02.51-.79.99-1.4,1.71-3.66-.41-7.6.87-11.43-1.38-.22-2.26-.14-4.5.79-6.87.86-2.2-.87-4.9.89-7.13.17-.22.16-.6.19-.91.34-3.69.62-7.39,1.03-11.07.19-1.71.67-3.39.97-5.09.3-1.7-.53-3.46.88-5.18.65-.79.11-2.57.11-4.27,1.75-.05,3.51-.12,5.28-.14,1.81-.02,3.62,0,5.51,0,.16,1.08.3,2,.48,3.2,1.34-.57,2.74-.75,3.5-1.55,2.52-2.66,5.55-2.99,9.06-2.5.13.87.26,1.78.41,2.79.35-.22.72-.32.76-.49.37-1.85.75-3.71,1.01-5.58.26-1.88.03-3.69.84-5.65.81-1.98.18-4.55.18-7.11,3.71-2.24,7.77-.49,11.73-1.24.18,1.07.32,1.99.47,2.9.5.12.96.24,1.41.35.02.24.14.52.05.7-.15.28-.66.52-.63.72.61,3.95-.99,7.69-1.08,11.58-.05,2.03-.67,4.05-.93,6.08-.24,1.84.53,3.82-1.21,5.98,1.02-.28,1.84-.25,2.05-.6,2.8-4.55,7.14-7.68,10.43-11.4h11.98c-.42.97-.7,1.63-1.04,2.41.47.23,1.11.53,1.65.8-4.5,4.99-8.99,9.97-13.64,15.13,3.41,8.24,6.91,16.7,10.55,25.49-3.23,0-6.67.07-10.11-.02-3.13-.08-4.93-2.12-5.61-4.87-1.01-4.08-2.98-7.78-4.21-11.75-.04-.14-.23-.24-.29-.3Z"/>
    </g>
  </g>
</svg>