<?xml version="1.0" encoding="UTF-8"?>
<svg id="Capa_2" data-name="Capa 2" xmlns="http://www.w3.org/2000/svg" viewBox="0 0 281.33 127.16">
  <defs>
    <style>
      .cls-1 {
        fill: #1d1d1b;
      }
    </style>
  </defs>
  <g id="Capa_1-2" data-name="Capa 1">
    <path class="cls-1" d="m127.17,67.46c-1.59-3.26-3.18-6.51-4.77-9.77.25-.07.49-.14.74-.21-1.73-1.56-3.45-3.13-5.54-5.02-.64.19-1.87.56-3.11.92,4.19-4.05,8.22-8.2,8.52-15.56-6.08,3.45-8.97,8.24-10.82,13.77-.16.48,1.22,1.47,1.89,2.23-1.19.59-3.23,1.87-3.42,1.64-1.1-1.35-2.89-3.75-2.4-4.53,3.03-4.84,6.59-9.36,10-13.96.18-.24.58-.45.87-.45,7.2.14,9.7-5.69,13.42-10.21,3.27-3.96,7.02-7.55,10.81-11.02,1.43-1.31,3.58-1.81,5.41-2.68.34.37.69.75,1.03,1.12-.82,1.46-1.41,3.13-2.5,4.33-5.37,5.91-11.14,11.48-16.25,17.6-3.58,4.29-6.41,9.22-9.37,13.99-.68,1.1-.53,2.71-1.02,5.62,2.63-1.96,3.91-3.24,5.45-4,4.38-2.16,9.23-3.58,13.2-6.3,3.92-2.68,6.44-8.03,10.57-9.63,5.99-2.32,12.85-2.89,19.38-3.15,8.39-.33,17.39,4.99,24.62-4.49.13.49.26.98.39,1.47-1.26,1.57-2.51,3.14-4.28,5.35,14.39,3.6,27.53,4.67,39.66-4.55,4.36-3.32,8.8-6.68,13.63-9.2,8.43-4.41,14.4-3.22,21.34,2.88,1.19,1.05,3.25,1.34,4.96,1.53,15.24.97,15.6,19.12,1.24,21.5-4.22.62-8.64-.11-12.8-.84,8.13-.99,22.02.38,20.6-11.73-.66-4.71-4.15-6.51-8.34-7.39-2.46-.52-3.76.2-4.95,2.74-1.07,2.29-3.64,3.85-5.4,5.86-1.23,1.41-2.43,2.92-3.23,4.59-2.31,4.85-6.1,7.15-10.72,6.22-3.88-.79-5.44-3.09-5.05-7.86,4.84.61,9.38.02,9.74-5.1.13-3.45-3.13-6.39-7.27-5.59-3.67.71-7.75,1.79-10.56,4.06-11.29,9.12-23.9,10.77-37.71,8.59-9.87-1.56-13.09.87-16.6,11.78,4.17.2,8.13.39,12.08.58.05.35.09.7.14,1.06-3.17.55-6.36,1.64-9.49,1.51-4.68-.21-7.22,1.92-9.61,5.61-5.88,9.08-11.85,18.14-18.38,26.75-2.94,3.87-6.92,7.32-11.12,9.78-6.11,3.58-11.1.53-11.22-6.53-.07-3.93.53-8.01,1.65-11.78,1.11-3.75,1.87-6.72-2.75-8.36-.52-.18-.82-1-1.22-1.52,2.65.3,4.95,3.59,8.04.4,3.84-3.96,8.09-7.54,12.16-11.28,6.81,1.96,13.57,3.61,20.06-3.41-8.25-2.24-15.51-4.33-22.85-6.06-.85-.2-2.16,1.55-3.26,2.4-1.07-3.12-3.29-3.59-6.29-3.12-9.68,1.51-13.45,9.23-9.35,19.42Zm24.74,15.62c4.8-7.08,9.6-14.16,14.39-21.24-.39-.52-.78-1.04-1.17-1.57-3.03.99-8.24,1.36-8.73,3.08-2.58,9.08-9.04,10.59-16.91,10.74-1.35.03-3.61,1.02-3.87,1.98-1.33,5.08-2.87,10.29-2.94,15.47-.08,5.5,4.26,7.39,8.5,3.79,4.12-3.45,6.99-8.32,10.73-12.25Zm-8.65-39.85c.28.55.56,1.1.85,1.65,8.71,1.96,17.41,3.98,26.15,5.82.91.19,2.43-.33,3-1.04,2.75-3.46,5.28-7.09,8.56-11.58-11.45-2.11-21.81-4.53-32.17-.3-2.46,1-4.27,3.6-6.38,5.46Zm119.74-17.87c-3.52-6.5-12.67-6.9-17.74-.96,4.72,1.04,8.61,3.23,7.97,8.58-.72,6.01-5.68,7.07-11.08,7.53,1.58,4.31,4.79,4.18,7.84,3.46,4.03-.95,7.21-4.48,6.23-7.89-1.88-6.59,1.51-8.8,6.78-10.72Zm-124.68,45.54c6.07,2.11,11.89-.13,13.94-5.23.44-1.08.51-2.66.01-3.64-.29-.57-2.17-.8-3.11-.49-4.87,1.58-8.54,4.6-10.84,9.37ZM7.61,8.98c7.53-6.86,16.07-6.99,25.2-3.95,2.28.76,4.76,1.4,7.13,1.33,10.62-.3,17.37,7.65,13.81,17.67-1.89,5.32-5.62,10.09-9.07,14.7-2.93,3.92-6.65,7.25-9.48,11.37,11.42-9.58,28.24-13.45,32.01-31.03.49.07.97.15,1.46.22-.21,2.74.2,5.72-.75,8.16-1.86,4.79-4.67,9.19-6.74,13.91-3.12,7.11-5.93,14.36-8.11,21.78C71.11,32.3,98.65,6.47,135.24.74c8.55-1.31,17.15-1.1,25.41,2.48-24.29-2.65-45.66,4.97-65.15,18.51-19.19,13.33-37.05,27.91-41.47,53.82-4.36-5.49-6.35-11.48-4.49-17.98,1.75-6.13,4.65-11.92,7.48-18.95-14.08,10.98-31.39,17.04-36.97,35.61-.45-.04-.9-.09-1.35-.13.31-3.4-.29-7.26,1.13-10.12,2.93-5.89,6.57-11.53,10.6-16.75,4.67-6.05,10.25-11.39,15.07-17.34,2.26-2.79,4.41-6.11,5.21-9.51.68-2.89.37-7.11-1.36-9.17-1.64-1.94-5.71-1.83-8.71-2.62-.29.52-.58,1.04-.87,1.55,14.36,26.04-22.87,43.56-22.07,20.89.43-9.66,6.51-16.97,14.12-22.36-4.31-6.09-12.36-5.77-23.76.77-.15-.16-.29-.31-.44-.47Zm12.21,22.72c-.04,6.52,2.86,8.96,7.97,8.01,11.19-2.07,17.01-17.18,9.89-26.06-.79-.99-3.49-1.7-4.42-1.12-7.57,4.7-12.42,11.36-13.44,19.16Zm67.2,78.77c-1.22.52-3.04-.37-4.58-.61.54-1.43.69-3.26,1.68-4.23,5.13-5.04,11.27-8.4,18.54-8.79,2.18-.12,5.81.92,6.34,2.35.74,1.96-.02,5.62-1.55,7.1-8.62,8.41-18.73,13.89-31.27,12.87-15.99-1.96-2.91-17.62,4.36-22.16,14.2-9.59,30.73-13.05,47.64-14.13-1.41-1.29-2.71-1.61-3.98-1.53-10.79.75-21.67.88-32.32,2.54-17.75,2.76-35.26,7.15-53.05,9.57-9.41,1.28-19.2.15-28.78-.53-2.99-.21-7.54-1-5.77-6.5.14-.42-1.33-1.94-1.7-1.82-.94.29-2.2,1.1-2.4,1.92-.86,3.64,1.53,5.57,4.38,6.91,7.61,3.6,15.74,4.57,23.92,3.25,23.05-3.67,45.93-8.33,69.03-11.76.1.41.19.83.29,1.24-1.63.69-3.32,1.24-4.86,2.08-6.27,3.41-12.73,6.54-18.64,10.49-4.62,3.09-7.94,7.57-8.46,13.55-.31,3.58,1.08,6.05,4.27,7.71,11.05,5.75,37.26-3.92,41.81-15.49,1.88-4.77-.15-8.89-4.95-10.05-7.6-1.84-23.48,5.56-26.83,12.5-1.59,3.29-.42,5.54,3.18,6.12,5.39.87,12.57-3.26,15.05-8.33-3.54,1.83-7.34,4.03-11.35,5.72Zm80.21-25.81c24.63,4.44,49.29,9.32,74.13,12.15,6.15.62,12.71-1.81,18.93-3.43,3-.78,5.16-3.29,4.31-6.88-.19-.82-1.46-1.51-2.38-1.94-.24-.11-1.59,1.08-1.51,1.48,1.41,6.6-3.94,6.38-7.6,7.18-12.29,2.66-24.46,1.1-36.65-1.29-16.82-3.29-33.72-6.21-50.59-9.22-2.83-.5-5.93-1.1-7.4,3.14,2.66.88,5.11,1.42,7.32,2.48,7.48,3.55,15.19,6.76,22.15,11.17,3.36,2.13,5.92,6.32,7.58,10.13,2.19,5.03-.15,8.75-5.59,9.29-13.18,1.31-24.11-3.72-32.96-13.25-1.32-1.42-2.21-4.96-1.36-6.25,1.07-1.62,4.16-2.72,6.32-2.64,6.69.27,12.61,3.05,17.52,7.57,1.42,1.31,2.04,3.47,3.03,5.25-2.14.17-4.57,1.07-6.34.35-3.5-1.43-6.63-3.77-10.97-6.36,3.99,5.45,8.01,8.88,13.62,9.41,2,.19,5.16-.72,5.95-2.14.76-1.38-.22-4.64-1.54-6.08-5.58-6.11-12.81-9.74-20.99-10.33-2.95-.21-7.82,1.53-8.72,3.68-3.05,11.61,12.64,19.97,22.12,22.04,5.18,1.22,10.9,1.65,16.13.82,6.93-1.1,9.51-6.55,6.16-12.77-2.29-4.24-5.72-8.39-9.66-11.1-6.52-4.48-13.85-7.76-20.85-11.55-.05-.31-.1-.62-.15-.93Zm79.22-27.36c-2.04,3.31-3.5,5.69-4.96,8.06-1.25-1.43-1.17-2.43-1.51-3.26-.77-1.88-1.36-4.67-2.76-5.21-1.51-.59-4.44.36-5.72,1.66-2.63,2.67-4.48,6.1-6.83,9.07-2.17,2.73-4.58,5.27-6.89,7.9-1.09-7.65,9.01-10.69,6.31-19.32-2.23,1.14-3.79,1.94-5.35,2.73-.05-.4-.1-.8-.15-1.2h-8.51c-4.29,5.25-8.37,10.25-12.46,15.25.15.16.29.31.43.47,1.18.72,2.36,1.43,2.82,1.71,4-5.19,7.92-10.28,11.84-15.37.47.32.94.63,1.41.94-2.4,4.77-8.33,8.24-6.18,15.69,3.37-6.84,6.9-12.35,12.83-15.81-1.24,2.6-3.44,4.63-4.44,7.14-1.01,2.56-.84,5.59-1.18,8.41,2.21-.41,4.42-.82,7.02-1.3,3.99,4.18,5.23,4.12,12.34-1.14,2.3,4.51,2.66,4.54,6.19.56-.66-.25-1.3-.49-2.13-.8,3.4-4.78,9.07-8.35,7.88-16.18Zm-21.77,17.72c1.48-3.52,2.96-7.04,4.84-11.53,3.14,8.97,2.72,10.16-4.84,11.53Zm10.28-6.92c-.83-.21-1.67-.43-2.51-.64.78-3.15,1.56-6.3,2.34-9.46.91.23,1.81.46,2.71.69-.84,3.13-1.69,6.27-2.54,9.41Zm34.91-15.9c-2.26,6.58-4.08,12.33-6.26,17.95-2.01,5.4-7.91,11.4-12.56,5.17-2.5.3-5.74,1.38-6.27.61-1.59-2.32-1.51-4.95,1.05-7.45,2.87-2.81,5.01-6.38,7.26-9.35q1.09,1.8-4.99,15.03c3.69-3.31,7.54-6.46,11.02-9.97,3.58-3.6,6.8-7.55,10.74-11.99Zm-8.12,14.06c-.56-.41-1.13-.81-1.69-1.22-2.39,3.23-4.78,6.47-7.18,9.7.65.47,1.3.93,1.94,1.4,2.31-3.29,4.62-6.59,6.93-9.88Zm-159.08-24.49c6-7.9,11.82-15.96,18.11-23.62,2.04-2.48,5.33-3.93,8.04-5.86.51.45,1.02.91,1.52,1.36-.93,1.71-1.57,3.68-2.84,5.08-5.46,6.02-11.38,11.64-16.6,17.86-3.37,4-6.02,8.66-8.54,13.27-.63,1.16.48,3.27.98,5.93-3.55,2.79-2.84-3.97-5.33-4.42,1.55-3.2,3.1-6.4,4.66-9.61Zm13.05-13.7c.29.25.58.5.87.76,3.11-3.47,6.22-6.94,9.33-10.41-.32-.28-.64-.56-.96-.84-3.08,3.5-6.16,7-9.24,10.5Zm81.9,44.91c-1.37.67-2.74,1.34-5.32,2.6,2.84-7.82,5.96-13.7,12.31-17.89-4.37-.54-9.05-1.65-12.86-.3-6.89,2.45-10.3,8.58-11.65,15.64-.21,1.1.67,2.4,1.05,3.61,1.22-.48,2.44-.96,3.66-1.44-.68-.48-1.93-.95-1.93-1.44-.04-4.72,7.87-13.99,12.61-14.92.39-.08.87.29,2.62.93-4.72,5.47-9.05,10.48-13.39,15.5,1.71-.89,3.42-1.78,5.19-2.7.62,1.69,1.17,3.16,2.08,5.64,2.36-1.86,4.21-3.31,6.07-4.77-.14-.16-.29-.32-.43-.47Zm48.13,38.09c1.44.15,3.05-1.31,4.59-2.02-1.25-1.06-2.36-2.79-3.77-3.08-11.66-2.41-23.37-4.56-35.06-6.78,10.7,5.95,21.91,10.61,34.24,11.88Zm-227.68-5.05c-1.32.27-2.38,1.81-3.56,2.76,1.45.8,2.96,2.39,4.34,2.28,12.42-.95,23.55-5.75,35.4-11.98-12.87,2.44-24.55,4.58-36.18,6.94Zm53.88-54.37c1.49-6.15,4.31-12.05,10.55-15.54,3.28-1.84,5.87-.31,6.48,3.39.92,5.53-6.26,15.9-11.74,16.88-3.27.59-5.11-.75-5.3-4.73Zm2.03,2.54c.6.21,1.2.42,1.79.63,5.97-3.41,6.14-4.03,2.5-12.25-1.66,4.49-2.98,8.05-4.29,11.62Zm12.56-16.54c-.91-.23-1.81-.46-2.72-.69-.77,3.01-1.54,6.02-2.31,9.03.89.23,1.78.45,2.67.68.78-3.01,1.57-6.01,2.35-9.02Zm-52.95,80.72c-.79,1.16.11,3.47.23,5.25,1.56-.6,3.6-.76,4.61-1.87,6.22-6.76,12.21-13.73,18.37-20.74-9.05,3.95-17.45,8.92-23.21,17.35Zm175.97-14.68c5.43,5.75,10.73,11.62,16.3,17.24,1.3,1.31,3.44,1.78,5.19,2.63-.02-2.07.03-4.15-.12-6.21-.04-.56-.66-1.13-1.11-1.61-6.18-6.65-13.68-11.27-22.51-13.88.75.6,1.59,1.13,2.25,1.82ZM102.66,35.73c-2.2,1.92-3.43,3-4.66,4.07-.36-.25-.71-.51-1.07-.76,1.02-2.32,2.04-4.63,3.06-6.95-.59-.4-1.19-.81-1.78-1.21-5.6,5.85-4.61,5.89-2.43,13.24-.05,3.71-4.96,6.57-2.09,12.65,1.77-2.21,3.04-3.8,4.32-5.4,1.55-3.2,3.1-6.4,4.66-9.61v-6.03Zm102.07,69.97c1.73,4.06,3.32,8.19,5.29,12.13.49.98,2.21,1.35,3.37,1.99.34-1.3,1.4-3.05.91-3.83-2.45-3.93-5.3-7.61-8.02-11.38-.52.36-1.03.73-1.55,1.09Zm-154.1,10.1c-.37,1.1.49,2.61.78,3.93,1.16-.61,2.9-.93,3.38-1.88,1.97-3.9,3.57-8,5.74-13.05-5.38,2.91-8.38,6.4-9.91,11.01Zm18.64-18.8c-.05-.95-2.12-2.61-3.13-2.5-1.09.13-2.5,1.84-2.77,3.08-.17.77,1.54,1.94,2.94,3.53,1.38-1.79,3.01-2.99,2.96-4.11Zm126.38-.09c.43,1.25,1.85,2.58,3.13,2.93.66.18,2.69-1.69,2.65-2.56-.06-1.19-1.5-2.32-2.89-4.21-1.44,1.83-3.11,3.17-2.88,3.84ZM7.61,8.98C2,13.8.47,19.21,2.53,22.6c1.61-3.83,3.56-8.49,5.52-13.15-.15-.16-.29-.31-.44-.47Zm144.3,74.09c-4.62-3.24-9.56-1.41-14.37-1.62-.05.47-.1.93-.14,1.4,4.48.45,8.96.9,13.45,1.35.35-.38.71-.75,1.06-1.13Zm-35.33-54.25c3.11-3.47,6.22-6.94,9.33-10.41-.32-.28-.64-.56-.96-.84-3.08,3.5-6.16,7-9.24,10.5.29.25.58.5.87.76Zm-56.97,94.8l-6.19,3.39c2.18-.28,4.22-1.39,6.19-3.39Zm148.89,2.5c2.43,1.3,5.08,1.41,7.86.14l-7.86-.14Z"/>
  </g>
</svg>